%TF.GenerationSoftware,KiCad,Pcbnew,(6.99.0-4059-gb058ef2d87)*%
%TF.CreationDate,2022-11-01T12:35:59-04:00*%
%TF.ProjectId,rp2040_keyboard,72703230-3430-45f6-9b65-79626f617264,rev?*%
%TF.SameCoordinates,Original*%
%TF.FileFunction,Legend,Bot*%
%TF.FilePolarity,Positive*%
%FSLAX46Y46*%
G04 Gerber Fmt 4.6, Leading zero omitted, Abs format (unit mm)*
G04 Created by KiCad (PCBNEW (6.99.0-4059-gb058ef2d87)) date 2022-11-01 12:35:59*
%MOMM*%
%LPD*%
G01*
G04 APERTURE LIST*
G04 APERTURE END LIST*
%TO.C,G\u002A\u002A\u002A*%
G36*
X152631244Y-121667846D02*
G01*
X152323054Y-121667846D01*
X152323054Y-120280991D01*
X152631244Y-120280991D01*
X152631244Y-121667846D01*
G37*
G36*
X147417695Y-121667846D02*
G01*
X147109505Y-121667846D01*
X147109505Y-120280991D01*
X147417695Y-120280991D01*
X147417695Y-121667846D01*
G37*
G36*
X138300405Y-83323863D02*
G01*
X137915167Y-83323863D01*
X137915167Y-82938625D01*
X138300405Y-82938625D01*
X138300405Y-83323863D01*
G37*
G36*
X138300405Y-82527705D02*
G01*
X137915167Y-82527705D01*
X137915167Y-82142467D01*
X138300405Y-82142467D01*
X138300405Y-82527705D01*
G37*
G36*
X138300405Y-81757230D02*
G01*
X137915167Y-81757230D01*
X137915167Y-81371992D01*
X138300405Y-81371992D01*
X138300405Y-81757230D01*
G37*
G36*
X138300405Y-80961072D02*
G01*
X137915167Y-80961072D01*
X137915167Y-80575834D01*
X138300405Y-80575834D01*
X138300405Y-80961072D01*
G37*
G36*
X132316380Y-122104449D02*
G01*
X131931143Y-122104449D01*
X131931143Y-121770576D01*
X132316380Y-121770576D01*
X132316380Y-122104449D01*
G37*
G36*
X132316380Y-120589181D02*
G01*
X131931143Y-120589181D01*
X131931143Y-120203943D01*
X132316380Y-120203943D01*
X132316380Y-120589181D01*
G37*
G36*
X132316380Y-119793023D02*
G01*
X131931143Y-119793023D01*
X131931143Y-119407786D01*
X132316380Y-119407786D01*
X132316380Y-119793023D01*
G37*
G36*
X126846006Y-80832659D02*
G01*
X126460769Y-80832659D01*
X126460769Y-80447422D01*
X126846006Y-80447422D01*
X126846006Y-80832659D01*
G37*
G36*
X126846006Y-80062184D02*
G01*
X126460769Y-80062184D01*
X126460769Y-79676946D01*
X126846006Y-79676946D01*
X126846006Y-80062184D01*
G37*
G36*
X126846006Y-79266026D02*
G01*
X126460769Y-79266026D01*
X126460769Y-78880789D01*
X126846006Y-78880789D01*
X126846006Y-79266026D01*
G37*
G36*
X147392012Y-124056320D02*
G01*
X146595855Y-124056320D01*
X146595855Y-123748130D01*
X147083822Y-123748130D01*
X147083822Y-122669464D01*
X147392012Y-122669464D01*
X147392012Y-124056320D01*
G37*
G36*
X156586350Y-121667846D02*
G01*
X155713145Y-121667846D01*
X155713145Y-121359656D01*
X156278160Y-121359656D01*
X156278160Y-121102831D01*
X155790192Y-121102831D01*
X155790192Y-120820324D01*
X156278160Y-120820324D01*
X156278160Y-120589181D01*
X155738827Y-120589181D01*
X155738827Y-120280991D01*
X156586350Y-120280991D01*
X156586350Y-121667846D01*
G37*
G36*
X150756421Y-121667846D02*
G01*
X149883215Y-121667846D01*
X149883215Y-121359656D01*
X150448231Y-121359656D01*
X150448231Y-121102831D01*
X149960263Y-121102831D01*
X149960263Y-120820324D01*
X150448231Y-120820324D01*
X150448231Y-120589181D01*
X149908898Y-120589181D01*
X149908898Y-120280991D01*
X150756421Y-120280991D01*
X150756421Y-121667846D01*
G37*
G36*
X149677755Y-121667846D02*
G01*
X148804550Y-121667846D01*
X148804550Y-121359656D01*
X149369565Y-121359656D01*
X149369565Y-121102831D01*
X148881598Y-121102831D01*
X148881598Y-120820324D01*
X149369565Y-120820324D01*
X149369565Y-120589181D01*
X148830233Y-120589181D01*
X148830233Y-120280991D01*
X149677755Y-120280991D01*
X149677755Y-121667846D01*
G37*
G36*
X154768626Y-120653235D02*
G01*
X154775733Y-121025480D01*
X155039424Y-120653235D01*
X155303116Y-120280991D01*
X155533367Y-120280991D01*
X155533367Y-121667846D01*
X155226550Y-121667846D01*
X155212336Y-120916754D01*
X154947459Y-121292300D01*
X154682583Y-121667846D01*
X154454702Y-121667846D01*
X154454702Y-120280991D01*
X154761519Y-120280991D01*
X154768626Y-120653235D01*
G37*
G36*
X151301487Y-120653235D02*
G01*
X151308595Y-121025480D01*
X151572286Y-120653235D01*
X151835977Y-120280991D01*
X152066229Y-120280991D01*
X152066229Y-121667846D01*
X151759412Y-121667846D01*
X151752304Y-121292300D01*
X151745197Y-120916754D01*
X151215445Y-121667846D01*
X150987563Y-121667846D01*
X150987563Y-120280991D01*
X151294380Y-120280991D01*
X151301487Y-120653235D01*
G37*
G36*
X150550961Y-119306328D02*
G01*
X149716279Y-119292214D01*
X149716279Y-119163802D01*
X150069414Y-119156657D01*
X150422548Y-119149511D01*
X150422548Y-118637310D01*
X149780485Y-118637310D01*
X149780485Y-118508898D01*
X150422548Y-118508898D01*
X150422548Y-117995248D01*
X149729120Y-117995248D01*
X149729120Y-117866835D01*
X150550961Y-117866835D01*
X150550961Y-119306328D01*
G37*
G36*
X146087938Y-120653235D02*
G01*
X146095046Y-121025480D01*
X146358737Y-120653235D01*
X146622428Y-120280991D01*
X146852680Y-120280991D01*
X146852680Y-121667846D01*
X146545863Y-121667846D01*
X146538755Y-121292300D01*
X146531648Y-120916754D01*
X146001896Y-121667846D01*
X145774014Y-121667846D01*
X145774014Y-120280991D01*
X146080831Y-120280991D01*
X146087938Y-120653235D01*
G37*
G36*
X146210617Y-119306328D02*
G01*
X145375935Y-119292214D01*
X145375935Y-119163802D01*
X145729070Y-119156657D01*
X146082204Y-119149511D01*
X146082204Y-118637310D01*
X145440142Y-118637310D01*
X145440142Y-118508898D01*
X146082204Y-118508898D01*
X146082204Y-117995248D01*
X145388777Y-117995248D01*
X145388777Y-117866835D01*
X146210617Y-117866835D01*
X146210617Y-119306328D01*
G37*
G36*
X148342265Y-119306328D02*
G01*
X147924924Y-119299271D01*
X147507584Y-119292214D01*
X147507584Y-119163802D01*
X147860718Y-119156657D01*
X148213852Y-119149511D01*
X148213852Y-118637310D01*
X147571790Y-118637310D01*
X147571790Y-118508898D01*
X148213852Y-118508898D01*
X148213852Y-117995248D01*
X147520425Y-117995248D01*
X147520425Y-117866835D01*
X148342265Y-117866835D01*
X148342265Y-119306328D01*
G37*
G36*
X144835220Y-100965000D02*
G01*
X144925828Y-101144922D01*
X144766943Y-101234462D01*
X144760309Y-101238183D01*
X144680763Y-101279961D01*
X144620039Y-101306909D01*
X144590819Y-101313347D01*
X144590513Y-101313144D01*
X144568943Y-101286000D01*
X144530066Y-101227190D01*
X144482083Y-101149096D01*
X144390586Y-100995499D01*
X144478761Y-100943098D01*
X144482918Y-100940628D01*
X144569833Y-100888971D01*
X144655774Y-100837887D01*
X144744613Y-100785077D01*
X144835220Y-100965000D01*
G37*
G36*
X113928947Y-97309589D02*
G01*
X113970305Y-97363931D01*
X114018150Y-97441056D01*
X114108468Y-97599807D01*
X113947694Y-97690411D01*
X113938774Y-97695395D01*
X113859356Y-97735910D01*
X113799031Y-97760072D01*
X113770250Y-97762803D01*
X113752651Y-97736770D01*
X113717151Y-97677522D01*
X113672896Y-97599825D01*
X113592212Y-97455059D01*
X113733326Y-97375420D01*
X113801428Y-97337930D01*
X113866023Y-97304491D01*
X113901135Y-97289043D01*
X113902442Y-97288900D01*
X113928947Y-97309589D01*
G37*
G36*
X145449583Y-100460552D02*
G01*
X145462308Y-100480892D01*
X145504768Y-100549181D01*
X145552546Y-100626410D01*
X145619248Y-100734518D01*
X145446227Y-100836336D01*
X145425322Y-100848443D01*
X145345066Y-100891063D01*
X145284981Y-100916938D01*
X145256770Y-100920846D01*
X145238894Y-100894609D01*
X145203298Y-100835337D01*
X145158915Y-100757470D01*
X145077495Y-100611400D01*
X145136826Y-100574103D01*
X145157696Y-100561033D01*
X145226949Y-100517946D01*
X145304740Y-100469804D01*
X145413323Y-100402803D01*
X145449583Y-100460552D01*
G37*
G36*
X142727238Y-102027185D02*
G01*
X142739962Y-102047525D01*
X142782422Y-102115814D01*
X142830200Y-102193043D01*
X142896902Y-102301151D01*
X142723881Y-102402969D01*
X142702976Y-102415076D01*
X142622720Y-102457696D01*
X142562635Y-102483571D01*
X142534424Y-102487479D01*
X142516549Y-102461242D01*
X142480953Y-102401970D01*
X142436569Y-102324102D01*
X142355149Y-102178033D01*
X142414481Y-102140736D01*
X142435350Y-102127666D01*
X142504604Y-102084579D01*
X142582395Y-102036437D01*
X142690977Y-101969436D01*
X142727238Y-102027185D01*
G37*
G36*
X141366065Y-102797660D02*
G01*
X141378789Y-102818000D01*
X141421249Y-102886289D01*
X141469027Y-102963518D01*
X141535729Y-103071627D01*
X141362708Y-103173444D01*
X141341803Y-103185551D01*
X141261547Y-103228172D01*
X141201462Y-103254047D01*
X141173251Y-103257955D01*
X141155376Y-103231717D01*
X141119780Y-103172445D01*
X141075396Y-103094578D01*
X140993976Y-102948508D01*
X141053308Y-102911211D01*
X141074177Y-102898142D01*
X141143431Y-102855054D01*
X141221222Y-102806912D01*
X141329804Y-102739911D01*
X141366065Y-102797660D01*
G37*
G36*
X111208560Y-98850946D02*
G01*
X111229899Y-98878274D01*
X111268602Y-98937208D01*
X111316603Y-99015490D01*
X111408808Y-99170275D01*
X111236457Y-99257766D01*
X111220860Y-99265581D01*
X111138593Y-99303205D01*
X111076735Y-99325633D01*
X111047670Y-99328241D01*
X111030114Y-99302665D01*
X110994702Y-99243862D01*
X110950503Y-99166373D01*
X110869771Y-99021523D01*
X111030823Y-98931064D01*
X111039279Y-98926340D01*
X111118975Y-98884508D01*
X111179432Y-98857388D01*
X111208136Y-98850655D01*
X111208560Y-98850946D01*
G37*
G36*
X147417695Y-117931042D02*
G01*
X147415747Y-117961887D01*
X147403112Y-117980969D01*
X147369622Y-117990896D01*
X147305105Y-117994658D01*
X147199393Y-117995248D01*
X146981092Y-117995248D01*
X146981092Y-119308467D01*
X146910465Y-119300341D01*
X146839838Y-119292214D01*
X146832977Y-118643731D01*
X146826115Y-117995248D01*
X146608255Y-117995248D01*
X146503997Y-117994682D01*
X146439027Y-117990978D01*
X146405222Y-117981137D01*
X146392405Y-117962158D01*
X146390394Y-117931042D01*
X146390394Y-117866835D01*
X147417695Y-117866835D01*
X147417695Y-117931042D01*
G37*
G36*
X142027843Y-102394448D02*
G01*
X142067884Y-102449522D01*
X142115283Y-102527027D01*
X142206072Y-102686613D01*
X142095958Y-102754527D01*
X142060621Y-102776376D01*
X141986951Y-102822244D01*
X141934479Y-102855325D01*
X141898520Y-102873925D01*
X141867174Y-102878768D01*
X141866802Y-102878524D01*
X141845722Y-102851683D01*
X141807230Y-102793143D01*
X141759379Y-102715129D01*
X141667525Y-102560932D01*
X141823455Y-102469544D01*
X141826840Y-102467562D01*
X141907062Y-102421675D01*
X141969876Y-102387677D01*
X142001940Y-102372799D01*
X142003189Y-102372731D01*
X142027843Y-102394448D01*
G37*
G36*
X126227368Y-99080034D02*
G01*
X126263763Y-99146458D01*
X126297265Y-99212232D01*
X126312777Y-99249065D01*
X126312924Y-99250315D01*
X126293217Y-99279110D01*
X126240498Y-99323835D01*
X126165420Y-99375361D01*
X126158614Y-99379605D01*
X126081670Y-99423885D01*
X126023020Y-99451217D01*
X125994889Y-99455830D01*
X125976976Y-99430066D01*
X125941390Y-99371226D01*
X125897034Y-99293567D01*
X125815614Y-99147497D01*
X125874946Y-99110200D01*
X125894936Y-99097680D01*
X125963962Y-99054736D01*
X126041486Y-99006768D01*
X126148695Y-98940634D01*
X126227368Y-99080034D01*
G37*
G36*
X125494275Y-99381887D02*
G01*
X125507261Y-99402645D01*
X125549793Y-99471050D01*
X125597658Y-99548411D01*
X125664781Y-99657186D01*
X125555545Y-99724545D01*
X125521159Y-99745803D01*
X125447543Y-99791630D01*
X125394945Y-99824789D01*
X125358985Y-99843389D01*
X125327639Y-99848232D01*
X125327216Y-99847951D01*
X125306034Y-99820915D01*
X125267460Y-99762220D01*
X125219531Y-99684066D01*
X125127363Y-99529343D01*
X125184106Y-99493741D01*
X125204591Y-99480935D01*
X125272405Y-99438788D01*
X125349432Y-99391139D01*
X125458014Y-99324138D01*
X125494275Y-99381887D01*
G37*
G36*
X122765963Y-100930545D02*
G01*
X122806004Y-100985619D01*
X122853403Y-101063125D01*
X122944191Y-101222710D01*
X122834077Y-101290624D01*
X122798741Y-101312474D01*
X122725071Y-101358341D01*
X122672599Y-101391422D01*
X122636639Y-101410022D01*
X122605293Y-101414865D01*
X122604921Y-101414621D01*
X122583842Y-101387780D01*
X122545350Y-101329240D01*
X122497499Y-101251226D01*
X122405644Y-101097029D01*
X122561574Y-101005641D01*
X122564959Y-101003659D01*
X122645182Y-100957772D01*
X122707995Y-100923774D01*
X122740059Y-100908896D01*
X122741309Y-100908828D01*
X122765963Y-100930545D01*
G37*
G36*
X114630574Y-96916366D02*
G01*
X114643560Y-96937124D01*
X114686092Y-97005529D01*
X114733958Y-97082890D01*
X114801080Y-97191665D01*
X114691844Y-97259024D01*
X114657458Y-97280282D01*
X114583842Y-97326110D01*
X114531244Y-97359269D01*
X114495284Y-97377869D01*
X114463939Y-97382711D01*
X114463516Y-97382430D01*
X114442333Y-97355394D01*
X114403760Y-97296699D01*
X114355830Y-97218545D01*
X114263662Y-97063822D01*
X114320405Y-97028221D01*
X114340891Y-97015414D01*
X114408704Y-96973267D01*
X114485731Y-96925618D01*
X114594314Y-96858617D01*
X114630574Y-96916366D01*
G37*
G36*
X113269401Y-97712524D02*
G01*
X113282387Y-97733282D01*
X113324919Y-97801687D01*
X113372785Y-97879048D01*
X113439907Y-97987823D01*
X113330672Y-98055182D01*
X113296285Y-98076440D01*
X113222669Y-98122267D01*
X113170071Y-98155426D01*
X113134112Y-98174026D01*
X113102766Y-98178869D01*
X113102343Y-98178588D01*
X113081160Y-98151552D01*
X113042587Y-98092857D01*
X112994657Y-98014703D01*
X112902489Y-97859980D01*
X112959233Y-97824378D01*
X112979718Y-97811572D01*
X113047531Y-97769425D01*
X113124558Y-97721776D01*
X113233141Y-97654775D01*
X113269401Y-97712524D01*
G37*
G36*
X111902262Y-98465025D02*
G01*
X111942303Y-98520099D01*
X111989702Y-98597604D01*
X112080490Y-98757189D01*
X111970377Y-98825103D01*
X111935040Y-98846953D01*
X111861370Y-98892820D01*
X111808898Y-98925902D01*
X111772939Y-98944502D01*
X111741593Y-98949344D01*
X111741221Y-98949100D01*
X111720141Y-98922259D01*
X111681649Y-98863719D01*
X111633798Y-98785705D01*
X111541944Y-98631508D01*
X111697873Y-98540120D01*
X111701259Y-98538138D01*
X111781481Y-98492251D01*
X111844295Y-98458253D01*
X111876358Y-98443375D01*
X111877608Y-98443307D01*
X111902262Y-98465025D01*
G37*
G36*
X110541089Y-99261182D02*
G01*
X110581130Y-99316256D01*
X110628529Y-99393762D01*
X110719318Y-99553347D01*
X110609204Y-99621261D01*
X110573867Y-99643111D01*
X110500197Y-99688978D01*
X110447725Y-99722059D01*
X110411766Y-99740659D01*
X110380420Y-99745502D01*
X110380048Y-99745258D01*
X110358968Y-99718417D01*
X110320476Y-99659877D01*
X110272625Y-99581863D01*
X110180771Y-99427666D01*
X110336700Y-99336278D01*
X110340086Y-99334296D01*
X110420308Y-99288409D01*
X110483122Y-99254411D01*
X110515185Y-99239533D01*
X110516435Y-99239465D01*
X110541089Y-99261182D01*
G37*
G36*
X138254437Y-76320100D02*
G01*
X138435723Y-76350417D01*
X138614443Y-76400804D01*
X138780837Y-76467190D01*
X138925146Y-76545506D01*
X139037610Y-76631683D01*
X139108470Y-76721653D01*
X139141072Y-76810817D01*
X139154921Y-76933456D01*
X139139260Y-77050679D01*
X139094698Y-77143756D01*
X139060730Y-77177450D01*
X138978246Y-77209278D01*
X138872415Y-77197065D01*
X138741714Y-77140799D01*
X138696208Y-77115849D01*
X138575138Y-77048470D01*
X138438268Y-76971211D01*
X138292321Y-76887981D01*
X138144021Y-76802685D01*
X138000090Y-76719233D01*
X137867252Y-76641530D01*
X137752230Y-76573486D01*
X137661748Y-76519006D01*
X137602528Y-76482000D01*
X137581294Y-76466373D01*
X137581987Y-76461227D01*
X137613176Y-76428362D01*
X137682842Y-76394686D01*
X137780088Y-76363254D01*
X137894013Y-76337122D01*
X138013721Y-76319347D01*
X138128312Y-76312984D01*
X138254437Y-76320100D01*
G37*
G36*
X126942628Y-74647576D02*
G01*
X127146645Y-74696765D01*
X127334997Y-74768412D01*
X127496422Y-74859656D01*
X127619655Y-74967638D01*
X127668959Y-75046868D01*
X127702065Y-75159780D01*
X127708044Y-75278899D01*
X127686351Y-75387969D01*
X127636446Y-75470733D01*
X127619672Y-75485633D01*
X127569176Y-75510933D01*
X127505065Y-75514687D01*
X127421715Y-75495216D01*
X127313502Y-75450840D01*
X127174802Y-75379880D01*
X126999992Y-75280656D01*
X126942874Y-75247321D01*
X126789050Y-75158157D01*
X126633351Y-75068649D01*
X126491147Y-74987610D01*
X126377812Y-74923857D01*
X126321363Y-74892333D01*
X126232425Y-74841047D01*
X126179373Y-74805870D01*
X126155889Y-74781169D01*
X126155654Y-74761310D01*
X126172352Y-74740661D01*
X126213508Y-74714572D01*
X126290730Y-74682328D01*
X126383721Y-74653729D01*
X126532656Y-74628017D01*
X126734211Y-74623706D01*
X126942628Y-74647576D01*
G37*
G36*
X119334450Y-101796965D02*
G01*
X119488539Y-101852946D01*
X119588490Y-101911411D01*
X119726644Y-102016571D01*
X119860795Y-102142019D01*
X119976622Y-102274064D01*
X120059800Y-102399013D01*
X120094642Y-102470306D01*
X120148796Y-102608638D01*
X120188271Y-102746627D01*
X120209230Y-102869656D01*
X120207840Y-102963112D01*
X120191854Y-103048324D01*
X120032530Y-102941092D01*
X120007418Y-102924096D01*
X119923672Y-102866850D01*
X119810113Y-102788733D01*
X119675311Y-102695658D01*
X119527833Y-102593537D01*
X119376251Y-102488282D01*
X119326813Y-102453895D01*
X119181007Y-102352097D01*
X119071160Y-102274026D01*
X118992413Y-102215396D01*
X118939906Y-102171919D01*
X118908779Y-102139308D01*
X118894171Y-102113276D01*
X118891224Y-102089534D01*
X118895077Y-102063796D01*
X118916381Y-101989672D01*
X118981418Y-101882461D01*
X119076021Y-101813452D01*
X119195321Y-101784377D01*
X119334450Y-101796965D01*
G37*
G36*
X106733169Y-100844640D02*
G01*
X106766866Y-100865895D01*
X106836543Y-100911330D01*
X106936629Y-100977266D01*
X107061554Y-101060023D01*
X107205746Y-101155922D01*
X107363634Y-101261284D01*
X107504451Y-101355789D01*
X107677443Y-101474146D01*
X107812446Y-101571145D01*
X107912618Y-101650524D01*
X107981119Y-101716024D01*
X108021107Y-101771384D01*
X108035742Y-101820343D01*
X108028182Y-101866642D01*
X108001587Y-101914020D01*
X107959115Y-101966217D01*
X107902335Y-102016491D01*
X107828109Y-102061521D01*
X107728024Y-102090611D01*
X107589474Y-102086107D01*
X107435886Y-102034238D01*
X107281158Y-101940564D01*
X107124363Y-101803444D01*
X106980697Y-101636420D01*
X106859409Y-101450300D01*
X106769749Y-101255892D01*
X106745505Y-101174775D01*
X106725878Y-101079943D01*
X106713525Y-100987507D01*
X106709559Y-100909371D01*
X106715091Y-100857439D01*
X106731235Y-100843613D01*
X106733169Y-100844640D01*
G37*
G36*
X137260399Y-76621165D02*
G01*
X137297409Y-76636302D01*
X137370693Y-76672630D01*
X137473457Y-76726357D01*
X137598910Y-76793688D01*
X137740260Y-76870830D01*
X137890713Y-76953988D01*
X138043477Y-77039369D01*
X138191761Y-77123180D01*
X138328771Y-77201626D01*
X138447715Y-77270914D01*
X138541800Y-77327251D01*
X138604235Y-77366841D01*
X138628227Y-77385893D01*
X138628899Y-77392787D01*
X138603422Y-77424664D01*
X138541011Y-77459908D01*
X138452605Y-77494110D01*
X138349139Y-77522863D01*
X138241553Y-77541756D01*
X138083043Y-77551212D01*
X137825896Y-77527424D01*
X137579872Y-77456279D01*
X137352847Y-77339567D01*
X137316086Y-77314915D01*
X137180418Y-77201266D01*
X137094246Y-77084209D01*
X137058194Y-76964844D01*
X137072884Y-76844275D01*
X137077672Y-76831252D01*
X137114986Y-76760965D01*
X137165687Y-76692747D01*
X137217625Y-76641206D01*
X137258647Y-76620951D01*
X137260399Y-76621165D01*
G37*
G36*
X125863506Y-74964057D02*
G01*
X125945141Y-74997012D01*
X126054369Y-75050474D01*
X126197044Y-75125767D01*
X126379021Y-75224217D01*
X126478757Y-75278458D01*
X126638200Y-75365650D01*
X126785350Y-75446685D01*
X126911979Y-75517005D01*
X127009857Y-75572053D01*
X127070757Y-75607273D01*
X127143562Y-75652605D01*
X127178455Y-75681841D01*
X127181920Y-75703802D01*
X127160646Y-75727428D01*
X127135784Y-75745602D01*
X127042235Y-75788769D01*
X126915649Y-75824311D01*
X126769153Y-75848177D01*
X126721065Y-75852445D01*
X126474784Y-75845025D01*
X126229229Y-75791869D01*
X125995783Y-75696295D01*
X125785830Y-75561619D01*
X125759647Y-75539714D01*
X125666753Y-75429702D01*
X125618517Y-75308469D01*
X125616768Y-75183469D01*
X125663333Y-75062155D01*
X125664358Y-75060472D01*
X125695831Y-75010782D01*
X125725628Y-74974969D01*
X125759604Y-74954361D01*
X125803612Y-74950281D01*
X125863506Y-74964057D01*
G37*
G36*
X118914226Y-102520535D02*
G01*
X118949125Y-102533660D01*
X119002838Y-102562257D01*
X119080132Y-102608959D01*
X119185774Y-102676398D01*
X119324527Y-102767207D01*
X119501158Y-102884016D01*
X119517973Y-102895172D01*
X119675783Y-103000862D01*
X119820493Y-103099491D01*
X119946124Y-103186853D01*
X120046693Y-103258745D01*
X120116219Y-103310960D01*
X120148721Y-103339293D01*
X120166481Y-103365111D01*
X120191873Y-103453511D01*
X120171949Y-103544386D01*
X120109946Y-103629365D01*
X120009103Y-103700079D01*
X119919597Y-103730357D01*
X119786222Y-103732489D01*
X119643387Y-103693756D01*
X119496841Y-103617983D01*
X119352331Y-103508993D01*
X119215606Y-103370613D01*
X119092414Y-103206667D01*
X118988503Y-103020979D01*
X118972239Y-102985372D01*
X118919830Y-102849224D01*
X118884720Y-102721522D01*
X118869682Y-102614289D01*
X118877489Y-102539552D01*
X118881813Y-102530175D01*
X118893378Y-102520251D01*
X118914226Y-102520535D01*
G37*
G36*
X107140140Y-100136007D02*
G01*
X107268304Y-100181565D01*
X107424803Y-100267934D01*
X107579317Y-100381348D01*
X107718419Y-100511796D01*
X107828682Y-100649270D01*
X107882667Y-100741631D01*
X107939285Y-100863720D01*
X107986865Y-100992230D01*
X108022492Y-101116754D01*
X108043249Y-101226885D01*
X108046221Y-101312217D01*
X108028490Y-101362342D01*
X108024590Y-101365908D01*
X108013527Y-101371027D01*
X107996314Y-101369163D01*
X107968450Y-101357523D01*
X107925432Y-101333312D01*
X107862760Y-101293734D01*
X107775933Y-101235994D01*
X107660450Y-101157298D01*
X107511808Y-101054851D01*
X107325508Y-100925858D01*
X107283406Y-100896678D01*
X107114289Y-100779211D01*
X106982092Y-100686451D01*
X106882425Y-100614717D01*
X106810897Y-100560328D01*
X106763115Y-100519604D01*
X106734690Y-100488866D01*
X106721230Y-100464433D01*
X106718344Y-100442624D01*
X106721640Y-100419759D01*
X106745359Y-100346892D01*
X106814281Y-100245797D01*
X106910874Y-100171648D01*
X107023404Y-100132400D01*
X107140140Y-100136007D01*
G37*
G36*
X148316583Y-121667846D02*
G01*
X148316583Y-121205561D01*
X148240074Y-121205561D01*
X148203512Y-121209446D01*
X148171098Y-121226529D01*
X148135985Y-121264784D01*
X148090873Y-121332185D01*
X148028462Y-121436704D01*
X147893358Y-121667846D01*
X147566887Y-121667846D01*
X147649653Y-121520172D01*
X147689605Y-121449223D01*
X147746228Y-121349529D01*
X147792459Y-121269045D01*
X147852499Y-121165593D01*
X147751882Y-121070838D01*
X147728297Y-121047068D01*
X147647076Y-120926158D01*
X147609248Y-120793128D01*
X147611802Y-120708807D01*
X147913232Y-120708807D01*
X147915786Y-120774634D01*
X147934782Y-120839176D01*
X147960325Y-120888503D01*
X147974728Y-120899386D01*
X148042081Y-120916991D01*
X148152791Y-120923054D01*
X148316583Y-120923054D01*
X148316583Y-120563499D01*
X148174161Y-120563499D01*
X148158407Y-120563571D01*
X148072960Y-120569451D01*
X148015465Y-120589277D01*
X147965831Y-120629407D01*
X147943316Y-120653610D01*
X147913232Y-120708807D01*
X147611802Y-120708807D01*
X147613349Y-120657717D01*
X147657915Y-120529660D01*
X147741482Y-120418695D01*
X147862585Y-120334560D01*
X147917297Y-120311534D01*
X147976759Y-120296013D01*
X148052383Y-120286708D01*
X148155892Y-120282180D01*
X148299009Y-120280991D01*
X148624773Y-120280991D01*
X148624773Y-121667846D01*
X148316583Y-121667846D01*
G37*
G36*
X109860288Y-99585935D02*
G01*
X109911628Y-99603587D01*
X109962885Y-99640864D01*
X109996537Y-99675084D01*
X110055922Y-99773987D01*
X110088954Y-99887464D01*
X110087812Y-99993441D01*
X110074420Y-100032345D01*
X110046864Y-100074865D01*
X110001660Y-100120701D01*
X109934696Y-100172518D01*
X109841861Y-100232983D01*
X109719043Y-100304759D01*
X109562131Y-100390512D01*
X109367014Y-100492908D01*
X109129580Y-100614611D01*
X109019790Y-100670262D01*
X108846055Y-100757469D01*
X108689453Y-100835030D01*
X108555693Y-100900175D01*
X108450483Y-100950136D01*
X108379533Y-100982143D01*
X108348553Y-100993428D01*
X108322996Y-100987462D01*
X108263739Y-100939534D01*
X108196985Y-100846283D01*
X108125270Y-100710920D01*
X108078365Y-100600780D01*
X108051246Y-100498716D01*
X108055791Y-100424362D01*
X108091355Y-100371272D01*
X108101852Y-100363960D01*
X108154957Y-100333041D01*
X108245191Y-100283674D01*
X108366619Y-100219006D01*
X108513302Y-100142183D01*
X108679305Y-100056352D01*
X108858689Y-99964658D01*
X108952796Y-99916888D01*
X109140685Y-99822187D01*
X109291272Y-99747712D01*
X109410300Y-99690978D01*
X109503515Y-99649500D01*
X109576660Y-99620794D01*
X109635480Y-99602376D01*
X109685719Y-99591761D01*
X109733122Y-99586465D01*
X109789053Y-99583216D01*
X109860288Y-99585935D01*
G37*
G36*
X126660012Y-76094237D02*
G01*
X126718762Y-76094649D01*
X126838244Y-76099815D01*
X126916084Y-76111555D01*
X126959090Y-76130696D01*
X126964040Y-76135282D01*
X126974689Y-76151092D01*
X126983085Y-76177258D01*
X126989424Y-76218907D01*
X126993900Y-76281163D01*
X126996707Y-76369152D01*
X126998040Y-76488000D01*
X126998094Y-76642832D01*
X126997063Y-76838773D01*
X126995141Y-77080949D01*
X126993329Y-77277645D01*
X126990481Y-77501806D01*
X126986423Y-77683336D01*
X126980336Y-77827248D01*
X126971402Y-77938556D01*
X126958805Y-78022277D01*
X126941727Y-78083423D01*
X126919349Y-78127010D01*
X126890853Y-78158052D01*
X126855423Y-78181563D01*
X126812241Y-78202558D01*
X126721287Y-78227591D01*
X126608741Y-78230041D01*
X126503003Y-78208017D01*
X126424235Y-78163548D01*
X126409831Y-78149218D01*
X126380164Y-78111789D01*
X126355786Y-78065095D01*
X126336272Y-78004459D01*
X126321199Y-77925207D01*
X126310142Y-77822664D01*
X126302676Y-77692153D01*
X126298379Y-77528999D01*
X126296826Y-77328528D01*
X126297591Y-77086063D01*
X126300253Y-76796930D01*
X126301292Y-76697277D01*
X126303768Y-76510434D01*
X126308839Y-76366736D01*
X126319398Y-76260533D01*
X126338337Y-76186173D01*
X126368551Y-76138006D01*
X126412932Y-76110380D01*
X126474373Y-76097644D01*
X126555769Y-76094147D01*
X126660012Y-76094237D01*
G37*
G36*
X145696967Y-123153968D02*
G01*
X145697279Y-123316865D01*
X145698761Y-123445807D01*
X145702171Y-123538669D01*
X145708263Y-123603293D01*
X145717794Y-123647519D01*
X145731520Y-123679188D01*
X145750196Y-123706142D01*
X145776427Y-123735237D01*
X145830638Y-123765789D01*
X145911418Y-123773812D01*
X145931182Y-123773196D01*
X146014051Y-123759617D01*
X146076490Y-123733832D01*
X146087719Y-123725600D01*
X146104333Y-123708737D01*
X146116356Y-123683549D01*
X146124530Y-123642861D01*
X146129597Y-123579501D01*
X146132298Y-123486296D01*
X146133375Y-123356073D01*
X146133569Y-123181658D01*
X146133569Y-122669464D01*
X146471931Y-122669464D01*
X146463015Y-123202376D01*
X146462564Y-123228775D01*
X146458644Y-123410944D01*
X146453702Y-123549717D01*
X146447145Y-123652167D01*
X146438379Y-123725371D01*
X146426811Y-123776402D01*
X146411846Y-123812336D01*
X146379623Y-123864042D01*
X146271388Y-123974187D01*
X146129892Y-124045201D01*
X146087113Y-124057449D01*
X145929767Y-124076394D01*
X145776068Y-124058360D01*
X145636592Y-124006852D01*
X145521914Y-123925374D01*
X145442608Y-123817431D01*
X145442570Y-123817351D01*
X145424109Y-123775352D01*
X145410404Y-123730985D01*
X145400756Y-123676087D01*
X145394468Y-123602489D01*
X145390841Y-123502027D01*
X145389176Y-123366535D01*
X145388777Y-123187847D01*
X145388777Y-122669464D01*
X145696967Y-122669464D01*
X145696967Y-123153968D01*
G37*
G36*
X138123411Y-77789282D02*
G01*
X138218117Y-77789868D01*
X138306575Y-77793407D01*
X138362614Y-77801807D01*
X138397020Y-77816932D01*
X138420579Y-77840647D01*
X138427451Y-77851856D01*
X138436538Y-77878381D01*
X138443455Y-77920065D01*
X138448353Y-77982078D01*
X138451383Y-78069592D01*
X138452693Y-78187776D01*
X138452435Y-78341802D01*
X138450759Y-78536839D01*
X138447814Y-78778059D01*
X138447786Y-78780196D01*
X138444088Y-79041043D01*
X138439847Y-79255521D01*
X138433976Y-79428587D01*
X138425385Y-79565197D01*
X138412987Y-79670307D01*
X138395692Y-79748873D01*
X138372412Y-79805853D01*
X138342059Y-79846201D01*
X138303544Y-79874875D01*
X138255779Y-79896831D01*
X138197675Y-79917025D01*
X138105592Y-79933420D01*
X137989699Y-79919162D01*
X137893169Y-79868725D01*
X137885273Y-79862019D01*
X137849514Y-79828584D01*
X137820594Y-79792289D01*
X137797851Y-79747748D01*
X137780624Y-79689570D01*
X137768248Y-79612368D01*
X137760064Y-79510752D01*
X137755407Y-79379333D01*
X137753616Y-79212724D01*
X137754029Y-79005534D01*
X137755984Y-78752376D01*
X137756913Y-78638009D01*
X137758573Y-78410688D01*
X137761069Y-78227803D01*
X137766233Y-78084554D01*
X137775898Y-77976139D01*
X137791894Y-77897757D01*
X137816053Y-77844606D01*
X137850207Y-77811886D01*
X137896189Y-77794795D01*
X137955829Y-77788531D01*
X138030959Y-77788294D01*
X138123411Y-77789282D01*
G37*
G36*
X148383303Y-122680048D02*
G01*
X148538190Y-122753621D01*
X148669512Y-122861311D01*
X148771050Y-122998858D01*
X148836583Y-123162000D01*
X148859890Y-123346475D01*
X148842766Y-123527436D01*
X148783301Y-123703213D01*
X148682266Y-123849293D01*
X148540695Y-123964229D01*
X148359622Y-124046574D01*
X148290905Y-124062998D01*
X148143763Y-124071863D01*
X147989513Y-124054297D01*
X147851096Y-124011865D01*
X147791765Y-123980080D01*
X147714328Y-123926722D01*
X147643497Y-123867527D01*
X147591806Y-123813158D01*
X147571790Y-123774277D01*
X147580870Y-123760789D01*
X147623618Y-123726310D01*
X147689586Y-123683977D01*
X147807382Y-123614944D01*
X147862943Y-123666985D01*
X147909458Y-123704275D01*
X148030822Y-123759983D01*
X148162261Y-123774711D01*
X148291869Y-123749942D01*
X148407738Y-123687160D01*
X148497962Y-123587849D01*
X148503618Y-123578587D01*
X148531514Y-123516482D01*
X148543238Y-123442396D01*
X148542187Y-123337069D01*
X148533425Y-123252818D01*
X148491702Y-123120047D01*
X148416671Y-123026161D01*
X148307578Y-122970391D01*
X148163670Y-122951972D01*
X148065351Y-122959938D01*
X147943214Y-122998496D01*
X147855865Y-123065654D01*
X147841154Y-123080526D01*
X147813986Y-123088375D01*
X147770559Y-123074151D01*
X147697246Y-123035245D01*
X147645635Y-123004188D01*
X147592446Y-122965879D01*
X147571816Y-122941575D01*
X147573403Y-122932789D01*
X147603886Y-122887788D01*
X147663721Y-122830720D01*
X147740486Y-122771423D01*
X147821761Y-122719735D01*
X147895127Y-122685493D01*
X148027715Y-122652303D01*
X148211072Y-122644855D01*
X148383303Y-122680048D01*
G37*
G36*
X144830182Y-124055192D02*
G01*
X144762770Y-124054567D01*
X144583928Y-124046849D01*
X144446463Y-124028127D01*
X144343192Y-123995472D01*
X144266933Y-123945955D01*
X144210501Y-123876646D01*
X144166714Y-123784616D01*
X144166384Y-123783748D01*
X144137899Y-123647607D01*
X144145731Y-123602262D01*
X144443213Y-123602262D01*
X144453634Y-123665439D01*
X144459693Y-123681764D01*
X144477653Y-123711758D01*
X144509278Y-123728850D01*
X144567132Y-123737666D01*
X144663778Y-123742834D01*
X144849444Y-123750380D01*
X144849444Y-123491304D01*
X144686488Y-123491304D01*
X144657277Y-123491502D01*
X144569992Y-123497082D01*
X144514732Y-123513144D01*
X144476344Y-123543447D01*
X144470445Y-123550157D01*
X144443213Y-123602262D01*
X144145731Y-123602262D01*
X144159588Y-123522032D01*
X144231310Y-123407847D01*
X144303850Y-123326660D01*
X144249195Y-123252736D01*
X144212664Y-123180028D01*
X144199534Y-123103456D01*
X144489918Y-123103456D01*
X144530247Y-123168439D01*
X144532538Y-123170623D01*
X144597992Y-123199209D01*
X144710025Y-123208797D01*
X144849444Y-123208797D01*
X144849444Y-122951972D01*
X144712171Y-122951972D01*
X144623139Y-122961070D01*
X144541741Y-122993374D01*
X144495541Y-123042968D01*
X144489918Y-123103456D01*
X144199534Y-123103456D01*
X144193420Y-123067802D01*
X144204998Y-122953699D01*
X144247492Y-122859133D01*
X144267177Y-122833249D01*
X144318298Y-122774317D01*
X144371284Y-122732763D01*
X144436034Y-122705268D01*
X144522448Y-122688512D01*
X144640423Y-122679176D01*
X144799859Y-122673944D01*
X145157634Y-122665582D01*
X145157634Y-124056320D01*
X144830182Y-124055192D01*
G37*
G36*
X145094269Y-119305056D02*
G01*
X145071676Y-119304273D01*
X145051623Y-119296318D01*
X145038953Y-119272363D01*
X145031506Y-119223572D01*
X145027123Y-119141106D01*
X145023642Y-119016127D01*
X145016380Y-118727199D01*
X144605460Y-118713659D01*
X144437921Y-119002937D01*
X144425960Y-119023546D01*
X144357240Y-119139016D01*
X144306023Y-119217291D01*
X144266605Y-119265510D01*
X144233285Y-119290814D01*
X144200358Y-119300341D01*
X144152165Y-119299030D01*
X144130334Y-119283468D01*
X144141643Y-119255046D01*
X144174576Y-119191471D01*
X144223920Y-119102879D01*
X144284429Y-118998955D01*
X144342533Y-118899653D01*
X144392304Y-118811660D01*
X144425930Y-118748795D01*
X144438206Y-118720478D01*
X144435204Y-118713844D01*
X144402730Y-118682744D01*
X144346136Y-118642065D01*
X144321440Y-118624650D01*
X144231102Y-118526302D01*
X144178922Y-118405863D01*
X144168696Y-118298879D01*
X144310111Y-118298879D01*
X144315278Y-118369813D01*
X144340643Y-118432560D01*
X144397432Y-118498625D01*
X144484752Y-118585945D01*
X145029222Y-118585945D01*
X145029222Y-117995248D01*
X144783962Y-117995248D01*
X144715162Y-117996331D01*
X144557517Y-118011351D01*
X144442624Y-118046275D01*
X144366049Y-118103943D01*
X144323357Y-118187197D01*
X144310111Y-118298879D01*
X144168696Y-118298879D01*
X144166416Y-118275020D01*
X144195104Y-118145457D01*
X144266502Y-118028862D01*
X144315268Y-117977915D01*
X144377742Y-117930238D01*
X144450900Y-117898175D01*
X144544873Y-117878842D01*
X144669789Y-117869356D01*
X144835778Y-117866835D01*
X145157634Y-117866835D01*
X145157634Y-119305056D01*
X145094269Y-119305056D01*
G37*
G36*
X153562977Y-120268511D02*
G01*
X153667323Y-120271751D01*
X153743491Y-120282778D01*
X153809947Y-120305516D01*
X153885155Y-120343886D01*
X153936830Y-120375242D01*
X154075108Y-120494255D01*
X154174749Y-120637307D01*
X154235392Y-120796573D01*
X154256680Y-120964227D01*
X154238252Y-121132445D01*
X154179749Y-121293399D01*
X154080812Y-121439266D01*
X153941082Y-121562220D01*
X153899902Y-121587900D01*
X153805971Y-121635215D01*
X153722750Y-121664571D01*
X153693604Y-121670860D01*
X153497545Y-121688463D01*
X153317345Y-121662953D01*
X153158217Y-121598116D01*
X153025376Y-121497738D01*
X152924034Y-121365603D01*
X152859405Y-121205498D01*
X152836704Y-121021209D01*
X152836704Y-120897371D01*
X153530132Y-120897371D01*
X153530132Y-121154196D01*
X153143575Y-121154196D01*
X153181627Y-121227781D01*
X153187520Y-121238374D01*
X153259355Y-121313122D01*
X153362980Y-121362354D01*
X153485698Y-121383669D01*
X153614811Y-121374664D01*
X153737622Y-121332938D01*
X153769049Y-121315462D01*
X153866227Y-121231201D01*
X153922633Y-121119044D01*
X153940860Y-120974419D01*
X153932342Y-120875047D01*
X153885985Y-120743816D01*
X153802186Y-120645967D01*
X153684198Y-120584795D01*
X153535277Y-120563595D01*
X153431373Y-120572072D01*
X153310638Y-120609985D01*
X153225368Y-120674941D01*
X153217263Y-120683766D01*
X153190845Y-120695903D01*
X153149759Y-120685125D01*
X153079807Y-120648891D01*
X153039137Y-120625274D01*
X152980908Y-120587650D01*
X152952335Y-120563596D01*
X152956950Y-120537322D01*
X152993724Y-120489203D01*
X153054326Y-120431331D01*
X153128414Y-120373437D01*
X153205647Y-120325252D01*
X153247747Y-120305051D01*
X153318836Y-120282893D01*
X153407349Y-120271678D01*
X153530132Y-120268458D01*
X153562977Y-120268511D01*
G37*
G36*
X144882290Y-120268511D02*
G01*
X144986635Y-120271751D01*
X145062803Y-120282778D01*
X145129259Y-120305516D01*
X145204467Y-120343886D01*
X145256142Y-120375242D01*
X145394421Y-120494255D01*
X145494061Y-120637307D01*
X145554705Y-120796573D01*
X145575992Y-120964227D01*
X145557564Y-121132445D01*
X145499061Y-121293399D01*
X145400125Y-121439266D01*
X145260395Y-121562220D01*
X145219215Y-121587900D01*
X145125283Y-121635215D01*
X145042063Y-121664571D01*
X145012916Y-121670860D01*
X144816858Y-121688463D01*
X144636657Y-121662953D01*
X144477530Y-121598116D01*
X144344688Y-121497738D01*
X144243346Y-121365603D01*
X144178718Y-121205498D01*
X144156016Y-121021209D01*
X144156016Y-120897371D01*
X144849444Y-120897371D01*
X144849444Y-121154196D01*
X144462887Y-121154196D01*
X144500939Y-121227781D01*
X144506832Y-121238374D01*
X144578667Y-121313122D01*
X144682293Y-121362354D01*
X144805011Y-121383669D01*
X144934124Y-121374664D01*
X145056935Y-121332938D01*
X145088362Y-121315462D01*
X145185539Y-121231201D01*
X145241946Y-121119044D01*
X145260172Y-120974419D01*
X145251655Y-120875047D01*
X145205297Y-120743816D01*
X145121498Y-120645967D01*
X145003511Y-120584795D01*
X144854589Y-120563595D01*
X144750685Y-120572072D01*
X144629950Y-120609985D01*
X144544681Y-120674941D01*
X144536575Y-120683766D01*
X144510157Y-120695903D01*
X144469071Y-120685125D01*
X144399119Y-120648891D01*
X144358449Y-120625274D01*
X144300220Y-120587650D01*
X144271648Y-120563596D01*
X144276263Y-120537322D01*
X144313037Y-120489203D01*
X144373639Y-120431331D01*
X144447727Y-120373437D01*
X144524960Y-120325252D01*
X144567059Y-120305051D01*
X144638149Y-120282893D01*
X144726661Y-120271678D01*
X144849444Y-120268458D01*
X144882290Y-120268511D01*
G37*
G36*
X149573720Y-117869539D02*
G01*
X149583609Y-117880787D01*
X149578225Y-117906317D01*
X149555062Y-117951910D01*
X149511611Y-118023347D01*
X149445365Y-118126408D01*
X149353815Y-118266873D01*
X149160691Y-118563066D01*
X149393541Y-118921353D01*
X149450629Y-119009585D01*
X149520577Y-119118896D01*
X149576274Y-119207380D01*
X149613089Y-119267658D01*
X149626390Y-119292348D01*
X149605310Y-119301218D01*
X149552585Y-119305056D01*
X149527064Y-119302718D01*
X149496502Y-119289578D01*
X149462351Y-119258942D01*
X149418807Y-119204230D01*
X149360069Y-119118859D01*
X149280335Y-118996249D01*
X149081891Y-118687442D01*
X148879929Y-118996249D01*
X148834132Y-119065834D01*
X148763948Y-119169025D01*
X148712046Y-119238141D01*
X148672833Y-119279584D01*
X148640715Y-119299755D01*
X148610098Y-119305056D01*
X148598878Y-119304984D01*
X148572291Y-119302180D01*
X148559048Y-119291000D01*
X148561598Y-119265666D01*
X148582388Y-119220402D01*
X148623868Y-119149430D01*
X148688485Y-119046972D01*
X148778689Y-118907252D01*
X148810882Y-118857208D01*
X148879306Y-118748338D01*
X148934337Y-118657285D01*
X148971001Y-118592397D01*
X148984328Y-118562021D01*
X148980225Y-118550362D01*
X148953372Y-118500285D01*
X148905625Y-118419905D01*
X148841844Y-118317302D01*
X148766891Y-118200555D01*
X148549453Y-117866835D01*
X148632057Y-117867313D01*
X148661497Y-117869244D01*
X148693303Y-117880200D01*
X148726329Y-117907127D01*
X148767010Y-117956962D01*
X148821779Y-118036645D01*
X148897069Y-118153114D01*
X149079477Y-118438437D01*
X149265835Y-118152636D01*
X149313812Y-118079536D01*
X149378324Y-117984797D01*
X149425700Y-117922970D01*
X149462175Y-117887242D01*
X149493981Y-117870802D01*
X149527353Y-117866835D01*
X149551065Y-117866793D01*
X149573720Y-117869539D01*
G37*
G36*
X138860016Y-84303899D02*
G01*
X138754445Y-84352287D01*
X138601986Y-84393995D01*
X138403135Y-84426605D01*
X138306135Y-84435702D01*
X138122199Y-84441193D01*
X137928668Y-84434709D01*
X137737668Y-84417492D01*
X137561326Y-84390783D01*
X137411770Y-84355821D01*
X137301127Y-84313849D01*
X137264555Y-84289451D01*
X137224565Y-84229722D01*
X137227449Y-84189382D01*
X137441766Y-84189382D01*
X137453896Y-84232063D01*
X137505480Y-84277465D01*
X137586347Y-84318795D01*
X137686331Y-84349258D01*
X137716073Y-84354606D01*
X137823765Y-84365707D01*
X137959101Y-84371968D01*
X138106326Y-84373401D01*
X138249681Y-84370013D01*
X138373410Y-84361813D01*
X138461755Y-84348811D01*
X138470231Y-84346751D01*
X138554348Y-84320395D01*
X138632062Y-84287288D01*
X138689036Y-84254353D01*
X138710931Y-84228511D01*
X138700790Y-84186591D01*
X138656771Y-84140810D01*
X138574934Y-84106144D01*
X138452037Y-84081740D01*
X138284839Y-84066749D01*
X138070100Y-84060320D01*
X137968850Y-84059574D01*
X137835430Y-84060339D01*
X137737783Y-84064343D01*
X137666184Y-84072427D01*
X137610909Y-84085430D01*
X137562235Y-84104192D01*
X137532700Y-84118594D01*
X137472689Y-84155742D01*
X137442722Y-84186500D01*
X137441766Y-84189382D01*
X137227449Y-84189382D01*
X137229163Y-84165408D01*
X137279652Y-84108941D01*
X137343333Y-84079102D01*
X137445926Y-84047098D01*
X137566603Y-84019290D01*
X137688105Y-83999610D01*
X137793175Y-83991987D01*
X137915167Y-83991608D01*
X137915167Y-83709100D01*
X138300405Y-83709100D01*
X138300405Y-83980028D01*
X138488736Y-84009993D01*
X138667138Y-84046432D01*
X138803468Y-84091933D01*
X138890423Y-84142849D01*
X138928502Y-84196762D01*
X138922499Y-84228511D01*
X138918200Y-84251251D01*
X138860016Y-84303899D01*
G37*
G36*
X127455966Y-82599159D02*
G01*
X127432891Y-82614153D01*
X127352469Y-82647944D01*
X127240407Y-82681249D01*
X127109969Y-82710416D01*
X126974419Y-82731790D01*
X126954102Y-82734152D01*
X126772754Y-82746743D01*
X126585195Y-82746422D01*
X126399627Y-82734478D01*
X126224255Y-82712200D01*
X126067284Y-82680877D01*
X125936918Y-82641798D01*
X125841361Y-82596251D01*
X125788816Y-82545527D01*
X125777268Y-82518041D01*
X125781162Y-82494336D01*
X126013050Y-82494336D01*
X126025180Y-82537018D01*
X126076764Y-82582420D01*
X126157631Y-82623749D01*
X126257615Y-82654213D01*
X126287357Y-82659560D01*
X126395049Y-82670661D01*
X126530386Y-82676923D01*
X126677610Y-82678355D01*
X126820965Y-82674967D01*
X126944694Y-82666767D01*
X127033039Y-82653765D01*
X127041515Y-82651705D01*
X127125632Y-82625350D01*
X127203346Y-82592243D01*
X127260320Y-82559308D01*
X127282216Y-82533466D01*
X127277896Y-82511560D01*
X127233835Y-82459967D01*
X127140528Y-82410133D01*
X127131971Y-82406818D01*
X127045478Y-82386548D01*
X126923156Y-82372180D01*
X126777412Y-82363715D01*
X126620653Y-82361156D01*
X126465287Y-82364503D01*
X126323722Y-82373758D01*
X126208366Y-82388924D01*
X126131625Y-82410001D01*
X126103897Y-82423494D01*
X126044031Y-82460535D01*
X126014006Y-82491455D01*
X126013050Y-82494336D01*
X125781162Y-82494336D01*
X125783450Y-82480412D01*
X125826783Y-82435399D01*
X125829815Y-82432885D01*
X125898602Y-82394947D01*
X126001625Y-82358169D01*
X126122941Y-82326727D01*
X126246609Y-82304800D01*
X126356688Y-82296562D01*
X126460769Y-82296562D01*
X126460769Y-82014055D01*
X126846006Y-82014055D01*
X126846006Y-82296562D01*
X126929474Y-82296942D01*
X126983209Y-82300602D01*
X127093419Y-82318362D01*
X127215718Y-82346351D01*
X127329034Y-82379513D01*
X127412295Y-82412792D01*
X127433971Y-82426246D01*
X127479561Y-82481815D01*
X127486612Y-82533466D01*
X127488177Y-82544934D01*
X127455966Y-82599159D01*
G37*
G36*
X116209081Y-96386110D02*
G01*
X116186132Y-96490896D01*
X116184253Y-96495705D01*
X116128460Y-96588881D01*
X116044585Y-96678879D01*
X115951478Y-96745266D01*
X115930012Y-96754600D01*
X115835447Y-96774953D01*
X115719292Y-96779965D01*
X115602517Y-96769689D01*
X115506094Y-96744174D01*
X115487470Y-96736438D01*
X115440899Y-96719566D01*
X115429360Y-96725583D01*
X115443259Y-96756348D01*
X115448325Y-96766770D01*
X115451247Y-96798298D01*
X115424529Y-96830063D01*
X115360051Y-96873495D01*
X115325197Y-96895063D01*
X115251535Y-96941071D01*
X115198989Y-96974444D01*
X115168632Y-96992078D01*
X115144247Y-96993602D01*
X115118812Y-96971360D01*
X115084369Y-96918304D01*
X115032960Y-96827384D01*
X114951167Y-96680653D01*
X115081499Y-96600460D01*
X115139759Y-96563347D01*
X115191786Y-96527014D01*
X115211830Y-96508352D01*
X115211799Y-96507807D01*
X115200204Y-96477297D01*
X115174003Y-96423288D01*
X115129635Y-96318111D01*
X115096105Y-96150707D01*
X115099494Y-96090064D01*
X115305852Y-96090064D01*
X115314811Y-96216626D01*
X115359545Y-96338648D01*
X115437679Y-96445175D01*
X115546843Y-96525253D01*
X115651233Y-96566386D01*
X115744678Y-96570478D01*
X115841052Y-96536070D01*
X115859419Y-96525960D01*
X115955789Y-96442231D01*
X116012307Y-96332355D01*
X116026164Y-96204890D01*
X115994553Y-96068393D01*
X115993244Y-96065153D01*
X115923968Y-95946555D01*
X115830621Y-95857960D01*
X115722593Y-95802564D01*
X115609278Y-95783563D01*
X115500066Y-95804153D01*
X115404350Y-95867532D01*
X115335041Y-95969914D01*
X115305852Y-96090064D01*
X115099494Y-96090064D01*
X115105221Y-95987575D01*
X115156007Y-95838147D01*
X115247490Y-95711852D01*
X115249575Y-95709776D01*
X115376418Y-95615961D01*
X115515613Y-95567945D01*
X115660372Y-95563937D01*
X115803908Y-95602148D01*
X115939435Y-95680791D01*
X116060166Y-95798075D01*
X116159314Y-95952213D01*
X116178532Y-96000711D01*
X116204212Y-96119544D01*
X116210845Y-96204890D01*
X116214752Y-96255168D01*
X116209081Y-96386110D01*
G37*
G36*
X151082261Y-98995955D02*
G01*
X151081101Y-99996099D01*
X151080018Y-100946436D01*
X151079014Y-101848236D01*
X151078091Y-102702771D01*
X151077251Y-103511308D01*
X151076497Y-104275119D01*
X151075832Y-104995472D01*
X151075257Y-105673638D01*
X151074774Y-106310887D01*
X151074388Y-106908487D01*
X151074099Y-107467710D01*
X151073910Y-107989825D01*
X151073824Y-108476102D01*
X151073843Y-108927810D01*
X151073969Y-109346219D01*
X151074205Y-109732600D01*
X151074553Y-110088221D01*
X151075016Y-110414353D01*
X151075595Y-110712266D01*
X151076294Y-110983229D01*
X151077114Y-111228512D01*
X151078058Y-111449385D01*
X151079129Y-111647118D01*
X151080329Y-111822981D01*
X151081660Y-111978243D01*
X151083124Y-112114174D01*
X151084724Y-112232044D01*
X151086463Y-112333123D01*
X151088343Y-112418681D01*
X151090365Y-112489987D01*
X151092534Y-112548311D01*
X151094850Y-112594924D01*
X151097316Y-112631094D01*
X151099935Y-112658092D01*
X151102709Y-112677187D01*
X151105641Y-112689649D01*
X151108732Y-112696749D01*
X151132919Y-112736852D01*
X151135705Y-112764636D01*
X151107885Y-112785716D01*
X151084661Y-112806667D01*
X151064611Y-112860512D01*
X151064497Y-112866715D01*
X151051172Y-112898531D01*
X151006493Y-112896503D01*
X151003717Y-112896226D01*
X150979741Y-112902414D01*
X150935136Y-112921501D01*
X150867942Y-112954595D01*
X150776193Y-113002803D01*
X150657929Y-113067236D01*
X150511187Y-113149000D01*
X150334002Y-113249205D01*
X150124414Y-113368959D01*
X149880458Y-113509371D01*
X149600172Y-113671548D01*
X149281594Y-113856600D01*
X148922761Y-114065634D01*
X148521710Y-114299759D01*
X148489530Y-114318561D01*
X148164020Y-114508747D01*
X147849856Y-114692301D01*
X147550038Y-114867470D01*
X147267567Y-115032501D01*
X147005442Y-115185642D01*
X146766666Y-115325139D01*
X146554236Y-115449239D01*
X146371155Y-115556191D01*
X146220422Y-115644241D01*
X146105038Y-115711636D01*
X146028002Y-115756623D01*
X145992316Y-115777450D01*
X145986244Y-115780985D01*
X145914935Y-115820336D01*
X145872978Y-115833314D01*
X145846751Y-115820237D01*
X145822634Y-115781423D01*
X145813284Y-115762429D01*
X145809834Y-115722827D01*
X145847413Y-115688402D01*
X145902427Y-115651875D01*
X145902427Y-114057525D01*
X146058937Y-114057525D01*
X146059259Y-114394354D01*
X146059943Y-114691773D01*
X146060988Y-114948074D01*
X146062392Y-115161549D01*
X146064151Y-115330491D01*
X146066264Y-115453193D01*
X146068727Y-115527945D01*
X146071540Y-115553042D01*
X146074742Y-115551706D01*
X146112865Y-115531055D01*
X146190688Y-115487033D01*
X146304713Y-115421686D01*
X146451443Y-115337061D01*
X146627381Y-115235203D01*
X146829032Y-115118159D01*
X147052898Y-114987975D01*
X147295482Y-114846697D01*
X147553288Y-114696372D01*
X147822819Y-114539045D01*
X148100579Y-114376764D01*
X148383070Y-114211573D01*
X148666795Y-114045520D01*
X148948259Y-113880651D01*
X149223964Y-113719011D01*
X149490414Y-113562648D01*
X149744112Y-113413607D01*
X149981561Y-113273934D01*
X150199265Y-113145676D01*
X150393726Y-113030879D01*
X150561448Y-112931589D01*
X150698935Y-112849853D01*
X150802689Y-112787717D01*
X150869214Y-112747226D01*
X150895013Y-112730427D01*
X150895105Y-112730305D01*
X150897335Y-112708876D01*
X150899501Y-112651585D01*
X150901604Y-112557813D01*
X150903648Y-112426939D01*
X150905633Y-112258343D01*
X150907562Y-112051404D01*
X150909436Y-111805504D01*
X150911257Y-111520021D01*
X150913028Y-111194335D01*
X150914750Y-110827827D01*
X150916425Y-110419876D01*
X150918055Y-109969862D01*
X150919641Y-109477165D01*
X150921186Y-108941164D01*
X150922692Y-108361241D01*
X150924161Y-107736773D01*
X150925594Y-107067143D01*
X150926993Y-106351728D01*
X150928360Y-105589910D01*
X150929697Y-104781067D01*
X150931007Y-103924580D01*
X150932290Y-103019829D01*
X150933549Y-102066194D01*
X150934785Y-101063054D01*
X150936001Y-100009789D01*
X150937198Y-98905779D01*
X150938012Y-98125832D01*
X150938860Y-97298295D01*
X150939676Y-96485009D01*
X150940461Y-95687460D01*
X150941213Y-94907131D01*
X150941931Y-94145506D01*
X150942614Y-93404072D01*
X150943261Y-92684311D01*
X150943870Y-91987709D01*
X150944441Y-91315750D01*
X150944973Y-90669919D01*
X150945464Y-90051700D01*
X150945914Y-89462577D01*
X150946320Y-88904037D01*
X150946684Y-88377562D01*
X150947002Y-87884637D01*
X150947275Y-87426747D01*
X150947500Y-87005377D01*
X150947677Y-86622011D01*
X150947806Y-86278134D01*
X150947884Y-85975230D01*
X150947911Y-85714783D01*
X150947885Y-85498279D01*
X150947806Y-85327202D01*
X150947673Y-85203035D01*
X150947484Y-85127265D01*
X150947238Y-85101375D01*
X150925359Y-85111252D01*
X150860642Y-85142998D01*
X150756065Y-85195139D01*
X150614606Y-85266168D01*
X150439242Y-85354578D01*
X150232952Y-85458863D01*
X149998711Y-85577516D01*
X149739499Y-85709029D01*
X149458292Y-85851896D01*
X149158068Y-86004611D01*
X148841805Y-86165665D01*
X148512480Y-86333552D01*
X146082203Y-87573151D01*
X146082423Y-97166151D01*
X146082424Y-97375672D01*
X146082361Y-98128951D01*
X146082200Y-98891836D01*
X146081944Y-99661280D01*
X146081597Y-100434232D01*
X146081162Y-101207646D01*
X146080643Y-101978471D01*
X146080045Y-102743660D01*
X146079369Y-103500164D01*
X146078622Y-104244935D01*
X146077805Y-104974923D01*
X146076923Y-105687080D01*
X146075980Y-106378359D01*
X146074979Y-107045709D01*
X146073924Y-107686083D01*
X146072818Y-108296432D01*
X146071667Y-108873707D01*
X146070472Y-109414860D01*
X146069238Y-109916843D01*
X146067968Y-110376606D01*
X146066667Y-110791101D01*
X146065338Y-111157280D01*
X146064769Y-111304565D01*
X146062861Y-111841994D01*
X146061331Y-112350260D01*
X146060176Y-112827653D01*
X146059393Y-113272467D01*
X146058981Y-113682993D01*
X146058937Y-114057525D01*
X145902427Y-114057525D01*
X145902427Y-100472617D01*
X145751401Y-100227169D01*
X145833334Y-100163987D01*
X145915268Y-100100806D01*
X145928109Y-93790092D01*
X145940951Y-87479377D01*
X148378398Y-86236461D01*
X148691733Y-86076625D01*
X149012696Y-85912776D01*
X149319012Y-85756281D01*
X149607568Y-85608734D01*
X149875251Y-85471733D01*
X150118950Y-85346872D01*
X150335551Y-85235748D01*
X150521943Y-85139956D01*
X150675014Y-85061091D01*
X150791651Y-85000750D01*
X150868741Y-84960527D01*
X150903172Y-84942020D01*
X150915992Y-84934773D01*
X150987365Y-84903282D01*
X151044631Y-84890496D01*
X151098763Y-84890496D01*
X151097799Y-85714783D01*
X151082535Y-98761247D01*
X151082261Y-98995955D01*
G37*
G36*
X143793468Y-83615497D02*
G01*
X143769080Y-83628489D01*
X143702128Y-83663595D01*
X143595576Y-83719271D01*
X143452388Y-83793974D01*
X143275530Y-83886159D01*
X143067966Y-83994283D01*
X142832661Y-84116801D01*
X142572579Y-84252169D01*
X142290686Y-84398844D01*
X141989945Y-84555282D01*
X141673322Y-84719938D01*
X141343782Y-84891268D01*
X141025403Y-85056835D01*
X140703983Y-85224104D01*
X140396777Y-85384100D01*
X140106922Y-85535182D01*
X139837556Y-85675710D01*
X139591816Y-85804046D01*
X139372839Y-85918550D01*
X139183762Y-86017582D01*
X139027723Y-86099503D01*
X138907858Y-86162673D01*
X138827306Y-86205454D01*
X138789204Y-86226206D01*
X138776123Y-86233785D01*
X138723685Y-86262064D01*
X138678665Y-86277372D01*
X138626500Y-86281104D01*
X138552629Y-86274655D01*
X138442490Y-86259421D01*
X138380548Y-86250580D01*
X138260970Y-86233673D01*
X138097035Y-86210603D01*
X137890959Y-86181681D01*
X137644956Y-86147214D01*
X137361242Y-86107510D01*
X137042030Y-86062878D01*
X136689535Y-86013625D01*
X136305972Y-85960061D01*
X135893555Y-85902494D01*
X135454500Y-85841230D01*
X134991020Y-85776580D01*
X134505331Y-85708851D01*
X133999646Y-85638351D01*
X133476181Y-85565389D01*
X132937151Y-85490273D01*
X132384769Y-85413311D01*
X131821250Y-85334812D01*
X131248810Y-85255083D01*
X130669662Y-85174433D01*
X130086022Y-85093170D01*
X129500103Y-85011602D01*
X128914121Y-84930039D01*
X128330290Y-84848787D01*
X127750825Y-84768155D01*
X127177941Y-84688452D01*
X126613851Y-84609985D01*
X126060771Y-84533063D01*
X125520916Y-84457995D01*
X124996499Y-84385088D01*
X124489736Y-84314651D01*
X124002841Y-84246991D01*
X123538028Y-84182418D01*
X123097513Y-84121239D01*
X122683511Y-84063763D01*
X122298234Y-84010298D01*
X121943899Y-83961152D01*
X121622720Y-83916633D01*
X121336912Y-83877050D01*
X121088688Y-83842712D01*
X120880264Y-83813925D01*
X120713855Y-83790999D01*
X120591675Y-83774241D01*
X120515938Y-83763961D01*
X120488859Y-83760465D01*
X120479162Y-83758948D01*
X120457648Y-83729696D01*
X120451062Y-83657735D01*
X120451749Y-83634697D01*
X120455653Y-83611019D01*
X120880654Y-83611019D01*
X120891604Y-83613044D01*
X120949521Y-83621929D01*
X121055379Y-83637459D01*
X121207333Y-83659374D01*
X121403537Y-83687417D01*
X121642150Y-83721328D01*
X121921325Y-83760849D01*
X122239219Y-83805722D01*
X122593987Y-83855687D01*
X122983786Y-83910487D01*
X123406771Y-83969861D01*
X123861098Y-84033553D01*
X124344923Y-84101303D01*
X124856401Y-84172852D01*
X125393688Y-84247942D01*
X125954941Y-84326314D01*
X126538314Y-84407710D01*
X127141965Y-84491871D01*
X127764047Y-84578539D01*
X128402718Y-84667454D01*
X129056133Y-84758358D01*
X129722447Y-84850993D01*
X130118294Y-84906010D01*
X130777271Y-84997612D01*
X131422287Y-85087289D01*
X132051495Y-85174786D01*
X132663051Y-85259845D01*
X133255108Y-85342208D01*
X133825821Y-85421618D01*
X134373344Y-85497819D01*
X134895831Y-85570553D01*
X135391436Y-85639564D01*
X135858313Y-85704593D01*
X136294618Y-85765384D01*
X136698504Y-85821679D01*
X137068124Y-85873222D01*
X137401635Y-85919756D01*
X137697189Y-85961022D01*
X137952941Y-85996765D01*
X138167046Y-86026726D01*
X138337657Y-86050650D01*
X138462928Y-86068278D01*
X138541015Y-86079353D01*
X138570071Y-86083618D01*
X138593714Y-86076496D01*
X138662170Y-86046499D01*
X138773025Y-85993898D01*
X138924677Y-85919503D01*
X139115527Y-85824125D01*
X139343972Y-85708574D01*
X139608412Y-85573661D01*
X139907246Y-85420196D01*
X140238872Y-85248990D01*
X140601689Y-85060852D01*
X140994096Y-84856595D01*
X141240942Y-84727850D01*
X141596115Y-84542435D01*
X141909620Y-84378491D01*
X142183873Y-84234697D01*
X142421290Y-84109734D01*
X142624288Y-84002279D01*
X142795282Y-83911013D01*
X142936687Y-83834616D01*
X143050921Y-83771766D01*
X143140399Y-83721143D01*
X143207536Y-83681427D01*
X143254750Y-83651297D01*
X143284455Y-83629433D01*
X143299068Y-83614514D01*
X143301005Y-83605220D01*
X143292681Y-83600230D01*
X143275206Y-83597341D01*
X143209044Y-83587484D01*
X143096101Y-83571085D01*
X142938702Y-83548470D01*
X142739173Y-83519965D01*
X142499838Y-83485897D01*
X142223021Y-83446592D01*
X141911049Y-83402377D01*
X141566245Y-83353579D01*
X141190934Y-83300523D01*
X140787441Y-83243537D01*
X140358091Y-83182947D01*
X139905209Y-83119079D01*
X139431120Y-83052260D01*
X138938148Y-82982817D01*
X138428618Y-82911075D01*
X137904855Y-82837362D01*
X137369185Y-82762004D01*
X136823931Y-82685327D01*
X136271418Y-82607658D01*
X135713972Y-82529324D01*
X135153917Y-82450651D01*
X134593578Y-82371965D01*
X134035280Y-82293593D01*
X133481347Y-82215861D01*
X132934105Y-82139097D01*
X132395878Y-82063626D01*
X131868991Y-81989775D01*
X131355770Y-81917870D01*
X130858537Y-81848239D01*
X130379620Y-81781207D01*
X129921342Y-81717101D01*
X129486028Y-81656248D01*
X129076003Y-81598973D01*
X128693592Y-81545605D01*
X128341119Y-81496468D01*
X128020910Y-81451890D01*
X127735289Y-81412196D01*
X127486582Y-81377715D01*
X127277112Y-81348771D01*
X127109205Y-81325693D01*
X126985186Y-81308805D01*
X126907379Y-81298434D01*
X126878109Y-81294908D01*
X126862088Y-81307401D01*
X126849890Y-81361357D01*
X126846006Y-81461881D01*
X126846006Y-81628817D01*
X126460769Y-81628817D01*
X126460769Y-81227957D01*
X125394597Y-81084745D01*
X123114858Y-82339137D01*
X122922394Y-82445097D01*
X122539055Y-82656570D01*
X122199086Y-82844770D01*
X121901212Y-83010422D01*
X121644158Y-83154252D01*
X121426649Y-83276987D01*
X121247411Y-83379351D01*
X121105168Y-83462071D01*
X120998645Y-83525872D01*
X120926569Y-83571480D01*
X120887663Y-83599620D01*
X120880654Y-83611019D01*
X120455653Y-83611019D01*
X120461132Y-83577786D01*
X120478000Y-83555005D01*
X120495502Y-83547027D01*
X120554958Y-83516265D01*
X120652873Y-83464244D01*
X120785650Y-83392934D01*
X120949696Y-83304307D01*
X121141416Y-83200335D01*
X121357216Y-83082989D01*
X121593501Y-82954241D01*
X121846676Y-82816062D01*
X122113147Y-82670424D01*
X122389319Y-82519298D01*
X122671598Y-82364656D01*
X122956390Y-82208470D01*
X123240099Y-82052710D01*
X123519132Y-81899349D01*
X123789893Y-81750358D01*
X124048788Y-81607708D01*
X124292223Y-81473371D01*
X124516603Y-81349319D01*
X124718333Y-81237523D01*
X124893820Y-81139955D01*
X125039467Y-81058586D01*
X125151682Y-80995387D01*
X125226869Y-80952331D01*
X125261434Y-80931388D01*
X125333384Y-80880531D01*
X134538711Y-82172823D01*
X143744038Y-83465116D01*
X143773707Y-83536567D01*
X143773906Y-83537048D01*
X143791802Y-83589395D01*
X143792830Y-83605220D01*
X143793497Y-83615477D01*
X143793468Y-83615497D01*
G37*
G36*
X144113070Y-89773423D02*
G01*
X144111673Y-90052735D01*
X144110448Y-90365156D01*
X144109384Y-90712510D01*
X144108471Y-91096623D01*
X144107701Y-91519322D01*
X144107061Y-91982431D01*
X144106544Y-92487777D01*
X144106137Y-93037185D01*
X144105832Y-93632481D01*
X144105619Y-94275491D01*
X144105487Y-94968039D01*
X144105119Y-97751585D01*
X144104651Y-101283096D01*
X144181211Y-101407521D01*
X144257770Y-101531946D01*
X144111464Y-101607604D01*
X144091176Y-109050213D01*
X144090585Y-109266210D01*
X144089898Y-109517263D01*
X144088227Y-110123429D01*
X144086582Y-110715088D01*
X144084969Y-111290193D01*
X144083393Y-111846695D01*
X144081862Y-112382547D01*
X144080380Y-112895702D01*
X144078956Y-113384112D01*
X144077594Y-113845729D01*
X144076300Y-114278505D01*
X144075082Y-114680393D01*
X144073944Y-115049346D01*
X144072894Y-115383314D01*
X144071938Y-115680252D01*
X144071081Y-115938111D01*
X144070330Y-116154843D01*
X144069691Y-116328401D01*
X144069170Y-116456737D01*
X144068803Y-116531591D01*
X144068773Y-116537804D01*
X144068507Y-116569553D01*
X144068256Y-116573795D01*
X144065529Y-116586254D01*
X144058008Y-116600403D01*
X144043375Y-116617685D01*
X144019315Y-116639542D01*
X143983510Y-116667415D01*
X143933643Y-116702746D01*
X143867399Y-116746977D01*
X143782459Y-116801549D01*
X143676508Y-116867906D01*
X143547228Y-116947488D01*
X143392302Y-117041737D01*
X143209415Y-117152095D01*
X142996249Y-117280004D01*
X142750487Y-117426905D01*
X142469812Y-117594241D01*
X142151909Y-117783453D01*
X141794459Y-117995983D01*
X141395147Y-118233274D01*
X141134471Y-118388136D01*
X140803229Y-118584862D01*
X140486109Y-118773134D01*
X140185841Y-118951335D01*
X139905155Y-119117848D01*
X139646781Y-119271053D01*
X139413449Y-119409334D01*
X139207888Y-119531074D01*
X139032830Y-119634653D01*
X138891003Y-119718454D01*
X138785138Y-119780860D01*
X138717965Y-119820253D01*
X138692213Y-119835015D01*
X138668335Y-119833773D01*
X138596266Y-119825749D01*
X138479261Y-119811145D01*
X138320424Y-119790390D01*
X138122857Y-119763912D01*
X137889664Y-119732138D01*
X137623948Y-119695498D01*
X137328811Y-119654418D01*
X137007357Y-119609328D01*
X136662688Y-119560654D01*
X136297907Y-119508827D01*
X135916118Y-119454272D01*
X135520423Y-119397419D01*
X135164170Y-119346125D01*
X134780801Y-119290999D01*
X134414127Y-119238348D01*
X134067252Y-119188614D01*
X133743281Y-119142239D01*
X133445316Y-119099667D01*
X133176463Y-119061340D01*
X132939824Y-119027699D01*
X132738504Y-118999188D01*
X132575605Y-118976248D01*
X132454233Y-118959323D01*
X132377492Y-118948854D01*
X132348483Y-118945285D01*
X132333641Y-118949777D01*
X132316380Y-118984024D01*
X132311967Y-118998813D01*
X132285002Y-119013238D01*
X132225363Y-119020530D01*
X132123761Y-119022548D01*
X131931143Y-119022548D01*
X131931143Y-118879693D01*
X131334024Y-118796303D01*
X131229004Y-118781689D01*
X131068998Y-118759642D01*
X130930528Y-118740830D01*
X130820924Y-118726235D01*
X130747519Y-118716843D01*
X130717644Y-118713635D01*
X130713959Y-118735981D01*
X130710310Y-118804867D01*
X130707002Y-118915332D01*
X130704114Y-119062344D01*
X130701727Y-119240871D01*
X130699923Y-119445879D01*
X130698781Y-119672338D01*
X130698382Y-119915214D01*
X130698382Y-121116070D01*
X131282659Y-121200036D01*
X131374715Y-121213199D01*
X131535485Y-121235857D01*
X131675927Y-121255226D01*
X131788417Y-121270277D01*
X131865330Y-121279980D01*
X131899040Y-121283305D01*
X131912493Y-121275065D01*
X131926588Y-121225524D01*
X131931143Y-121128514D01*
X131931143Y-120974419D01*
X132316380Y-120974419D01*
X132316380Y-121167037D01*
X132316593Y-121202736D01*
X132320907Y-121294645D01*
X132331726Y-121344586D01*
X132350298Y-121359656D01*
X132379356Y-121363161D01*
X132456319Y-121373638D01*
X132578295Y-121390679D01*
X132742462Y-121413876D01*
X132946004Y-121442820D01*
X133186099Y-121477102D01*
X133459930Y-121516314D01*
X133764676Y-121560047D01*
X134097520Y-121607893D01*
X134455641Y-121659444D01*
X134836220Y-121714290D01*
X135236439Y-121772023D01*
X135653478Y-121832235D01*
X136084517Y-121894517D01*
X136526739Y-121958460D01*
X136977323Y-122023656D01*
X137433451Y-122089697D01*
X137892302Y-122156173D01*
X138351060Y-122222677D01*
X138806903Y-122288799D01*
X139257012Y-122354132D01*
X139698570Y-122418266D01*
X140128756Y-122480793D01*
X140544751Y-122541304D01*
X140943737Y-122599392D01*
X141322893Y-122654647D01*
X141679402Y-122706660D01*
X142010443Y-122755024D01*
X142313197Y-122799330D01*
X142584846Y-122839169D01*
X142822570Y-122874132D01*
X143023550Y-122903811D01*
X143184967Y-122927798D01*
X143304002Y-122945684D01*
X143377835Y-122957060D01*
X143403648Y-122961518D01*
X143406394Y-122983254D01*
X143397992Y-123034270D01*
X143391291Y-123045341D01*
X143370705Y-123064682D01*
X143370691Y-123064695D01*
X143334226Y-123092134D01*
X143279668Y-123128963D01*
X143204785Y-123176485D01*
X143107351Y-123236006D01*
X142985134Y-123308831D01*
X142835907Y-123396264D01*
X142657439Y-123499610D01*
X142447502Y-123620174D01*
X142203866Y-123759261D01*
X141924303Y-123918175D01*
X141606582Y-124098221D01*
X141248476Y-124300704D01*
X140847754Y-124526929D01*
X140559722Y-124689299D01*
X140131102Y-124930324D01*
X139746817Y-125145615D01*
X139406811Y-125335204D01*
X139111028Y-125499121D01*
X138859412Y-125637396D01*
X138651907Y-125750061D01*
X138488457Y-125837146D01*
X138369007Y-125898682D01*
X138293500Y-125934699D01*
X138261881Y-125945228D01*
X138261090Y-125945069D01*
X138225824Y-125939534D01*
X138142461Y-125927047D01*
X138013487Y-125907970D01*
X137841390Y-125882665D01*
X137628657Y-125851495D01*
X137377776Y-125814821D01*
X137091234Y-125773007D01*
X136771517Y-125726414D01*
X136421114Y-125675406D01*
X136042512Y-125620343D01*
X135638197Y-125561588D01*
X135210658Y-125499504D01*
X134762381Y-125434453D01*
X134295854Y-125366798D01*
X133813564Y-125296899D01*
X133317998Y-125225121D01*
X132714802Y-125137767D01*
X131700382Y-124990801D01*
X130735076Y-124850871D01*
X129817781Y-124717815D01*
X128947397Y-124591473D01*
X128122821Y-124471685D01*
X127342954Y-124358290D01*
X126606692Y-124251128D01*
X125912935Y-124150038D01*
X125260582Y-124054860D01*
X124648529Y-123965432D01*
X124075677Y-123881595D01*
X123540924Y-123803188D01*
X123043168Y-123730050D01*
X122581308Y-123662021D01*
X122154243Y-123598941D01*
X121760870Y-123540648D01*
X121759703Y-123540475D01*
X121479455Y-123498874D01*
X121211340Y-123459080D01*
X120960192Y-123421812D01*
X120730845Y-123387785D01*
X120528134Y-123357717D01*
X120356894Y-123332325D01*
X120221957Y-123312327D01*
X120128160Y-123298438D01*
X120080337Y-123291377D01*
X120034207Y-123284003D01*
X119979782Y-123268543D01*
X119954928Y-123242479D01*
X119945586Y-123195842D01*
X119944590Y-123184085D01*
X119945851Y-123166340D01*
X119951671Y-123153121D01*
X120207571Y-123153121D01*
X120213122Y-123155031D01*
X120251468Y-123162754D01*
X120326571Y-123175691D01*
X120439018Y-123193928D01*
X120589397Y-123217550D01*
X120778294Y-123246645D01*
X121006296Y-123281299D01*
X121273991Y-123321596D01*
X121581965Y-123367624D01*
X121930805Y-123419469D01*
X122321100Y-123477217D01*
X122753435Y-123540953D01*
X123228397Y-123610765D01*
X123746575Y-123686737D01*
X124308554Y-123768957D01*
X124914922Y-123857510D01*
X125566266Y-123952483D01*
X126263173Y-124053961D01*
X127006230Y-124162031D01*
X127796024Y-124276779D01*
X128633142Y-124398290D01*
X129518171Y-124526652D01*
X130451699Y-124661950D01*
X131434311Y-124804271D01*
X132466596Y-124953699D01*
X133549141Y-125110323D01*
X133850388Y-125153903D01*
X134323600Y-125222388D01*
X134782012Y-125288764D01*
X135223050Y-125352655D01*
X135644140Y-125413689D01*
X136042707Y-125471490D01*
X136416178Y-125525686D01*
X136761978Y-125575902D01*
X137077534Y-125621764D01*
X137360271Y-125662898D01*
X137607616Y-125698930D01*
X137816994Y-125729486D01*
X137985831Y-125754193D01*
X138111553Y-125772675D01*
X138191587Y-125784560D01*
X138223357Y-125789473D01*
X138227389Y-125789640D01*
X138253093Y-125782919D01*
X138298805Y-125764057D01*
X138366572Y-125731938D01*
X138458441Y-125685449D01*
X138576459Y-125623473D01*
X138722674Y-125544895D01*
X138899134Y-125448601D01*
X139107884Y-125333474D01*
X139350974Y-125198401D01*
X139630449Y-125042266D01*
X139948358Y-124863954D01*
X140306747Y-124662350D01*
X140707665Y-124436338D01*
X140736317Y-124420171D01*
X141060176Y-124237342D01*
X141370861Y-124061779D01*
X141665502Y-123895113D01*
X141941227Y-123738977D01*
X142195166Y-123595001D01*
X142424448Y-123464816D01*
X142626201Y-123350054D01*
X142797557Y-123252347D01*
X142935642Y-123173324D01*
X143037588Y-123114619D01*
X143100522Y-123077861D01*
X143121575Y-123064682D01*
X143121404Y-123064623D01*
X143092229Y-123059933D01*
X143014562Y-123048254D01*
X142890594Y-123029904D01*
X142722516Y-123005201D01*
X142512518Y-122974464D01*
X142262791Y-122938010D01*
X141975527Y-122896158D01*
X141652916Y-122849226D01*
X141297147Y-122797531D01*
X140910414Y-122741394D01*
X140494905Y-122681130D01*
X140052812Y-122617059D01*
X139586326Y-122549499D01*
X139097637Y-122478768D01*
X138588935Y-122405184D01*
X138062413Y-122329065D01*
X137520260Y-122250729D01*
X136964668Y-122170495D01*
X136933746Y-122166031D01*
X136378105Y-122085790D01*
X135835650Y-122007414D01*
X135308596Y-121931225D01*
X134799159Y-121857545D01*
X134309552Y-121786694D01*
X133841991Y-121718995D01*
X133398691Y-121654769D01*
X132981867Y-121594338D01*
X132593733Y-121538022D01*
X132236504Y-121486144D01*
X131912396Y-121439025D01*
X131623622Y-121396986D01*
X131372399Y-121360349D01*
X131160940Y-121329436D01*
X130991462Y-121304567D01*
X130866177Y-121286065D01*
X130787302Y-121274251D01*
X130757052Y-121269446D01*
X130700150Y-121256391D01*
X130692846Y-122230479D01*
X130692596Y-122262629D01*
X130690485Y-122479352D01*
X130687810Y-122678900D01*
X130684702Y-122855575D01*
X130681297Y-123003337D01*
X130681289Y-123003678D01*
X130677700Y-123117512D01*
X130674062Y-123191377D01*
X130670506Y-123219577D01*
X130669585Y-123219974D01*
X130635266Y-123218796D01*
X130556549Y-123210828D01*
X130439081Y-123196795D01*
X130288504Y-123177419D01*
X130110464Y-123153425D01*
X129910605Y-123125536D01*
X129694571Y-123094475D01*
X129275508Y-123033419D01*
X128741948Y-122955820D01*
X128212979Y-122879037D01*
X127691034Y-122803419D01*
X127178547Y-122729313D01*
X126677951Y-122657065D01*
X126191680Y-122587022D01*
X125722167Y-122519533D01*
X125271845Y-122454944D01*
X124843149Y-122393603D01*
X124438511Y-122335855D01*
X124060366Y-122282050D01*
X123711146Y-122232534D01*
X123393286Y-122187654D01*
X123109218Y-122147757D01*
X122861376Y-122113190D01*
X122652194Y-122084301D01*
X122484106Y-122061438D01*
X122359544Y-122044946D01*
X122280942Y-122035173D01*
X122250734Y-122032467D01*
X122244713Y-122034578D01*
X122200149Y-122055943D01*
X122119150Y-122097712D01*
X122007158Y-122156901D01*
X121869617Y-122230524D01*
X121711969Y-122315595D01*
X121539658Y-122409129D01*
X121358127Y-122508141D01*
X121172819Y-122609645D01*
X120989178Y-122710655D01*
X120812646Y-122808186D01*
X120648667Y-122899252D01*
X120502683Y-122980869D01*
X120380139Y-123050049D01*
X120286476Y-123103808D01*
X120227139Y-123139161D01*
X120207571Y-123153121D01*
X119951671Y-123153121D01*
X119953973Y-123147893D01*
X119972773Y-123126345D01*
X120006067Y-123099295D01*
X120057673Y-123064340D01*
X120131408Y-123019080D01*
X120231089Y-122961113D01*
X120360531Y-122888040D01*
X120523553Y-122797457D01*
X120723971Y-122686965D01*
X120965601Y-122554162D01*
X121147242Y-122454102D01*
X121343953Y-122345074D01*
X121521699Y-122245844D01*
X121676126Y-122158878D01*
X121802879Y-122086644D01*
X121897605Y-122031609D01*
X121955950Y-121996241D01*
X121973558Y-121983007D01*
X121971769Y-121982658D01*
X121933495Y-121976727D01*
X121847807Y-121963956D01*
X121717502Y-121944752D01*
X121545378Y-121919521D01*
X121334234Y-121888672D01*
X121182450Y-121866545D01*
X122551507Y-121866545D01*
X122553382Y-121866914D01*
X122591891Y-121872892D01*
X122677537Y-121885659D01*
X122807310Y-121904779D01*
X122978202Y-121929813D01*
X123187203Y-121960324D01*
X123431304Y-121995875D01*
X123707497Y-122036028D01*
X124012772Y-122080345D01*
X124344121Y-122128390D01*
X124698534Y-122179723D01*
X125073003Y-122233909D01*
X125464518Y-122290509D01*
X125870071Y-122349086D01*
X126273041Y-122407266D01*
X126686105Y-122466909D01*
X127089836Y-122525209D01*
X127480462Y-122581621D01*
X127854209Y-122635600D01*
X128207304Y-122686601D01*
X128535973Y-122734079D01*
X128836444Y-122777490D01*
X129104942Y-122816287D01*
X129337696Y-122849925D01*
X129530931Y-122877861D01*
X129680875Y-122899548D01*
X129783754Y-122914442D01*
X129897959Y-122930839D01*
X130064388Y-122954173D01*
X130211462Y-122974127D01*
X130331318Y-122989663D01*
X130416092Y-122999746D01*
X130457920Y-123003337D01*
X130518605Y-123003337D01*
X130518605Y-121237964D01*
X130435137Y-121225034D01*
X130410719Y-121221416D01*
X130336855Y-121210643D01*
X130218366Y-121193440D01*
X130058739Y-121170310D01*
X129861462Y-121141758D01*
X129630021Y-121108287D01*
X129367903Y-121070402D01*
X129078596Y-121028608D01*
X128765586Y-120983407D01*
X128432361Y-120935304D01*
X128082407Y-120884804D01*
X127719211Y-120832410D01*
X125086754Y-120452717D01*
X123809950Y-121156591D01*
X123629880Y-121256022D01*
X123406183Y-121380018D01*
X123200032Y-121494822D01*
X123015354Y-121598219D01*
X122856076Y-121687992D01*
X122726125Y-121761927D01*
X122629428Y-121817808D01*
X122569913Y-121853419D01*
X122551507Y-121866545D01*
X121182450Y-121866545D01*
X121086867Y-121852611D01*
X120806074Y-121811744D01*
X120494654Y-121766480D01*
X120155405Y-121717224D01*
X119791123Y-121664384D01*
X119404608Y-121608367D01*
X118998657Y-121549579D01*
X118576067Y-121488428D01*
X118139636Y-121425321D01*
X117912674Y-121392513D01*
X117340824Y-121309842D01*
X116816486Y-121234018D01*
X116337237Y-121164685D01*
X115900659Y-121101486D01*
X115504330Y-121044065D01*
X115145829Y-120992066D01*
X114822737Y-120945132D01*
X114532633Y-120902906D01*
X114273095Y-120865032D01*
X114041705Y-120831155D01*
X113836040Y-120800916D01*
X113653681Y-120773961D01*
X113492207Y-120749931D01*
X113349197Y-120728472D01*
X113222231Y-120709227D01*
X113108888Y-120691838D01*
X113006749Y-120675950D01*
X112913391Y-120661207D01*
X112826395Y-120647251D01*
X112743341Y-120633727D01*
X112661807Y-120620278D01*
X112579373Y-120606547D01*
X112091406Y-120524975D01*
X112070817Y-117393952D01*
X112070791Y-117389978D01*
X112258342Y-117389978D01*
X112258350Y-117646105D01*
X112258426Y-118072567D01*
X112258614Y-118451941D01*
X112258957Y-118786988D01*
X112259496Y-119080465D01*
X112260272Y-119335132D01*
X112261328Y-119553746D01*
X112262705Y-119739066D01*
X112264444Y-119893850D01*
X112266588Y-120020858D01*
X112269178Y-120122847D01*
X112272255Y-120202576D01*
X112275861Y-120262804D01*
X112280038Y-120306288D01*
X112284827Y-120335788D01*
X112290271Y-120354062D01*
X112296410Y-120363869D01*
X112303286Y-120367966D01*
X112320313Y-120372306D01*
X112355557Y-120379637D01*
X112407561Y-120389229D01*
X112477948Y-120401322D01*
X112568342Y-120416155D01*
X112680365Y-120433968D01*
X112815641Y-120455000D01*
X112975793Y-120479490D01*
X113162443Y-120507679D01*
X113377215Y-120539805D01*
X113621732Y-120576107D01*
X113897618Y-120616826D01*
X114206494Y-120662201D01*
X114549985Y-120712470D01*
X114929712Y-120767875D01*
X115347301Y-120828653D01*
X115804373Y-120895044D01*
X116302551Y-120967289D01*
X116843459Y-121045625D01*
X117428720Y-121130294D01*
X118059957Y-121221533D01*
X118738793Y-121319583D01*
X119466851Y-121424682D01*
X119492640Y-121428404D01*
X119862336Y-121481672D01*
X120217987Y-121532765D01*
X120556248Y-121581213D01*
X120873776Y-121626541D01*
X121167225Y-121668278D01*
X121433251Y-121705952D01*
X121668510Y-121739089D01*
X121869657Y-121767217D01*
X122033348Y-121789863D01*
X122156240Y-121806556D01*
X122234986Y-121816822D01*
X122266244Y-121820190D01*
X122266736Y-121820141D01*
X122299208Y-121806469D01*
X122372330Y-121770064D01*
X122482083Y-121713079D01*
X122624451Y-121637670D01*
X122795414Y-121545989D01*
X122990954Y-121440192D01*
X123207055Y-121322432D01*
X123439696Y-121194864D01*
X123684861Y-121059642D01*
X125056678Y-120300846D01*
X127742697Y-120689015D01*
X128080557Y-120737788D01*
X128433834Y-120788674D01*
X128770125Y-120836996D01*
X129086047Y-120882273D01*
X129378213Y-120924025D01*
X129643239Y-120961770D01*
X129877740Y-120995028D01*
X130078333Y-121023317D01*
X130241631Y-121046156D01*
X130364251Y-121063065D01*
X130442807Y-121073562D01*
X130473914Y-121077166D01*
X130475422Y-121077134D01*
X130485696Y-121073969D01*
X130494173Y-121062571D01*
X130500991Y-121038627D01*
X130506288Y-120997825D01*
X130510204Y-120935851D01*
X130512876Y-120848392D01*
X130514444Y-120731136D01*
X130515045Y-120579768D01*
X130514819Y-120389977D01*
X130513904Y-120157448D01*
X130512438Y-119877869D01*
X130505764Y-118678588D01*
X127770576Y-118286270D01*
X127414615Y-118235193D01*
X126958821Y-118169734D01*
X126494617Y-118103011D01*
X126024825Y-118035430D01*
X125552267Y-117967400D01*
X125079765Y-117899329D01*
X124610139Y-117831626D01*
X124146212Y-117764699D01*
X123690805Y-117698956D01*
X123246739Y-117634806D01*
X122816836Y-117572656D01*
X122403918Y-117512915D01*
X122010805Y-117455991D01*
X121640320Y-117402292D01*
X121295284Y-117352227D01*
X120978518Y-117306204D01*
X120692845Y-117264631D01*
X120441084Y-117227916D01*
X120226059Y-117196468D01*
X120050590Y-117170695D01*
X119917499Y-117151004D01*
X119829608Y-117137806D01*
X119789737Y-117131506D01*
X119706269Y-117116326D01*
X119706269Y-116376888D01*
X121162211Y-116376888D01*
X121166541Y-116378762D01*
X121211298Y-116388852D01*
X121298390Y-116404566D01*
X121421343Y-116424860D01*
X121573685Y-116448685D01*
X121748944Y-116474996D01*
X121940647Y-116502747D01*
X121947150Y-116503672D01*
X122064336Y-116520379D01*
X122228605Y-116543856D01*
X122436448Y-116573599D01*
X122684358Y-116609106D01*
X122968826Y-116649872D01*
X123286344Y-116695395D01*
X123633405Y-116745171D01*
X124006501Y-116798697D01*
X124402122Y-116855471D01*
X124816762Y-116914988D01*
X125246911Y-116976746D01*
X125689063Y-117040242D01*
X126139708Y-117104971D01*
X126595340Y-117170432D01*
X126765008Y-117194796D01*
X127201125Y-117257293D01*
X127622294Y-117317460D01*
X128025754Y-117374912D01*
X128408746Y-117429264D01*
X128768507Y-117480128D01*
X129102278Y-117527119D01*
X129407297Y-117569851D01*
X129680805Y-117607938D01*
X129920040Y-117640993D01*
X130122242Y-117668630D01*
X130284649Y-117690464D01*
X130404502Y-117706108D01*
X130479040Y-117715176D01*
X130505502Y-117717283D01*
X130507228Y-117702975D01*
X130509554Y-117642083D01*
X130511705Y-117537743D01*
X130513640Y-117394596D01*
X130515316Y-117217281D01*
X130516692Y-117010437D01*
X130517727Y-116778704D01*
X130518378Y-116526722D01*
X130518573Y-116296842D01*
X130698382Y-116296842D01*
X130698504Y-116508612D01*
X130698996Y-116765718D01*
X130699831Y-117003302D01*
X130700973Y-117216815D01*
X130702386Y-117401709D01*
X130704035Y-117553434D01*
X130705882Y-117667441D01*
X130707892Y-117739181D01*
X130710029Y-117764105D01*
X130734193Y-117767385D01*
X130806492Y-117777566D01*
X130924069Y-117794250D01*
X131084081Y-117817029D01*
X131283682Y-117845497D01*
X131520029Y-117879247D01*
X131790276Y-117917872D01*
X132091579Y-117960966D01*
X132421095Y-118008122D01*
X132775977Y-118058933D01*
X133153383Y-118112993D01*
X133550468Y-118169895D01*
X133964386Y-118229231D01*
X134392294Y-118290597D01*
X134799758Y-118349019D01*
X135214849Y-118408487D01*
X135613399Y-118465538D01*
X135992547Y-118519764D01*
X136349437Y-118570759D01*
X136681209Y-118618114D01*
X136985005Y-118661423D01*
X137257968Y-118700279D01*
X137497237Y-118734274D01*
X137699955Y-118763001D01*
X137863264Y-118786053D01*
X137984305Y-118803023D01*
X138060220Y-118813504D01*
X138088150Y-118817088D01*
X138089941Y-118813965D01*
X138095002Y-118772509D01*
X138099958Y-118687224D01*
X138104750Y-118563689D01*
X138109322Y-118407482D01*
X138113504Y-118228904D01*
X139070626Y-118228904D01*
X139071185Y-118350078D01*
X139072329Y-118430597D01*
X139074066Y-118465108D01*
X139081615Y-118469830D01*
X139104448Y-118465057D01*
X139145069Y-118448525D01*
X139206100Y-118418763D01*
X139290164Y-118374299D01*
X139399884Y-118313659D01*
X139537882Y-118235372D01*
X139706780Y-118137965D01*
X139909201Y-118019966D01*
X140147767Y-117879904D01*
X140425101Y-117716304D01*
X140743826Y-117527696D01*
X140763746Y-117515893D01*
X141029161Y-117358360D01*
X141280809Y-117208503D01*
X141515304Y-117068370D01*
X141729259Y-116940006D01*
X141919288Y-116825459D01*
X142082005Y-116726774D01*
X142214025Y-116645998D01*
X142311960Y-116585178D01*
X142372424Y-116546360D01*
X142392033Y-116531591D01*
X142381888Y-116528776D01*
X142327325Y-116518824D01*
X142230245Y-116503006D01*
X142095830Y-116482068D01*
X141929267Y-116456754D01*
X141735739Y-116427808D01*
X141520432Y-116395977D01*
X141288530Y-116362004D01*
X141045219Y-116326634D01*
X140795683Y-116290614D01*
X140545107Y-116254686D01*
X140298675Y-116219597D01*
X140061574Y-116186091D01*
X139838986Y-116154912D01*
X139636099Y-116126807D01*
X139458095Y-116102519D01*
X139310160Y-116082794D01*
X139197479Y-116068377D01*
X139125237Y-116060012D01*
X139098618Y-116058444D01*
X139096477Y-116078464D01*
X139093676Y-116145245D01*
X139090663Y-116253866D01*
X139087539Y-116399177D01*
X139086604Y-116451843D01*
X139084400Y-116576030D01*
X139081347Y-116779276D01*
X139078478Y-117003766D01*
X139075891Y-117244350D01*
X139074080Y-117444711D01*
X139072379Y-117674977D01*
X139071231Y-117886000D01*
X139070644Y-118072427D01*
X139070626Y-118228904D01*
X138113504Y-118228904D01*
X138113615Y-118224182D01*
X138117573Y-118019367D01*
X138121138Y-117798615D01*
X138124253Y-117567506D01*
X138126860Y-117331618D01*
X138128902Y-117096529D01*
X138130321Y-116867818D01*
X138131061Y-116651063D01*
X138131064Y-116451843D01*
X138130272Y-116275736D01*
X138128628Y-116128321D01*
X138126075Y-116015177D01*
X138122556Y-115941881D01*
X138118012Y-115914013D01*
X138097883Y-115910035D01*
X138029556Y-115898944D01*
X137915701Y-115881328D01*
X137759195Y-115857610D01*
X137562913Y-115828215D01*
X137329731Y-115793566D01*
X137062527Y-115754087D01*
X136918215Y-115732860D01*
X139096562Y-115732860D01*
X139180030Y-115747380D01*
X139200938Y-115750673D01*
X139271688Y-115761261D01*
X139386045Y-115778100D01*
X139539682Y-115800561D01*
X139728276Y-115828015D01*
X139947502Y-115859836D01*
X140193035Y-115895394D01*
X140460551Y-115934061D01*
X140745725Y-115975209D01*
X141044233Y-116018210D01*
X141257329Y-116048864D01*
X141543418Y-116089958D01*
X141811612Y-116128412D01*
X142057793Y-116163642D01*
X142277844Y-116195058D01*
X142467646Y-116222076D01*
X142623082Y-116244107D01*
X142740033Y-116260565D01*
X142814381Y-116270863D01*
X142842008Y-116274414D01*
X142867390Y-116263989D01*
X142924852Y-116233258D01*
X143000303Y-116189343D01*
X143141557Y-116104379D01*
X143148050Y-111617963D01*
X143148290Y-111446757D01*
X143148872Y-110975556D01*
X143149321Y-110519300D01*
X143149639Y-110080589D01*
X143149829Y-109662025D01*
X143149892Y-109266210D01*
X143149832Y-108895744D01*
X143149651Y-108553230D01*
X143149350Y-108241268D01*
X143148932Y-107962462D01*
X143148399Y-107719411D01*
X143147754Y-107514717D01*
X143146999Y-107350982D01*
X143146136Y-107230808D01*
X143145168Y-107156796D01*
X143144096Y-107131547D01*
X143128225Y-107138002D01*
X143079988Y-107163499D01*
X142997549Y-107209689D01*
X142878434Y-107277983D01*
X142720166Y-107369788D01*
X142520271Y-107486514D01*
X142435166Y-107536205D01*
X142283418Y-107624467D01*
X142112744Y-107723431D01*
X141938358Y-107824279D01*
X141775478Y-107918193D01*
X141517108Y-108066967D01*
X141195118Y-108252657D01*
X140912107Y-108416227D01*
X140669963Y-108556583D01*
X140470576Y-108672633D01*
X140450420Y-108684383D01*
X140347626Y-108744064D01*
X140213701Y-108821550D01*
X140059317Y-108910678D01*
X139895147Y-109005285D01*
X139731864Y-109099209D01*
X139661018Y-109139968D01*
X139515819Y-109223818D01*
X139385814Y-109299306D01*
X139278349Y-109362144D01*
X139200772Y-109408043D01*
X139160428Y-109432716D01*
X139096562Y-109474563D01*
X139096562Y-115732860D01*
X136918215Y-115732860D01*
X136764175Y-115710202D01*
X136437553Y-115662335D01*
X136085536Y-115610910D01*
X135711000Y-115556350D01*
X135316822Y-115499079D01*
X134905878Y-115439521D01*
X134481043Y-115378100D01*
X134129998Y-115327402D01*
X133714513Y-115267385D01*
X133314563Y-115209596D01*
X132933091Y-115154461D01*
X132573038Y-115102407D01*
X132237347Y-115053859D01*
X131928959Y-115009243D01*
X131650816Y-114968984D01*
X131405860Y-114933509D01*
X131197033Y-114903242D01*
X131027276Y-114878610D01*
X130899533Y-114860039D01*
X130816743Y-114847953D01*
X130781850Y-114842779D01*
X130698382Y-114829579D01*
X130698382Y-116296842D01*
X130518573Y-116296842D01*
X130518605Y-116259129D01*
X130518603Y-116210903D01*
X130518499Y-115908556D01*
X130518139Y-115653034D01*
X130517403Y-115440376D01*
X130516168Y-115266619D01*
X130514312Y-115127803D01*
X130511712Y-115019964D01*
X130508246Y-114939141D01*
X130503793Y-114881372D01*
X130498230Y-114842695D01*
X130491435Y-114819149D01*
X130483286Y-114806771D01*
X130473660Y-114801600D01*
X130460920Y-114799264D01*
X130401007Y-114789837D01*
X130295810Y-114773948D01*
X130148813Y-114752103D01*
X129963500Y-114724813D01*
X129743356Y-114692584D01*
X129491864Y-114655926D01*
X129212510Y-114615348D01*
X128908776Y-114571356D01*
X128584149Y-114524461D01*
X128242111Y-114475171D01*
X127886148Y-114423993D01*
X125343579Y-114058866D01*
X124401351Y-114574082D01*
X123945291Y-114823458D01*
X123944194Y-115375632D01*
X123943956Y-115434871D01*
X123942065Y-115594705D01*
X123938618Y-115735267D01*
X123936321Y-115790633D01*
X123933919Y-115848534D01*
X123928272Y-115926482D01*
X123921983Y-115961089D01*
X123913718Y-115967137D01*
X123885515Y-115972143D01*
X123834130Y-115972083D01*
X123754962Y-115966522D01*
X123643409Y-115955026D01*
X123494871Y-115937161D01*
X123304745Y-115912494D01*
X123068432Y-115880590D01*
X122235996Y-115766808D01*
X121688702Y-116062784D01*
X121577300Y-116123651D01*
X121438755Y-116201284D01*
X121322094Y-116268933D01*
X121233196Y-116323088D01*
X121177942Y-116360243D01*
X121162211Y-116376888D01*
X119706269Y-116376888D01*
X119706269Y-115911604D01*
X120630839Y-115911604D01*
X120631021Y-115961363D01*
X120633186Y-116084529D01*
X120637411Y-116183653D01*
X120643211Y-116249628D01*
X120650101Y-116273349D01*
X120652733Y-116272602D01*
X120689309Y-116255131D01*
X120760829Y-116217796D01*
X120859341Y-116164990D01*
X120976894Y-116101107D01*
X121105534Y-116030539D01*
X121237311Y-115957678D01*
X121364274Y-115886918D01*
X121478469Y-115822651D01*
X121571946Y-115769269D01*
X121636752Y-115731166D01*
X121664936Y-115712734D01*
X121652293Y-115704818D01*
X121596671Y-115691099D01*
X121504472Y-115673808D01*
X121383405Y-115654373D01*
X121241175Y-115634223D01*
X121127366Y-115618982D01*
X121111886Y-115616888D01*
X122558906Y-115616888D01*
X122561731Y-115617657D01*
X122605580Y-115625517D01*
X122690589Y-115638432D01*
X122808419Y-115655209D01*
X122950736Y-115674657D01*
X123109201Y-115695582D01*
X123131736Y-115698514D01*
X123239637Y-115712734D01*
X123291676Y-115719592D01*
X123436872Y-115739178D01*
X123558273Y-115756021D01*
X123646825Y-115768866D01*
X123693478Y-115776461D01*
X123764105Y-115790633D01*
X123764105Y-115364831D01*
X123763719Y-115259870D01*
X123762064Y-115132168D01*
X123759333Y-115030498D01*
X123755772Y-114963304D01*
X123751630Y-114939029D01*
X123735343Y-114944381D01*
X123680152Y-114970700D01*
X123594188Y-115015484D01*
X123484346Y-115074816D01*
X123357521Y-115144778D01*
X123220607Y-115221449D01*
X123080500Y-115300913D01*
X122944095Y-115379250D01*
X122818285Y-115452542D01*
X122709967Y-115516871D01*
X122626034Y-115568317D01*
X122573383Y-115602962D01*
X122558906Y-115616888D01*
X121111886Y-115616888D01*
X120983939Y-115599581D01*
X120860387Y-115582653D01*
X120767061Y-115569617D01*
X120714307Y-115561896D01*
X120630839Y-115548689D01*
X120630839Y-115911604D01*
X119706269Y-115911604D01*
X119706269Y-115429325D01*
X119622801Y-115415099D01*
X119585961Y-115409647D01*
X119501864Y-115397832D01*
X119374465Y-115380206D01*
X119207251Y-115357240D01*
X119003712Y-115329404D01*
X118767337Y-115297171D01*
X118501615Y-115261010D01*
X118210034Y-115221394D01*
X117896083Y-115178793D01*
X117563253Y-115133677D01*
X117215030Y-115086519D01*
X116854905Y-115037790D01*
X116486367Y-114987959D01*
X116112903Y-114937499D01*
X115738004Y-114886881D01*
X115365158Y-114836575D01*
X114997855Y-114787053D01*
X114639582Y-114738786D01*
X114293829Y-114692244D01*
X113964085Y-114647899D01*
X113653840Y-114606222D01*
X113366581Y-114567684D01*
X113105798Y-114532756D01*
X112874979Y-114501909D01*
X112677615Y-114475615D01*
X112517193Y-114454343D01*
X112397202Y-114438566D01*
X112321133Y-114428755D01*
X112292472Y-114425379D01*
X112292337Y-114425383D01*
X112287013Y-114433020D01*
X112282251Y-114456943D01*
X112278022Y-114499656D01*
X112274297Y-114563666D01*
X112271047Y-114651479D01*
X112268244Y-114765599D01*
X112265858Y-114908533D01*
X112263861Y-115082786D01*
X112262223Y-115290865D01*
X112260917Y-115535274D01*
X112259913Y-115818519D01*
X112259182Y-116143107D01*
X112258696Y-116511542D01*
X112258426Y-116926330D01*
X112258342Y-117389978D01*
X112070791Y-117389978D01*
X112070130Y-117288873D01*
X112067168Y-116820017D01*
X112064715Y-116399578D01*
X112062781Y-116025121D01*
X112061376Y-115694214D01*
X112060510Y-115404422D01*
X112060193Y-115153312D01*
X112060434Y-114938450D01*
X112061244Y-114757401D01*
X112062632Y-114607734D01*
X112064608Y-114487012D01*
X112067182Y-114392804D01*
X112070365Y-114322675D01*
X112074165Y-114274191D01*
X112078593Y-114244919D01*
X112083659Y-114232424D01*
X112090807Y-114230202D01*
X112119613Y-114229416D01*
X112171559Y-114232230D01*
X112248628Y-114238896D01*
X112352800Y-114249664D01*
X112486054Y-114264785D01*
X112650372Y-114284512D01*
X112847734Y-114309096D01*
X113080121Y-114338787D01*
X113349513Y-114373837D01*
X113657892Y-114414497D01*
X114007237Y-114461019D01*
X114399528Y-114513653D01*
X114836748Y-114572652D01*
X115320876Y-114638266D01*
X115853893Y-114710746D01*
X115878313Y-114714071D01*
X116310549Y-114772875D01*
X116729201Y-114829741D01*
X117131401Y-114884282D01*
X117514276Y-114936113D01*
X117874959Y-114984848D01*
X118210578Y-115030103D01*
X118518264Y-115071491D01*
X118795147Y-115108626D01*
X119038357Y-115141124D01*
X119245024Y-115168599D01*
X119412278Y-115190665D01*
X119537249Y-115206937D01*
X119617068Y-115217029D01*
X119648864Y-115220555D01*
X119707030Y-115221537D01*
X119705871Y-112861733D01*
X119704986Y-111060971D01*
X120630546Y-111060971D01*
X120637113Y-113210567D01*
X120643681Y-115360163D01*
X121247220Y-115443755D01*
X121347726Y-115457504D01*
X121517352Y-115479921D01*
X121669899Y-115499115D01*
X121796925Y-115514072D01*
X121889988Y-115523774D01*
X121940647Y-115527206D01*
X121959558Y-115525049D01*
X122007259Y-115510835D01*
X122077667Y-115481777D01*
X122174411Y-115436069D01*
X122301120Y-115371903D01*
X122461422Y-115287470D01*
X122658946Y-115180963D01*
X122897321Y-115050573D01*
X123764105Y-114574082D01*
X123764105Y-112023048D01*
X123947967Y-112023048D01*
X123947977Y-112232779D01*
X123948329Y-112467336D01*
X123949032Y-112722149D01*
X123950093Y-112992648D01*
X123956724Y-114470181D01*
X124508898Y-114166781D01*
X125061072Y-113863382D01*
X125067764Y-112758740D01*
X125067936Y-112730334D01*
X125382103Y-112730334D01*
X125382148Y-112809987D01*
X125382754Y-113028784D01*
X125384004Y-113228836D01*
X125385819Y-113404706D01*
X125388119Y-113550957D01*
X125390824Y-113662153D01*
X125393856Y-113732858D01*
X125397134Y-113757634D01*
X125404617Y-113758557D01*
X125455947Y-113765652D01*
X125552908Y-113779335D01*
X125692035Y-113799109D01*
X125869868Y-113824480D01*
X126082944Y-113854951D01*
X126327800Y-113890026D01*
X126600973Y-113929210D01*
X126899002Y-113972006D01*
X127218425Y-114017920D01*
X127555778Y-114066455D01*
X127907600Y-114117115D01*
X128079193Y-114141846D01*
X128425950Y-114191896D01*
X128757284Y-114239819D01*
X129069652Y-114285096D01*
X129359514Y-114327210D01*
X129623327Y-114365645D01*
X129857549Y-114399881D01*
X130058637Y-114429404D01*
X130223051Y-114453694D01*
X130347247Y-114472235D01*
X130427684Y-114484510D01*
X130460819Y-114490000D01*
X130518605Y-114503405D01*
X130518605Y-112397440D01*
X130460819Y-112384610D01*
X130430589Y-112379746D01*
X130353049Y-112368485D01*
X130233074Y-112351554D01*
X130074906Y-112329529D01*
X129882786Y-112302982D01*
X129660958Y-112272489D01*
X129413662Y-112238622D01*
X129145141Y-112201956D01*
X128859637Y-112163066D01*
X128561393Y-112122524D01*
X128254650Y-112080905D01*
X127943650Y-112038783D01*
X127632637Y-111996733D01*
X127325851Y-111955327D01*
X127027536Y-111915141D01*
X126741932Y-111876747D01*
X126473283Y-111840721D01*
X126225830Y-111807636D01*
X126003816Y-111778066D01*
X125811483Y-111752585D01*
X125653072Y-111731767D01*
X125532826Y-111716187D01*
X125454988Y-111706417D01*
X125423798Y-111703033D01*
X125414564Y-111705799D01*
X125405759Y-111718471D01*
X125398690Y-111745698D01*
X125393169Y-111792082D01*
X125389009Y-111862223D01*
X125386025Y-111960723D01*
X125384029Y-112092183D01*
X125382835Y-112261204D01*
X125382255Y-112472387D01*
X125382103Y-112730334D01*
X125067936Y-112730334D01*
X125074457Y-111654098D01*
X124990717Y-111639512D01*
X124926640Y-111629129D01*
X124821720Y-111613599D01*
X124694682Y-111595798D01*
X124554649Y-111576899D01*
X124410744Y-111558074D01*
X124272092Y-111540496D01*
X124147816Y-111525337D01*
X124047040Y-111513769D01*
X123978887Y-111506965D01*
X123952481Y-111506097D01*
X123951216Y-111523784D01*
X123949925Y-111588511D01*
X123948949Y-111696343D01*
X123948294Y-111842712D01*
X123947967Y-112023048D01*
X123764105Y-112023048D01*
X123764105Y-111476406D01*
X123667796Y-111460633D01*
X123635290Y-111455568D01*
X123545698Y-111442457D01*
X123417779Y-111424339D01*
X123257109Y-111401964D01*
X123069263Y-111376080D01*
X122859819Y-111347436D01*
X122634351Y-111316781D01*
X122398437Y-111284863D01*
X122157652Y-111252432D01*
X121917571Y-111220235D01*
X121683772Y-111189022D01*
X121461830Y-111159542D01*
X121257321Y-111132543D01*
X121075822Y-111108773D01*
X120922908Y-111088983D01*
X120804155Y-111073920D01*
X120725139Y-111064333D01*
X120691437Y-111060971D01*
X120630546Y-111060971D01*
X119704986Y-111060971D01*
X119704711Y-110501930D01*
X119532133Y-110476857D01*
X119518885Y-110474940D01*
X119451656Y-110465255D01*
X119338373Y-110448964D01*
X119182460Y-110426560D01*
X118987337Y-110398534D01*
X118756426Y-110365376D01*
X118493147Y-110327578D01*
X118200922Y-110285630D01*
X117883172Y-110240025D01*
X117543319Y-110191253D01*
X117184784Y-110139805D01*
X116810988Y-110086173D01*
X116425352Y-110030847D01*
X113491149Y-109609909D01*
X113491126Y-106636353D01*
X113491182Y-106191136D01*
X113491387Y-105778995D01*
X113491774Y-105413003D01*
X113492377Y-105090509D01*
X113493229Y-104808862D01*
X113494011Y-104640849D01*
X113670690Y-104640849D01*
X113670715Y-104869275D01*
X113671260Y-105135597D01*
X113672307Y-105442509D01*
X113673834Y-105792702D01*
X113675823Y-106188872D01*
X113678254Y-106633711D01*
X113678474Y-106672528D01*
X113680727Y-107045386D01*
X113683144Y-107403422D01*
X113685688Y-107743313D01*
X113688324Y-108061739D01*
X113691016Y-108355376D01*
X113693728Y-108620902D01*
X113696425Y-108854997D01*
X113699070Y-109054337D01*
X113701628Y-109215600D01*
X113704063Y-109335465D01*
X113706340Y-109410610D01*
X113708423Y-109437712D01*
X113719808Y-109440363D01*
X113777350Y-109450160D01*
X113880592Y-109466432D01*
X114026385Y-109488716D01*
X114211580Y-109516548D01*
X114433030Y-109549464D01*
X114687586Y-109587002D01*
X114972100Y-109628696D01*
X115283423Y-109674084D01*
X115618408Y-109722702D01*
X115973905Y-109774086D01*
X116346767Y-109827772D01*
X116733845Y-109883297D01*
X116982265Y-109918863D01*
X117360601Y-109973012D01*
X117722708Y-110024821D01*
X118065442Y-110073839D01*
X118385654Y-110119618D01*
X118680197Y-110161708D01*
X118945925Y-110199659D01*
X119179690Y-110233023D01*
X119378344Y-110261349D01*
X119538741Y-110284189D01*
X119657734Y-110301092D01*
X119732176Y-110311610D01*
X119758918Y-110315293D01*
X119765491Y-110314090D01*
X119797442Y-110292800D01*
X119803415Y-110288703D01*
X119847703Y-110262163D01*
X119862088Y-110253814D01*
X121791298Y-110253814D01*
X121807897Y-110264813D01*
X121809997Y-110264948D01*
X121849888Y-110269637D01*
X121935392Y-110280589D01*
X122062102Y-110297215D01*
X122225609Y-110318925D01*
X122421506Y-110345130D01*
X122645384Y-110375241D01*
X122892836Y-110408668D01*
X123159453Y-110444822D01*
X123440828Y-110483114D01*
X123499976Y-110491176D01*
X123778028Y-110529035D01*
X124040000Y-110564640D01*
X124281539Y-110597403D01*
X124498296Y-110626737D01*
X124685918Y-110652055D01*
X124840053Y-110672769D01*
X124956351Y-110688292D01*
X125030460Y-110698037D01*
X125058027Y-110701416D01*
X125060661Y-110685392D01*
X125063755Y-110623132D01*
X125066566Y-110518729D01*
X125069024Y-110377304D01*
X125071057Y-110203979D01*
X125072597Y-110003876D01*
X125073572Y-109782115D01*
X125073913Y-109543818D01*
X125073913Y-109484033D01*
X125382103Y-109484033D01*
X125382115Y-109526558D01*
X125382661Y-109774003D01*
X125383965Y-110004327D01*
X125385945Y-110212638D01*
X125388521Y-110394044D01*
X125391610Y-110543653D01*
X125395132Y-110656574D01*
X125399005Y-110727914D01*
X125403149Y-110752781D01*
X125408215Y-110753308D01*
X125455110Y-110759285D01*
X125548012Y-110771539D01*
X125683411Y-110789595D01*
X125857794Y-110812981D01*
X126067650Y-110841222D01*
X126309468Y-110873845D01*
X126579737Y-110910378D01*
X126874945Y-110950345D01*
X127191581Y-110993275D01*
X127526133Y-111038692D01*
X127875090Y-111086124D01*
X127999990Y-111103115D01*
X128346732Y-111150319D01*
X128679141Y-111195622D01*
X128993561Y-111238522D01*
X129286334Y-111278519D01*
X129553805Y-111315113D01*
X129792317Y-111347801D01*
X129998213Y-111376083D01*
X130167838Y-111399458D01*
X130297534Y-111417425D01*
X130383644Y-111429484D01*
X130422514Y-111435133D01*
X130519042Y-111450797D01*
X130512538Y-110059353D01*
X130698382Y-110059353D01*
X130698513Y-110223720D01*
X130699253Y-110478422D01*
X130700591Y-110714239D01*
X130702464Y-110926530D01*
X130704810Y-111110655D01*
X130707563Y-111261975D01*
X130710663Y-111375850D01*
X130714044Y-111447640D01*
X130714497Y-111450797D01*
X130717644Y-111472705D01*
X130733990Y-111474507D01*
X130793299Y-111482373D01*
X130883812Y-111494989D01*
X130993731Y-111510730D01*
X131062457Y-111520355D01*
X131174560Y-111534654D01*
X131265871Y-111544590D01*
X131321402Y-111548439D01*
X131392249Y-111548938D01*
X131382902Y-109569620D01*
X132320606Y-109569620D01*
X132320864Y-109798223D01*
X132321519Y-110047239D01*
X132322582Y-110311996D01*
X132328380Y-111548938D01*
X132328873Y-111654098D01*
X132329222Y-111728474D01*
X134364560Y-110605677D01*
X134379840Y-110597247D01*
X134677635Y-110432805D01*
X134962103Y-110275434D01*
X135230075Y-110126903D01*
X135478383Y-109988980D01*
X135703861Y-109863435D01*
X135903341Y-109752036D01*
X136073655Y-109656551D01*
X136211635Y-109578751D01*
X136314115Y-109520403D01*
X136377925Y-109483277D01*
X136399899Y-109469141D01*
X136380702Y-109464477D01*
X136315082Y-109453097D01*
X136207317Y-109435886D01*
X136062049Y-109413508D01*
X135883921Y-109386629D01*
X135677573Y-109355914D01*
X135447648Y-109322028D01*
X135198787Y-109285635D01*
X134935634Y-109247402D01*
X134662829Y-109207993D01*
X134385014Y-109168072D01*
X134106832Y-109128306D01*
X133832924Y-109089360D01*
X133567932Y-109051898D01*
X133316499Y-109016585D01*
X133083265Y-108984087D01*
X132872874Y-108955068D01*
X132689966Y-108930194D01*
X132539184Y-108910130D01*
X132425170Y-108895541D01*
X132352565Y-108887092D01*
X132326012Y-108885447D01*
X132324876Y-108896398D01*
X132323318Y-108952825D01*
X132322101Y-109053034D01*
X132321236Y-109192352D01*
X132320734Y-109366106D01*
X132320606Y-109569620D01*
X131382902Y-109569620D01*
X131378969Y-108736704D01*
X131096461Y-108693428D01*
X131000803Y-108679172D01*
X130890433Y-108663764D01*
X130804508Y-108652956D01*
X130756168Y-108648483D01*
X130698382Y-108646815D01*
X130698382Y-110059353D01*
X130512538Y-110059353D01*
X130512403Y-110030407D01*
X130505764Y-108610018D01*
X130156141Y-108559947D01*
X132316380Y-108559947D01*
X134492973Y-108873304D01*
X134735493Y-108908189D01*
X135053998Y-108953909D01*
X135355416Y-108997069D01*
X135636000Y-109037137D01*
X135891997Y-109073583D01*
X136119658Y-109105874D01*
X136315234Y-109133479D01*
X136474973Y-109155866D01*
X136595125Y-109172504D01*
X136671940Y-109182861D01*
X136701668Y-109186405D01*
X136704048Y-109184929D01*
X136709564Y-109167357D01*
X136714401Y-109127815D01*
X136718596Y-109063632D01*
X136722188Y-108972134D01*
X136725214Y-108850651D01*
X136727713Y-108696509D01*
X136729723Y-108507036D01*
X136731282Y-108279560D01*
X136732429Y-108011409D01*
X136733200Y-107699910D01*
X136733635Y-107342391D01*
X136733772Y-106936181D01*
X136733742Y-106737454D01*
X136733476Y-106355747D01*
X136732899Y-106021465D01*
X136731975Y-105731935D01*
X136730664Y-105484485D01*
X136728929Y-105276446D01*
X136726730Y-105105144D01*
X136724030Y-104967909D01*
X136720791Y-104862069D01*
X136716973Y-104784952D01*
X136712539Y-104733888D01*
X136707450Y-104706205D01*
X136701668Y-104699231D01*
X136697188Y-104701493D01*
X136655478Y-104724269D01*
X136573254Y-104769892D01*
X136453638Y-104836612D01*
X136299750Y-104922678D01*
X136114711Y-105026342D01*
X135901641Y-105145852D01*
X135663663Y-105279458D01*
X135403897Y-105425411D01*
X135125463Y-105581960D01*
X134831482Y-105747354D01*
X134525076Y-105919845D01*
X134516702Y-105924560D01*
X134104495Y-106157102D01*
X133736923Y-106365324D01*
X133413534Y-106549491D01*
X133133874Y-106709867D01*
X132897491Y-106846715D01*
X132703931Y-106960300D01*
X132552741Y-107050884D01*
X132443468Y-107118734D01*
X132375660Y-107164111D01*
X132348862Y-107187280D01*
X132341999Y-107206758D01*
X132332584Y-107265756D01*
X132325520Y-107361212D01*
X132320638Y-107496848D01*
X132317774Y-107676381D01*
X132316759Y-107903533D01*
X132316460Y-108421803D01*
X132316380Y-108559947D01*
X130156141Y-108559947D01*
X128040243Y-108256920D01*
X127894086Y-108236002D01*
X127548522Y-108186648D01*
X127218144Y-108139609D01*
X126906517Y-108095384D01*
X126617207Y-108054474D01*
X126353779Y-108017379D01*
X126119799Y-107984599D01*
X125918833Y-107956633D01*
X125754446Y-107933983D01*
X125630203Y-107917147D01*
X125549671Y-107906627D01*
X125516414Y-107902923D01*
X125458107Y-107902022D01*
X125510735Y-108005181D01*
X125563362Y-108108340D01*
X125472733Y-108161813D01*
X125382103Y-108215286D01*
X125382103Y-109484033D01*
X125073913Y-109484033D01*
X125073913Y-108386220D01*
X124939080Y-108462639D01*
X124926728Y-108469628D01*
X124865253Y-108504331D01*
X124764734Y-108561019D01*
X124629299Y-108637365D01*
X124463077Y-108731042D01*
X124270196Y-108839724D01*
X124054786Y-108961085D01*
X123820974Y-109092798D01*
X123572890Y-109232538D01*
X123314661Y-109377976D01*
X123196360Y-109444635D01*
X122947290Y-109585191D01*
X122712953Y-109717722D01*
X122497107Y-109840084D01*
X122303507Y-109950139D01*
X122135910Y-110045744D01*
X121998072Y-110124759D01*
X121893750Y-110185043D01*
X121826700Y-110224455D01*
X121800678Y-110240854D01*
X121791298Y-110253814D01*
X119862088Y-110253814D01*
X119931767Y-110213372D01*
X120052228Y-110144233D01*
X120205706Y-110056645D01*
X120388823Y-109952511D01*
X120598199Y-109833733D01*
X120830455Y-109702212D01*
X121082210Y-109559850D01*
X121350087Y-109408548D01*
X121630704Y-109250209D01*
X121920684Y-109086732D01*
X122216647Y-108920022D01*
X122515212Y-108751978D01*
X122813002Y-108584502D01*
X123106636Y-108419497D01*
X123392735Y-108258863D01*
X123667920Y-108104502D01*
X123928811Y-107958317D01*
X124172030Y-107822208D01*
X124394196Y-107698077D01*
X124591930Y-107587826D01*
X124761853Y-107493357D01*
X124900585Y-107416570D01*
X125004748Y-107359368D01*
X125070961Y-107323652D01*
X125095846Y-107311325D01*
X125109788Y-107319585D01*
X125145397Y-107361387D01*
X125187977Y-107426641D01*
X125210083Y-107461044D01*
X125264323Y-107524291D01*
X125312409Y-107554454D01*
X125314133Y-107554810D01*
X125357326Y-107561966D01*
X125446182Y-107575534D01*
X125576506Y-107594919D01*
X125744101Y-107619522D01*
X125944771Y-107648747D01*
X126174321Y-107681995D01*
X126428555Y-107718670D01*
X126703278Y-107758174D01*
X126994293Y-107799910D01*
X127297404Y-107843281D01*
X127608417Y-107887688D01*
X127923134Y-107932535D01*
X128237361Y-107977224D01*
X128546902Y-108021158D01*
X128847561Y-108063740D01*
X129135141Y-108104372D01*
X129405448Y-108142456D01*
X129654285Y-108177396D01*
X129877458Y-108208595D01*
X130070769Y-108235453D01*
X130230023Y-108257376D01*
X130351025Y-108273764D01*
X130429579Y-108284021D01*
X130461488Y-108287549D01*
X130519943Y-108287260D01*
X130512853Y-107896304D01*
X130506437Y-107542467D01*
X130697044Y-107542467D01*
X130704134Y-107934125D01*
X130710527Y-108287260D01*
X130711224Y-108325784D01*
X130891001Y-108355893D01*
X130983844Y-108370557D01*
X131116394Y-108389453D01*
X131231980Y-108403903D01*
X131393181Y-108421803D01*
X131386075Y-108027080D01*
X131378969Y-107632356D01*
X131096461Y-107589080D01*
X131000861Y-107574838D01*
X130890311Y-107559424D01*
X130804131Y-107548611D01*
X130755499Y-107544136D01*
X130697044Y-107542467D01*
X130506437Y-107542467D01*
X130505764Y-107505348D01*
X125818706Y-106845095D01*
X125444005Y-106792309D01*
X124970071Y-106725535D01*
X124511828Y-106660962D01*
X124071789Y-106598945D01*
X123652465Y-106539837D01*
X123256370Y-106483994D01*
X122886014Y-106431770D01*
X122543912Y-106383519D01*
X122232574Y-106339595D01*
X121954514Y-106300353D01*
X121712243Y-106266148D01*
X121508274Y-106237333D01*
X121345119Y-106214263D01*
X121225291Y-106197293D01*
X121151300Y-106186777D01*
X121125661Y-106183069D01*
X121124017Y-106163162D01*
X121121875Y-106098205D01*
X121119552Y-105994737D01*
X121117180Y-105859566D01*
X121114892Y-105699499D01*
X121112820Y-105521342D01*
X121111941Y-105436747D01*
X122596945Y-105436747D01*
X122609834Y-105446760D01*
X122613540Y-105447535D01*
X122657863Y-105454553D01*
X122749402Y-105468145D01*
X122885358Y-105487913D01*
X123062932Y-105513463D01*
X123279327Y-105544396D01*
X123531744Y-105580318D01*
X123817386Y-105620831D01*
X124133455Y-105665538D01*
X124477152Y-105714044D01*
X124845680Y-105765952D01*
X125236240Y-105820865D01*
X125646034Y-105878387D01*
X126072265Y-105938122D01*
X126512134Y-105999673D01*
X126642781Y-106017942D01*
X127079680Y-106079059D01*
X127502499Y-106138239D01*
X127908410Y-106195086D01*
X128294580Y-106249203D01*
X128658181Y-106300191D01*
X128996382Y-106347652D01*
X129306354Y-106391190D01*
X129585265Y-106430406D01*
X129830285Y-106464904D01*
X130038585Y-106494284D01*
X130207335Y-106518150D01*
X130333703Y-106536104D01*
X130414861Y-106547748D01*
X130447978Y-106552684D01*
X130518605Y-106565248D01*
X130518605Y-105655204D01*
X130701753Y-105655204D01*
X130702100Y-105870072D01*
X130702918Y-106067307D01*
X130704226Y-106241287D01*
X130706042Y-106386391D01*
X130708385Y-106496997D01*
X130711183Y-106565248D01*
X130711275Y-106567485D01*
X130714729Y-106592231D01*
X130717117Y-106592393D01*
X130757290Y-106597240D01*
X130840316Y-106608170D01*
X130959592Y-106624284D01*
X131108510Y-106644684D01*
X131280468Y-106668472D01*
X131468858Y-106694750D01*
X131504116Y-106699689D01*
X131692381Y-106726110D01*
X131864740Y-106750377D01*
X132014198Y-106771500D01*
X132133764Y-106788488D01*
X132216444Y-106800353D01*
X132255245Y-106806103D01*
X132272201Y-106801643D01*
X132334182Y-106773794D01*
X132439188Y-106720952D01*
X132586372Y-106643579D01*
X132774884Y-106542136D01*
X133003876Y-106417086D01*
X133272497Y-106268889D01*
X133579899Y-106098007D01*
X133925232Y-105904903D01*
X134307649Y-105690038D01*
X134592114Y-105529775D01*
X134875423Y-105369958D01*
X135142943Y-105218840D01*
X135391452Y-105078251D01*
X135617729Y-104950020D01*
X135818553Y-104835977D01*
X135990703Y-104737950D01*
X136130958Y-104657770D01*
X136236097Y-104597265D01*
X136302898Y-104558264D01*
X136328142Y-104542597D01*
X136315867Y-104538626D01*
X136257858Y-104527549D01*
X136155887Y-104510359D01*
X136013886Y-104487624D01*
X135835790Y-104459912D01*
X135625532Y-104427790D01*
X135387046Y-104391826D01*
X135124266Y-104352588D01*
X134841126Y-104310644D01*
X134541558Y-104266562D01*
X134229497Y-104220909D01*
X133908877Y-104174253D01*
X133583632Y-104127162D01*
X133257694Y-104080204D01*
X132934998Y-104033947D01*
X132619478Y-103988958D01*
X132315067Y-103945805D01*
X132025699Y-103905056D01*
X131755308Y-103867279D01*
X131507827Y-103833041D01*
X131287190Y-103802911D01*
X131097332Y-103777456D01*
X130942184Y-103757244D01*
X130825682Y-103742842D01*
X130751760Y-103734820D01*
X130724350Y-103733743D01*
X130723577Y-103735536D01*
X130719997Y-103773365D01*
X130716679Y-103855396D01*
X130713643Y-103976006D01*
X130710907Y-104129575D01*
X130708490Y-104310481D01*
X130706412Y-104513103D01*
X130704690Y-104731820D01*
X130703344Y-104961009D01*
X130702394Y-105195051D01*
X130701857Y-105428323D01*
X130701753Y-105655204D01*
X130518605Y-105655204D01*
X130518605Y-105127669D01*
X130518443Y-104941729D01*
X130517669Y-104685879D01*
X130516310Y-104449198D01*
X130514429Y-104236285D01*
X130512088Y-104051739D01*
X130509346Y-103900160D01*
X130506268Y-103786148D01*
X130502912Y-103714302D01*
X130499343Y-103689221D01*
X130476434Y-103686204D01*
X130406256Y-103676404D01*
X130292919Y-103660373D01*
X130140469Y-103638692D01*
X129952950Y-103611937D01*
X129734409Y-103580687D01*
X129488892Y-103545519D01*
X129220444Y-103507012D01*
X128933112Y-103465744D01*
X128630940Y-103422292D01*
X126781800Y-103156233D01*
X125369262Y-103917550D01*
X123956724Y-104678868D01*
X123949479Y-104966047D01*
X123947850Y-105030625D01*
X123946981Y-105065055D01*
X123942233Y-105253227D01*
X123859590Y-105240452D01*
X123856944Y-105240045D01*
X123796881Y-105231271D01*
X123699731Y-105217522D01*
X123578346Y-105200603D01*
X123445575Y-105182317D01*
X123114204Y-105136957D01*
X122919084Y-105239704D01*
X122820821Y-105291812D01*
X122713527Y-105350481D01*
X122643786Y-105391959D01*
X122606594Y-105419597D01*
X122596945Y-105436747D01*
X121111941Y-105436747D01*
X121109119Y-105164987D01*
X122069060Y-105164987D01*
X122071636Y-105248913D01*
X122078565Y-105309838D01*
X122088322Y-105332709D01*
X122108372Y-105324873D01*
X122166046Y-105296645D01*
X122250480Y-105252752D01*
X122351567Y-105198350D01*
X122595551Y-105065055D01*
X122479980Y-105048723D01*
X122432792Y-105042216D01*
X122324307Y-105027886D01*
X122216734Y-105014298D01*
X122069060Y-104996203D01*
X122069060Y-105164987D01*
X121109119Y-105164987D01*
X121107241Y-104984170D01*
X123432373Y-104984170D01*
X123456324Y-104990996D01*
X123518478Y-105001412D01*
X123603590Y-105012374D01*
X123764105Y-105030625D01*
X123764105Y-104912532D01*
X123763445Y-104875767D01*
X123758697Y-104817442D01*
X123750875Y-104794439D01*
X123725145Y-104805644D01*
X123669092Y-104834222D01*
X123597262Y-104872355D01*
X123524182Y-104912223D01*
X123464377Y-104946007D01*
X123432373Y-104965887D01*
X123432373Y-104984170D01*
X121107241Y-104984170D01*
X121105966Y-104861389D01*
X117420526Y-104354132D01*
X117004268Y-104296863D01*
X116588067Y-104239649D01*
X116188341Y-104184747D01*
X115807959Y-104132550D01*
X115449787Y-104083449D01*
X115116693Y-104037837D01*
X114811544Y-103996104D01*
X114537208Y-103958643D01*
X114296551Y-103925846D01*
X114092442Y-103898105D01*
X113927747Y-103875811D01*
X113805334Y-103859356D01*
X113728070Y-103849132D01*
X113698823Y-103845531D01*
X113697190Y-103845856D01*
X113691632Y-103854436D01*
X113686773Y-103876669D01*
X113682595Y-103915249D01*
X113679077Y-103972869D01*
X113676198Y-104052223D01*
X113673941Y-104156004D01*
X113672283Y-104286907D01*
X113671206Y-104447623D01*
X113670690Y-104640849D01*
X113494011Y-104640849D01*
X113494362Y-104565410D01*
X113495810Y-104357504D01*
X113497606Y-104182491D01*
X113499784Y-104037721D01*
X113502376Y-103920544D01*
X113505415Y-103828307D01*
X113508935Y-103758360D01*
X113512968Y-103708052D01*
X113517549Y-103674732D01*
X113522709Y-103655749D01*
X113528483Y-103648452D01*
X113529247Y-103648312D01*
X113563889Y-103650829D01*
X113646267Y-103659972D01*
X113773540Y-103675368D01*
X113942870Y-103696641D01*
X114151418Y-103723416D01*
X114396343Y-103755317D01*
X114674807Y-103791970D01*
X114983971Y-103832999D01*
X115320995Y-103878030D01*
X115683040Y-103926686D01*
X116067267Y-103978593D01*
X116470836Y-104033376D01*
X116890909Y-104090659D01*
X117324645Y-104150067D01*
X117375023Y-104156982D01*
X117806955Y-104216253D01*
X118224663Y-104273540D01*
X118625327Y-104328458D01*
X119006126Y-104380623D01*
X119364240Y-104429648D01*
X119696850Y-104475148D01*
X120001133Y-104516738D01*
X120274272Y-104554034D01*
X120513444Y-104586648D01*
X120715831Y-104614197D01*
X120878612Y-104636294D01*
X120998967Y-104652555D01*
X121074075Y-104662594D01*
X121101116Y-104666026D01*
X121104018Y-104650382D01*
X121107471Y-104588558D01*
X121110607Y-104484553D01*
X121113350Y-104343496D01*
X121115619Y-104170512D01*
X121117338Y-103970731D01*
X121118427Y-103749280D01*
X121118807Y-103511287D01*
X121118807Y-102356548D01*
X120826202Y-102499429D01*
X120710273Y-102554305D01*
X120599050Y-102601128D01*
X120523422Y-102624112D01*
X120478793Y-102624917D01*
X120459016Y-102612227D01*
X120413913Y-102558965D01*
X120361966Y-102477471D01*
X120309884Y-102380645D01*
X120264376Y-102281387D01*
X120232152Y-102192596D01*
X120219919Y-102127173D01*
X120230826Y-102068038D01*
X120261854Y-102017452D01*
X120287466Y-102000674D01*
X120354136Y-101962491D01*
X120451527Y-101909399D01*
X120571241Y-101845963D01*
X120704877Y-101776744D01*
X121105966Y-101571284D01*
X121111974Y-100849220D01*
X122043377Y-100849220D01*
X122043416Y-100925011D01*
X122044235Y-101047923D01*
X122047168Y-101132404D01*
X122053566Y-101187172D01*
X122064779Y-101220945D01*
X122082156Y-101242442D01*
X122107049Y-101260382D01*
X122177727Y-101328815D01*
X122233738Y-101440529D01*
X122257324Y-101575972D01*
X122258010Y-101604034D01*
X122251421Y-101668849D01*
X122223911Y-101719745D01*
X122165369Y-101779057D01*
X122069060Y-101867324D01*
X122069060Y-104793460D01*
X122126845Y-104806396D01*
X122163912Y-104813136D01*
X122244579Y-104825736D01*
X122352414Y-104841420D01*
X122474442Y-104858250D01*
X122575822Y-104871306D01*
X122690093Y-104884642D01*
X122780680Y-104893678D01*
X122833997Y-104896953D01*
X122874833Y-104886259D01*
X122953776Y-104854201D01*
X123061156Y-104804643D01*
X123188542Y-104741488D01*
X123327503Y-104668633D01*
X123751264Y-104440530D01*
X123759321Y-103326939D01*
X123759426Y-103312157D01*
X123760743Y-103038837D01*
X123761081Y-102750105D01*
X123760495Y-102457089D01*
X123759041Y-102170919D01*
X123756774Y-101902723D01*
X123753751Y-101663630D01*
X123750025Y-101464769D01*
X123744969Y-101246655D01*
X123947409Y-101246655D01*
X123947489Y-101458260D01*
X123947801Y-101697683D01*
X123948345Y-101960784D01*
X123949120Y-102243425D01*
X123950128Y-102541467D01*
X123950898Y-102750105D01*
X123956724Y-104328858D01*
X125221588Y-103645930D01*
X126486451Y-102963001D01*
X126486451Y-101144271D01*
X126793945Y-101144271D01*
X126800714Y-101999605D01*
X126807482Y-102854939D01*
X127572290Y-102963001D01*
X128566734Y-103103509D01*
X128747757Y-103129095D01*
X129037597Y-103170097D01*
X129311766Y-103208926D01*
X129565863Y-103244957D01*
X129795492Y-103277563D01*
X129996252Y-103306120D01*
X130163746Y-103330003D01*
X130293575Y-103348585D01*
X130381340Y-103361243D01*
X130422642Y-103367350D01*
X130519298Y-103382619D01*
X130505764Y-101675691D01*
X128759353Y-101426331D01*
X128591334Y-101402337D01*
X128301427Y-101360921D01*
X128026709Y-101321656D01*
X127771640Y-101285180D01*
X127540676Y-101252130D01*
X127338274Y-101223146D01*
X127168893Y-101198864D01*
X127036989Y-101179924D01*
X126947020Y-101166964D01*
X126903444Y-101160621D01*
X126793945Y-101144271D01*
X126486451Y-101144271D01*
X126486451Y-101105030D01*
X125221588Y-100924014D01*
X125173048Y-100917073D01*
X124927263Y-100882071D01*
X124698310Y-100849710D01*
X124491048Y-100820660D01*
X124310334Y-100795591D01*
X124161027Y-100775174D01*
X124047985Y-100760079D01*
X123976066Y-100750977D01*
X123950128Y-100748537D01*
X123949408Y-100761178D01*
X123948561Y-100820129D01*
X123947945Y-100923451D01*
X123947561Y-101067006D01*
X123947409Y-101246655D01*
X123744969Y-101246655D01*
X123732672Y-100716191D01*
X123654398Y-100700536D01*
X123627363Y-100695640D01*
X123574880Y-100694716D01*
X123564843Y-100718748D01*
X123593135Y-100772574D01*
X123601979Y-100786250D01*
X123619062Y-100823673D01*
X123604479Y-100850652D01*
X123551669Y-100884978D01*
X123541292Y-100891132D01*
X123458442Y-100940337D01*
X123374426Y-100990331D01*
X123280095Y-101046536D01*
X123188387Y-100885149D01*
X123096679Y-100723761D01*
X123150730Y-100678817D01*
X123184626Y-100647683D01*
X123192139Y-100633873D01*
X123188617Y-100633534D01*
X123146582Y-100627981D01*
X123063725Y-100616450D01*
X122947715Y-100600024D01*
X122806222Y-100579788D01*
X122646916Y-100556825D01*
X122600687Y-100550157D01*
X122443311Y-100527752D01*
X122304335Y-100508412D01*
X122191864Y-100493237D01*
X122114002Y-100483326D01*
X122078856Y-100479778D01*
X122076776Y-100479913D01*
X122063012Y-100491872D01*
X122053443Y-100527986D01*
X122047416Y-100595051D01*
X122044278Y-100699864D01*
X122043377Y-100849220D01*
X121111974Y-100849220D01*
X121112746Y-100756444D01*
X121119527Y-99941604D01*
X121061381Y-99928680D01*
X121044948Y-99925984D01*
X120980371Y-99916359D01*
X120870515Y-99900392D01*
X120718586Y-99878535D01*
X120527787Y-99851239D01*
X120301324Y-99818956D01*
X120042400Y-99782136D01*
X119754221Y-99741232D01*
X119439990Y-99696694D01*
X119102913Y-99648974D01*
X118746194Y-99598524D01*
X118373038Y-99545794D01*
X117986648Y-99491237D01*
X117590230Y-99435303D01*
X117186988Y-99378443D01*
X116780127Y-99321111D01*
X116372851Y-99263755D01*
X115968365Y-99206829D01*
X115569873Y-99150783D01*
X115180580Y-99096069D01*
X114803690Y-99043139D01*
X114442409Y-98992442D01*
X114099939Y-98944432D01*
X113779487Y-98899559D01*
X113484256Y-98858275D01*
X113217452Y-98821031D01*
X112982278Y-98788278D01*
X112781939Y-98760468D01*
X112619640Y-98738052D01*
X112498586Y-98721482D01*
X112421980Y-98711209D01*
X112393027Y-98707685D01*
X112389299Y-98707231D01*
X112368468Y-98676996D01*
X112361072Y-98604101D01*
X112359383Y-98575755D01*
X112337498Y-98475843D01*
X112296766Y-98373616D01*
X112232460Y-98246714D01*
X112361072Y-98162444D01*
X112361072Y-95296868D01*
X112540849Y-95296868D01*
X112541040Y-95657759D01*
X112541616Y-96014372D01*
X112542550Y-96353352D01*
X112543816Y-96671324D01*
X112545386Y-96964915D01*
X112547236Y-97230753D01*
X112549336Y-97465464D01*
X112551662Y-97665676D01*
X112554185Y-97828015D01*
X112556881Y-97949108D01*
X112559721Y-98025582D01*
X112562679Y-98054065D01*
X112583000Y-98083404D01*
X112620962Y-98145615D01*
X112666658Y-98225027D01*
X112748808Y-98371590D01*
X112642402Y-98438761D01*
X112605762Y-98463381D01*
X112561390Y-98499720D01*
X112550110Y-98520046D01*
X112550538Y-98520243D01*
X112582162Y-98526015D01*
X112661749Y-98538524D01*
X112786670Y-98557393D01*
X112954295Y-98582241D01*
X113161992Y-98612689D01*
X113407134Y-98648360D01*
X113687089Y-98688872D01*
X113999228Y-98733849D01*
X114340921Y-98782910D01*
X114709538Y-98835676D01*
X115102449Y-98891769D01*
X115517024Y-98950810D01*
X115950633Y-99012418D01*
X116400646Y-99076217D01*
X116864434Y-99141825D01*
X117060561Y-99169528D01*
X117635541Y-99250593D01*
X118161561Y-99324502D01*
X118640030Y-99391444D01*
X119072362Y-99451610D01*
X119459967Y-99505187D01*
X119804259Y-99552365D01*
X120106647Y-99593332D01*
X120368545Y-99628278D01*
X120591363Y-99657391D01*
X120776514Y-99680860D01*
X120925410Y-99698874D01*
X121039461Y-99711622D01*
X121120080Y-99719293D01*
X121168679Y-99722075D01*
X121186670Y-99720158D01*
X121194709Y-99714885D01*
X121242266Y-99687145D01*
X121264345Y-99674583D01*
X123222402Y-99674583D01*
X123225580Y-99677035D01*
X123265837Y-99687947D01*
X123345775Y-99703772D01*
X123457077Y-99723265D01*
X123591428Y-99745186D01*
X123740509Y-99768291D01*
X123896006Y-99791339D01*
X124049601Y-99813087D01*
X124192979Y-99832294D01*
X124317822Y-99847715D01*
X124415816Y-99858111D01*
X124478642Y-99862237D01*
X124507802Y-99859817D01*
X124591398Y-99836982D01*
X124676321Y-99797548D01*
X124788685Y-99731698D01*
X124839549Y-99831400D01*
X124890413Y-99931101D01*
X125643488Y-100038522D01*
X125698951Y-100046416D01*
X125887843Y-100073035D01*
X126059694Y-100096853D01*
X126207745Y-100116961D01*
X126325237Y-100132448D01*
X126405410Y-100142406D01*
X126441507Y-100145924D01*
X126450299Y-100144338D01*
X126459511Y-100135579D01*
X126467016Y-100115173D01*
X126472988Y-100078705D01*
X126477601Y-100021764D01*
X126481029Y-99939935D01*
X126483443Y-99828807D01*
X126485020Y-99683965D01*
X126485931Y-99500998D01*
X126486350Y-99275492D01*
X126486445Y-99018040D01*
X126794641Y-99018040D01*
X126794641Y-100196291D01*
X126852427Y-100209412D01*
X126867074Y-100211968D01*
X126929825Y-100221571D01*
X127036616Y-100237284D01*
X127183153Y-100258494D01*
X127365143Y-100284589D01*
X127578293Y-100314955D01*
X127818309Y-100348981D01*
X128080898Y-100386054D01*
X128361767Y-100425560D01*
X128656623Y-100466888D01*
X128832593Y-100491535D01*
X129119688Y-100531860D01*
X129390256Y-100570003D01*
X129640003Y-100605350D01*
X129864636Y-100637289D01*
X130059861Y-100665207D01*
X130221385Y-100688491D01*
X130344915Y-100706529D01*
X130426157Y-100718707D01*
X130460819Y-100724412D01*
X130518605Y-100737581D01*
X130518605Y-99322024D01*
X130724065Y-99322024D01*
X130724230Y-99510346D01*
X130725008Y-99766288D01*
X130726369Y-100003019D01*
X130728250Y-100215946D01*
X130730592Y-100400475D01*
X130733332Y-100552013D01*
X130736408Y-100665966D01*
X130739752Y-100737581D01*
X130739760Y-100737742D01*
X130743327Y-100762746D01*
X130756311Y-100764108D01*
X130812101Y-100771745D01*
X130899567Y-100784564D01*
X131006572Y-100800809D01*
X131062952Y-100809233D01*
X131173749Y-100824297D01*
X131265019Y-100834805D01*
X131321183Y-100838872D01*
X131391810Y-100839333D01*
X131391810Y-98603280D01*
X132320373Y-98603280D01*
X132320395Y-98806229D01*
X132320766Y-99034315D01*
X132321493Y-99282863D01*
X132322582Y-99547200D01*
X132328656Y-100839333D01*
X132329222Y-100959854D01*
X134372601Y-99853031D01*
X134385128Y-99846245D01*
X134684586Y-99683827D01*
X134970897Y-99528156D01*
X135240857Y-99380995D01*
X135491260Y-99244111D01*
X135718900Y-99119268D01*
X135920571Y-99008231D01*
X136093068Y-98912764D01*
X136233186Y-98834633D01*
X136337717Y-98775602D01*
X136403458Y-98737437D01*
X136427202Y-98721901D01*
X136404093Y-98715472D01*
X136334709Y-98702604D01*
X136223652Y-98683974D01*
X136075532Y-98660254D01*
X135894955Y-98632112D01*
X135686531Y-98600218D01*
X135454867Y-98565242D01*
X135204571Y-98527852D01*
X134940251Y-98488718D01*
X134666515Y-98448510D01*
X134387972Y-98407897D01*
X134109229Y-98367549D01*
X133834895Y-98328135D01*
X133569577Y-98290324D01*
X133317884Y-98254786D01*
X133084423Y-98222190D01*
X132873803Y-98193206D01*
X132690632Y-98168503D01*
X132539518Y-98148751D01*
X132425069Y-98134618D01*
X132351893Y-98126776D01*
X132324597Y-98125892D01*
X132323642Y-98136328D01*
X132322334Y-98191991D01*
X132321349Y-98291487D01*
X132320693Y-98430141D01*
X132320373Y-98603280D01*
X131391810Y-98603280D01*
X131391810Y-97989553D01*
X131334024Y-97977039D01*
X131327255Y-97975657D01*
X131266803Y-97965368D01*
X131175661Y-97951607D01*
X131070779Y-97936955D01*
X131052373Y-97934469D01*
X130945831Y-97919467D01*
X130853879Y-97905594D01*
X130794692Y-97895574D01*
X130724065Y-97881763D01*
X130724065Y-99322024D01*
X130518605Y-99322024D01*
X130518605Y-99298872D01*
X130518538Y-99111823D01*
X130518220Y-98855982D01*
X130517663Y-98619349D01*
X130516892Y-98406516D01*
X130515932Y-98222079D01*
X130514809Y-98070631D01*
X130513548Y-97956767D01*
X130512174Y-97885079D01*
X130510711Y-97860162D01*
X130492655Y-97857768D01*
X130428459Y-97848794D01*
X130322705Y-97833848D01*
X130180492Y-97813657D01*
X130006918Y-97788944D01*
X129807082Y-97760435D01*
X129586081Y-97728855D01*
X129349014Y-97694930D01*
X129153138Y-97667024D01*
X128928864Y-97635450D01*
X128724812Y-97607134D01*
X128546086Y-97582761D01*
X128490240Y-97575327D01*
X130724065Y-97575327D01*
X130807533Y-97589747D01*
X130932559Y-97610131D01*
X131061084Y-97628939D01*
X131180331Y-97644495D01*
X131279946Y-97655542D01*
X131349576Y-97660824D01*
X131378867Y-97659084D01*
X131381244Y-97653176D01*
X131386366Y-97607327D01*
X131389761Y-97526299D01*
X131391517Y-97420909D01*
X131391718Y-97303248D01*
X132321120Y-97303248D01*
X132321210Y-97467781D01*
X132322400Y-97607151D01*
X132324605Y-97714810D01*
X132327739Y-97784209D01*
X132331714Y-97808797D01*
X132347017Y-97810711D01*
X132409301Y-97819206D01*
X132515989Y-97834015D01*
X132663364Y-97854614D01*
X132847708Y-97880480D01*
X133065302Y-97911090D01*
X133312428Y-97945921D01*
X133585369Y-97984449D01*
X133880405Y-98026152D01*
X134193820Y-98070505D01*
X134521894Y-98116987D01*
X134763769Y-98151258D01*
X135081576Y-98196237D01*
X135382049Y-98238703D01*
X135661462Y-98278133D01*
X135916092Y-98314004D01*
X136142214Y-98345793D01*
X136336103Y-98372975D01*
X136494036Y-98395028D01*
X136612288Y-98411429D01*
X136687133Y-98421653D01*
X136714849Y-98425177D01*
X136716993Y-98411054D01*
X136719749Y-98349983D01*
X136722351Y-98244047D01*
X136724766Y-98096960D01*
X136726963Y-97912441D01*
X136728910Y-97694206D01*
X136730575Y-97445972D01*
X136731925Y-97171456D01*
X136732930Y-96874375D01*
X136733556Y-96558446D01*
X136733772Y-96227386D01*
X136733772Y-94029594D01*
X136419161Y-94196936D01*
X136394580Y-94210033D01*
X136305201Y-94257806D01*
X136176376Y-94326796D01*
X136012198Y-94414804D01*
X135816761Y-94519636D01*
X135594158Y-94639094D01*
X135348480Y-94770981D01*
X135083821Y-94913102D01*
X134804274Y-95063259D01*
X134513931Y-95219257D01*
X134216886Y-95378897D01*
X132329222Y-96393516D01*
X132322395Y-97101156D01*
X132322218Y-97120103D01*
X132321128Y-97301972D01*
X132321120Y-97303248D01*
X131391718Y-97303248D01*
X131391720Y-97301972D01*
X131390461Y-97180307D01*
X131387826Y-97066729D01*
X131383903Y-96972056D01*
X131378781Y-96907103D01*
X131372548Y-96882689D01*
X131371993Y-96882639D01*
X131337795Y-96878225D01*
X131263855Y-96868062D01*
X131160655Y-96853608D01*
X131038676Y-96836318D01*
X130724065Y-96791484D01*
X130724065Y-97575327D01*
X128490240Y-97575327D01*
X128397786Y-97563020D01*
X128285014Y-97548596D01*
X128212871Y-97540177D01*
X128186459Y-97538448D01*
X128186015Y-97539079D01*
X128191996Y-97567773D01*
X128215641Y-97620550D01*
X128258008Y-97736171D01*
X128274967Y-97887421D01*
X128269077Y-97937512D01*
X128257106Y-98039322D01*
X128206382Y-98177514D01*
X128124751Y-98287636D01*
X128074814Y-98332559D01*
X127991544Y-98389774D01*
X127905747Y-98417767D01*
X127796822Y-98425177D01*
X127789545Y-98425191D01*
X127714086Y-98428785D01*
X127678713Y-98441042D01*
X127673141Y-98465296D01*
X127666176Y-98488294D01*
X127616655Y-98535130D01*
X127522304Y-98594853D01*
X127363921Y-98684291D01*
X127272026Y-98522631D01*
X127269794Y-98518700D01*
X127224121Y-98434929D01*
X127202677Y-98383574D01*
X127202531Y-98353930D01*
X127220754Y-98335288D01*
X127260191Y-98310247D01*
X127305109Y-98275597D01*
X127317343Y-98242112D01*
X127299122Y-98194638D01*
X127252670Y-98118021D01*
X127213783Y-98051192D01*
X127182854Y-97977617D01*
X127166334Y-97895755D01*
X127158132Y-97784091D01*
X127156554Y-97730490D01*
X127351742Y-97730490D01*
X127359139Y-97857956D01*
X127403147Y-97980740D01*
X127481502Y-98088010D01*
X127591939Y-98168933D01*
X127697699Y-98210230D01*
X127791280Y-98213246D01*
X127891320Y-98178005D01*
X127948085Y-98142219D01*
X128026192Y-98051367D01*
X128066465Y-97937512D01*
X128066185Y-97810928D01*
X128022633Y-97681888D01*
X127977806Y-97607126D01*
X127904164Y-97530690D01*
X127808198Y-97484610D01*
X127676198Y-97460110D01*
X127593041Y-97452725D01*
X127534337Y-97455087D01*
X127493595Y-97471990D01*
X127453589Y-97507069D01*
X127383220Y-97609174D01*
X127351742Y-97730490D01*
X127156554Y-97730490D01*
X127156423Y-97726022D01*
X127163329Y-97591892D01*
X127188252Y-97494497D01*
X127204339Y-97456494D01*
X127213111Y-97424419D01*
X127202521Y-97403548D01*
X127164766Y-97388839D01*
X127092041Y-97375251D01*
X126976542Y-97357744D01*
X126863095Y-97340545D01*
X126918757Y-97434885D01*
X126932095Y-97458138D01*
X126962342Y-97517159D01*
X126974419Y-97551345D01*
X126972089Y-97557784D01*
X126940755Y-97589377D01*
X126884530Y-97629019D01*
X126794641Y-97684574D01*
X126794641Y-98117566D01*
X126795369Y-98227453D01*
X126798357Y-98358161D01*
X126803250Y-98463706D01*
X126809611Y-98535356D01*
X126817002Y-98564378D01*
X126817226Y-98564521D01*
X126841184Y-98592900D01*
X126881897Y-98652814D01*
X126930683Y-98731497D01*
X127022003Y-98884797D01*
X126908322Y-98951418D01*
X126820248Y-99003033D01*
X126794641Y-99018040D01*
X126486445Y-99018040D01*
X126486451Y-99003033D01*
X126486315Y-98823944D01*
X126485734Y-98599173D01*
X126484744Y-98394841D01*
X126483394Y-98216101D01*
X126481735Y-98068109D01*
X126479815Y-97956019D01*
X126477685Y-97884985D01*
X126475395Y-97860162D01*
X126460320Y-97866681D01*
X126404236Y-97895599D01*
X126311119Y-97945431D01*
X126185284Y-98013771D01*
X126031047Y-98098211D01*
X125852725Y-98196345D01*
X125654632Y-98305764D01*
X125441086Y-98424062D01*
X125216401Y-98548832D01*
X124984895Y-98677665D01*
X124750882Y-98808156D01*
X124518678Y-98937896D01*
X124292600Y-99064478D01*
X124076964Y-99185495D01*
X123876085Y-99298540D01*
X123694278Y-99401205D01*
X123535861Y-99491083D01*
X123405149Y-99565768D01*
X123306458Y-99622851D01*
X123244104Y-99659925D01*
X123222402Y-99674583D01*
X121264345Y-99674583D01*
X121329494Y-99637517D01*
X121452999Y-99567883D01*
X121609390Y-99480124D01*
X121795272Y-99376123D01*
X122007252Y-99257762D01*
X122241937Y-99126924D01*
X122495934Y-98985490D01*
X122765850Y-98835342D01*
X123048291Y-98678363D01*
X123339864Y-98516434D01*
X123637176Y-98351439D01*
X123936834Y-98185259D01*
X124235444Y-98019776D01*
X124529613Y-97856872D01*
X124815948Y-97698430D01*
X125091056Y-97546331D01*
X125351543Y-97402458D01*
X125594017Y-97268693D01*
X125815083Y-97146919D01*
X126011350Y-97039016D01*
X126179422Y-96946868D01*
X126315908Y-96872356D01*
X126417415Y-96817363D01*
X126480548Y-96783771D01*
X126520387Y-96768656D01*
X126549994Y-96782241D01*
X126583278Y-96834494D01*
X126597409Y-96861495D01*
X126612477Y-96890739D01*
X126628276Y-96916222D01*
X126648383Y-96938742D01*
X126676377Y-96959099D01*
X126715835Y-96978092D01*
X126770337Y-96996520D01*
X126843461Y-97015181D01*
X126938784Y-97034874D01*
X127059885Y-97056399D01*
X127210342Y-97080554D01*
X127393734Y-97108138D01*
X127613638Y-97139951D01*
X127873634Y-97176790D01*
X128177298Y-97219456D01*
X128528210Y-97268746D01*
X128767271Y-97302408D01*
X129059259Y-97343588D01*
X129334544Y-97382484D01*
X129588855Y-97418489D01*
X129817922Y-97450996D01*
X130017475Y-97479398D01*
X130183244Y-97503088D01*
X130310957Y-97521458D01*
X130396345Y-97533902D01*
X130435137Y-97539813D01*
X130518605Y-97554299D01*
X130518605Y-97155057D01*
X130518254Y-97073701D01*
X130516157Y-96947706D01*
X130512487Y-96846913D01*
X130507610Y-96780042D01*
X130501889Y-96755814D01*
X130478418Y-96752875D01*
X130406677Y-96743129D01*
X130289642Y-96726959D01*
X130130222Y-96704776D01*
X129931330Y-96676993D01*
X129695875Y-96644019D01*
X129426769Y-96606266D01*
X129126922Y-96564146D01*
X128799244Y-96518069D01*
X128446647Y-96468447D01*
X128072040Y-96415691D01*
X127678336Y-96360212D01*
X127268443Y-96302422D01*
X126845274Y-96242732D01*
X126411739Y-96181553D01*
X125970748Y-96119296D01*
X125525212Y-96056373D01*
X125078042Y-95993195D01*
X124632148Y-95930172D01*
X124190442Y-95867717D01*
X123755833Y-95806240D01*
X123331233Y-95746153D01*
X122919552Y-95687868D01*
X122523700Y-95631794D01*
X122146590Y-95578344D01*
X121791130Y-95527928D01*
X121460233Y-95480959D01*
X121156808Y-95437847D01*
X120883766Y-95399003D01*
X120644018Y-95364839D01*
X120440475Y-95335765D01*
X120276047Y-95312194D01*
X120153645Y-95294537D01*
X120076180Y-95283204D01*
X120046562Y-95278607D01*
X119988777Y-95265250D01*
X119988777Y-94522087D01*
X121453105Y-94522087D01*
X121458865Y-94523587D01*
X121507272Y-94531816D01*
X121602768Y-94546636D01*
X121742796Y-94567679D01*
X121924800Y-94594577D01*
X122146225Y-94626961D01*
X122404516Y-94664466D01*
X122697116Y-94706721D01*
X123021471Y-94753361D01*
X123375023Y-94804016D01*
X123755218Y-94858319D01*
X124159499Y-94915902D01*
X124585312Y-94976397D01*
X125030100Y-95039437D01*
X125491308Y-95104653D01*
X125966380Y-95171679D01*
X126192349Y-95203519D01*
X126661598Y-95269607D01*
X127115968Y-95333559D01*
X127552888Y-95395014D01*
X127969789Y-95453613D01*
X128364099Y-95508994D01*
X128733250Y-95560798D01*
X129074671Y-95608665D01*
X129385792Y-95652236D01*
X129664042Y-95691149D01*
X129906852Y-95725045D01*
X130111652Y-95753564D01*
X130275871Y-95776346D01*
X130396939Y-95793031D01*
X130472287Y-95803259D01*
X130499343Y-95806669D01*
X130503183Y-95798469D01*
X130509293Y-95748653D01*
X130514183Y-95661225D01*
X130517429Y-95544963D01*
X130518605Y-95408646D01*
X130518605Y-95011731D01*
X130435137Y-94997107D01*
X130428681Y-94996101D01*
X130376957Y-94988746D01*
X130278150Y-94975051D01*
X130135093Y-94955403D01*
X129950616Y-94930184D01*
X129727551Y-94899779D01*
X129468730Y-94864574D01*
X129176984Y-94824951D01*
X128855145Y-94781296D01*
X128506045Y-94733993D01*
X128132515Y-94683426D01*
X127737386Y-94629980D01*
X127323491Y-94574039D01*
X126893661Y-94515988D01*
X126450728Y-94456210D01*
X122549787Y-93929938D01*
X122001659Y-94219266D01*
X121893277Y-94276738D01*
X121751492Y-94352788D01*
X121630365Y-94418780D01*
X121536114Y-94471282D01*
X121474955Y-94506861D01*
X121453105Y-94522087D01*
X119988777Y-94522087D01*
X119988777Y-93964488D01*
X120917367Y-93964488D01*
X120919020Y-94093202D01*
X120926188Y-94442509D01*
X121131648Y-94332955D01*
X121143352Y-94326716D01*
X121250321Y-94269788D01*
X121384512Y-94198490D01*
X121529947Y-94121307D01*
X121670647Y-94046725D01*
X121770625Y-93993355D01*
X121868389Y-93939238D01*
X121929147Y-93901804D01*
X121957993Y-93877396D01*
X121960017Y-93862355D01*
X121940314Y-93853024D01*
X121934783Y-93851636D01*
X121874681Y-93840163D01*
X121780276Y-93825477D01*
X121661031Y-93808723D01*
X121526411Y-93791051D01*
X121385878Y-93773607D01*
X121330218Y-93767078D01*
X122919703Y-93767078D01*
X122920389Y-93777062D01*
X122932270Y-93782857D01*
X122935298Y-93783498D01*
X122979475Y-93790505D01*
X123071095Y-93803857D01*
X123207309Y-93823165D01*
X123385264Y-93848037D01*
X123488598Y-93862355D01*
X123602108Y-93878083D01*
X123854989Y-93912913D01*
X124141056Y-93952136D01*
X124457456Y-93995362D01*
X124801339Y-94042201D01*
X125169851Y-94092262D01*
X125560142Y-94145154D01*
X125969359Y-94200487D01*
X126394651Y-94257871D01*
X126833165Y-94316915D01*
X126936140Y-94330768D01*
X127370902Y-94389311D01*
X127791293Y-94446003D01*
X128194502Y-94500463D01*
X128577719Y-94552308D01*
X128938132Y-94601155D01*
X129272932Y-94646620D01*
X129579307Y-94688321D01*
X129854448Y-94725874D01*
X130095542Y-94758898D01*
X130299781Y-94787009D01*
X130464353Y-94809823D01*
X130586447Y-94826959D01*
X130663254Y-94838033D01*
X130691962Y-94842662D01*
X130696987Y-94846380D01*
X130707590Y-94874699D01*
X130715278Y-94934120D01*
X130720373Y-95029702D01*
X130723195Y-95166505D01*
X130724065Y-95349587D01*
X130724065Y-95845478D01*
X131423913Y-95943117D01*
X131425289Y-95943309D01*
X131613725Y-95969547D01*
X131789544Y-95993931D01*
X131945097Y-96015409D01*
X132072733Y-96032926D01*
X132164801Y-96045429D01*
X132213650Y-96051866D01*
X132221941Y-96052340D01*
X132244805Y-96049669D01*
X132276943Y-96040817D01*
X132321113Y-96024374D01*
X132380074Y-95998929D01*
X132456585Y-95963072D01*
X132553404Y-95915392D01*
X132673291Y-95854478D01*
X132819002Y-95778921D01*
X132993298Y-95687309D01*
X133198938Y-95578233D01*
X133438678Y-95450281D01*
X133715279Y-95302044D01*
X134031499Y-95132111D01*
X134390096Y-94939071D01*
X134481019Y-94890090D01*
X134828249Y-94702871D01*
X135133259Y-94538089D01*
X135398537Y-94394334D01*
X135626572Y-94270196D01*
X135819854Y-94164268D01*
X135980871Y-94075139D01*
X136112113Y-94001401D01*
X136216068Y-93941646D01*
X136295226Y-93894463D01*
X136352076Y-93858444D01*
X136389106Y-93832181D01*
X136408806Y-93814263D01*
X136413666Y-93803283D01*
X136406173Y-93797830D01*
X136383716Y-93794086D01*
X136311932Y-93783302D01*
X136193625Y-93766009D01*
X136031187Y-93742545D01*
X135827007Y-93713249D01*
X135583477Y-93678461D01*
X135302986Y-93638518D01*
X134987926Y-93593761D01*
X134640686Y-93544528D01*
X134263658Y-93491157D01*
X133859232Y-93433988D01*
X133429797Y-93373360D01*
X132977746Y-93309611D01*
X132505468Y-93243080D01*
X132015354Y-93174107D01*
X131509795Y-93103029D01*
X130991180Y-93030187D01*
X125646668Y-92279880D01*
X124252369Y-93021696D01*
X124203889Y-93047492D01*
X123923798Y-93196705D01*
X123685598Y-93324030D01*
X123486218Y-93431238D01*
X123322589Y-93520099D01*
X123191642Y-93592382D01*
X123090307Y-93649858D01*
X123015515Y-93694296D01*
X122964197Y-93727465D01*
X122933283Y-93751136D01*
X122919703Y-93767078D01*
X121330218Y-93767078D01*
X121248897Y-93757539D01*
X121124931Y-93743996D01*
X121023443Y-93734124D01*
X120953899Y-93729072D01*
X120925760Y-93729987D01*
X120924379Y-93733221D01*
X120920229Y-93774679D01*
X120917831Y-93855041D01*
X120917367Y-93964488D01*
X119988777Y-93964488D01*
X119988777Y-93583720D01*
X116296916Y-93085397D01*
X115875682Y-93028493D01*
X115459308Y-92972151D01*
X115059491Y-92917956D01*
X114679094Y-92866299D01*
X114320980Y-92817574D01*
X113988010Y-92772170D01*
X113683047Y-92730481D01*
X113408955Y-92692897D01*
X113168594Y-92659812D01*
X112964827Y-92631617D01*
X112800517Y-92608704D01*
X112678527Y-92591464D01*
X112601718Y-92580289D01*
X112572953Y-92575572D01*
X112568907Y-92579358D01*
X112564068Y-92601866D01*
X112559780Y-92646541D01*
X112556016Y-92715817D01*
X112552747Y-92812126D01*
X112549944Y-92937901D01*
X112547578Y-93095575D01*
X112545621Y-93287583D01*
X112544043Y-93516356D01*
X112542817Y-93784328D01*
X112541913Y-94093932D01*
X112541303Y-94447601D01*
X112540958Y-94847769D01*
X112540849Y-95296868D01*
X112361072Y-95296868D01*
X112361072Y-92357425D01*
X112470223Y-92371617D01*
X112505539Y-92376340D01*
X112589428Y-92387654D01*
X112718459Y-92405097D01*
X112889693Y-92428269D01*
X113100191Y-92456774D01*
X113347013Y-92490213D01*
X113627222Y-92528187D01*
X113937876Y-92570298D01*
X114276039Y-92616147D01*
X114638769Y-92665336D01*
X115023129Y-92717468D01*
X115426179Y-92772142D01*
X115844980Y-92828962D01*
X116276593Y-92887529D01*
X116277419Y-92887641D01*
X116707000Y-92945880D01*
X117122526Y-93002105D01*
X117521164Y-93055938D01*
X117900079Y-93107000D01*
X118256438Y-93154913D01*
X118587407Y-93199299D01*
X118890151Y-93239780D01*
X119161838Y-93275977D01*
X119399633Y-93307512D01*
X119600703Y-93334006D01*
X119762212Y-93355082D01*
X119881328Y-93370361D01*
X119955217Y-93379465D01*
X119981045Y-93382016D01*
X119981291Y-93380396D01*
X119982336Y-93342847D01*
X119983349Y-93258331D01*
X119984317Y-93130418D01*
X119985229Y-92962677D01*
X119986073Y-92758679D01*
X119986836Y-92521993D01*
X119987507Y-92256190D01*
X119988075Y-91964840D01*
X119988527Y-91651513D01*
X119988809Y-91362487D01*
X120913347Y-91362487D01*
X120913442Y-91576835D01*
X120913945Y-91895356D01*
X120914852Y-92196276D01*
X120916129Y-92475844D01*
X120917742Y-92730309D01*
X120919658Y-92955918D01*
X120921843Y-93148920D01*
X120924265Y-93305564D01*
X120926888Y-93422098D01*
X120929681Y-93494771D01*
X120932609Y-93519830D01*
X120956077Y-93522423D01*
X121024593Y-93531176D01*
X121130899Y-93545211D01*
X121268017Y-93563598D01*
X121428969Y-93585407D01*
X121606775Y-93609707D01*
X121761038Y-93630677D01*
X121927129Y-93652779D01*
X122071338Y-93671456D01*
X122186418Y-93685788D01*
X122265122Y-93694855D01*
X122300202Y-93697738D01*
X122320959Y-93688691D01*
X122383304Y-93657710D01*
X122482436Y-93607025D01*
X122613794Y-93539048D01*
X122772819Y-93456194D01*
X122954951Y-93360874D01*
X123155629Y-93255503D01*
X123370295Y-93142494D01*
X123594388Y-93024260D01*
X123823349Y-92903215D01*
X124052618Y-92781771D01*
X124277635Y-92662342D01*
X124493841Y-92547342D01*
X124696675Y-92439183D01*
X124881578Y-92340279D01*
X125043990Y-92253043D01*
X125179352Y-92179888D01*
X125283103Y-92123228D01*
X125350683Y-92085476D01*
X125377534Y-92069045D01*
X125378899Y-92055650D01*
X125380089Y-91996336D01*
X125380366Y-91894531D01*
X125379767Y-91755494D01*
X125378330Y-91584483D01*
X125376093Y-91386754D01*
X125373093Y-91167568D01*
X125369368Y-90932180D01*
X125355678Y-90119995D01*
X125665467Y-90119995D01*
X125666338Y-90254558D01*
X125668573Y-90426836D01*
X125672046Y-90641376D01*
X125676629Y-90902724D01*
X125678608Y-91012132D01*
X125682806Y-91233381D01*
X125686904Y-91435587D01*
X125690777Y-91613365D01*
X125694300Y-91761329D01*
X125697348Y-91874093D01*
X125698041Y-91894531D01*
X125699795Y-91946271D01*
X125701516Y-91972477D01*
X125704421Y-91973060D01*
X125746217Y-91979460D01*
X125835844Y-91992569D01*
X125971015Y-92012064D01*
X126149445Y-92037622D01*
X126368848Y-92068918D01*
X126626937Y-92105629D01*
X126921426Y-92147431D01*
X127250030Y-92194001D01*
X127610461Y-92245015D01*
X128000434Y-92300150D01*
X128417663Y-92359082D01*
X128859862Y-92421486D01*
X129324744Y-92487040D01*
X129810023Y-92555421D01*
X130313413Y-92626303D01*
X130832628Y-92699364D01*
X131365382Y-92774280D01*
X131541213Y-92799000D01*
X132069799Y-92873351D01*
X132584104Y-92945747D01*
X133081840Y-93015864D01*
X133560722Y-93083379D01*
X134018463Y-93147967D01*
X134452776Y-93209304D01*
X134861374Y-93267067D01*
X135241972Y-93320932D01*
X135592282Y-93370574D01*
X135910018Y-93415670D01*
X136192893Y-93455895D01*
X136438621Y-93490926D01*
X136644915Y-93520439D01*
X136809489Y-93544109D01*
X136930056Y-93561614D01*
X137004330Y-93572628D01*
X137030023Y-93576828D01*
X137030202Y-93577035D01*
X137033230Y-93586461D01*
X137035903Y-93608577D01*
X137038235Y-93646146D01*
X137040241Y-93701931D01*
X137041939Y-93778693D01*
X137042282Y-93803283D01*
X137043342Y-93879195D01*
X137044466Y-94006200D01*
X137044595Y-94029594D01*
X137045327Y-94162470D01*
X137045940Y-94350768D01*
X137046320Y-94573856D01*
X137046484Y-94834497D01*
X137046446Y-95135452D01*
X137046221Y-95479485D01*
X137045826Y-95869358D01*
X137045276Y-96307833D01*
X137042033Y-98721901D01*
X137041962Y-98774817D01*
X136979156Y-98799036D01*
X136962398Y-98807168D01*
X136902067Y-98838524D01*
X136801841Y-98891554D01*
X136664823Y-98964590D01*
X136494117Y-99055963D01*
X136292829Y-99164004D01*
X136064061Y-99287046D01*
X135810919Y-99423419D01*
X135536506Y-99571455D01*
X135243928Y-99729486D01*
X134936287Y-99895843D01*
X134616689Y-100068858D01*
X132317026Y-101314459D01*
X132316703Y-101616229D01*
X132316615Y-101657273D01*
X132315266Y-101773634D01*
X132311339Y-101849440D01*
X132303570Y-101893125D01*
X132290690Y-101913124D01*
X132271436Y-101917874D01*
X132268350Y-101917745D01*
X132223418Y-101913003D01*
X132135791Y-101902102D01*
X132012350Y-101885954D01*
X131859978Y-101865471D01*
X131685556Y-101841564D01*
X131495967Y-101815144D01*
X131455830Y-101809511D01*
X131270615Y-101783633D01*
X131103288Y-101760441D01*
X130960445Y-101740834D01*
X130848678Y-101725715D01*
X130774583Y-101715982D01*
X130744754Y-101712538D01*
X130741410Y-101723654D01*
X130736721Y-101779247D01*
X130732556Y-101876218D01*
X130729061Y-102008573D01*
X130726383Y-102170320D01*
X130724669Y-102355467D01*
X130724065Y-102558020D01*
X130724065Y-103403502D01*
X130794692Y-103417743D01*
X130809165Y-103420120D01*
X130872132Y-103429570D01*
X130980799Y-103445468D01*
X131131935Y-103467351D01*
X131322310Y-103494757D01*
X131548692Y-103527225D01*
X131807850Y-103564293D01*
X132096554Y-103605498D01*
X132411572Y-103650379D01*
X132749674Y-103698475D01*
X133107629Y-103749322D01*
X133482205Y-103802459D01*
X133870172Y-103857425D01*
X134101122Y-103890127D01*
X134481962Y-103944069D01*
X134847681Y-103995888D01*
X135195031Y-104045122D01*
X135520762Y-104091310D01*
X135821627Y-104133992D01*
X136094376Y-104172706D01*
X136335760Y-104206991D01*
X136542530Y-104236385D01*
X136711437Y-104260427D01*
X136839233Y-104278657D01*
X136922668Y-104290613D01*
X136958494Y-104295833D01*
X137041962Y-104308799D01*
X137041962Y-109545703D01*
X136982447Y-109545703D01*
X136965089Y-109552005D01*
X136904462Y-109581040D01*
X136804204Y-109632159D01*
X136667391Y-109703707D01*
X136497100Y-109794030D01*
X136296407Y-109901474D01*
X136068388Y-110024383D01*
X135816119Y-110161103D01*
X135542678Y-110309980D01*
X135251139Y-110469360D01*
X134944580Y-110637587D01*
X134626077Y-110813007D01*
X132329222Y-112080311D01*
X132321964Y-112350795D01*
X132314707Y-112621279D01*
X132167869Y-112609756D01*
X132131272Y-112606255D01*
X132037109Y-112595456D01*
X131906976Y-112579276D01*
X131750017Y-112558889D01*
X131575375Y-112535469D01*
X131392194Y-112510189D01*
X131260628Y-112491868D01*
X131096914Y-112469368D01*
X130954756Y-112450170D01*
X130841478Y-112435250D01*
X130764408Y-112425583D01*
X130730869Y-112422144D01*
X130726950Y-112424060D01*
X130719277Y-112443569D01*
X130713015Y-112487283D01*
X130708045Y-112559082D01*
X130704248Y-112662845D01*
X130701502Y-112802451D01*
X130699689Y-112981780D01*
X130698689Y-113204712D01*
X130698382Y-113475126D01*
X130698402Y-113522574D01*
X130699154Y-113762809D01*
X130700923Y-113978221D01*
X130703612Y-114164385D01*
X130707123Y-114316880D01*
X130711358Y-114431281D01*
X130716220Y-114503165D01*
X130716272Y-114503405D01*
X130721612Y-114528109D01*
X130744071Y-114531005D01*
X130814806Y-114540855D01*
X130930943Y-114557287D01*
X131089614Y-114579890D01*
X131287951Y-114608250D01*
X131523086Y-114641957D01*
X131792151Y-114680597D01*
X132092279Y-114723759D01*
X132420601Y-114771030D01*
X132774251Y-114821998D01*
X133150359Y-114876252D01*
X133546059Y-114933378D01*
X133958482Y-114992965D01*
X134384760Y-115054601D01*
X134760660Y-115108925D01*
X135176056Y-115168847D01*
X135575504Y-115226351D01*
X135956098Y-115281025D01*
X136314931Y-115332454D01*
X136649095Y-115380226D01*
X136955684Y-115423926D01*
X137231790Y-115463142D01*
X137474506Y-115497459D01*
X137680925Y-115526464D01*
X137848141Y-115549743D01*
X137973246Y-115566884D01*
X138053332Y-115577471D01*
X138085494Y-115581092D01*
X138146310Y-115581092D01*
X138146199Y-103580940D01*
X138146165Y-99902247D01*
X139096423Y-99902247D01*
X139102913Y-104556445D01*
X139109404Y-109210643D01*
X139379070Y-109054490D01*
X139473469Y-108999810D01*
X139603207Y-108924610D01*
X139723032Y-108855106D01*
X139815673Y-108801316D01*
X139852052Y-108780187D01*
X139958970Y-108718191D01*
X140089027Y-108642879D01*
X140234714Y-108558590D01*
X140388519Y-108469663D01*
X140542933Y-108380436D01*
X140690446Y-108295249D01*
X140823547Y-108218441D01*
X140934725Y-108154351D01*
X141016471Y-108107318D01*
X141061274Y-108081681D01*
X141106776Y-108055780D01*
X141203287Y-108000500D01*
X141330822Y-107927204D01*
X141483086Y-107839529D01*
X141653785Y-107741113D01*
X141836624Y-107635594D01*
X142025309Y-107526610D01*
X142213545Y-107417797D01*
X142395037Y-107312794D01*
X142563492Y-107215238D01*
X142712615Y-107128767D01*
X142836110Y-107057018D01*
X142927684Y-107003630D01*
X142981042Y-106972240D01*
X143154398Y-106868829D01*
X143154398Y-101968342D01*
X143024946Y-101763276D01*
X143089672Y-101733784D01*
X143154398Y-101704293D01*
X143154484Y-100032632D01*
X143154490Y-99996798D01*
X143154831Y-99694984D01*
X143155664Y-99398529D01*
X143156942Y-99113185D01*
X143158619Y-98844702D01*
X143160648Y-98598830D01*
X143162981Y-98381320D01*
X143165574Y-98197923D01*
X143168377Y-98054390D01*
X143171346Y-97956471D01*
X143173097Y-97912426D01*
X143177648Y-97751585D01*
X143177166Y-97639292D01*
X143171597Y-97573453D01*
X143160887Y-97551972D01*
X143154886Y-97552617D01*
X143133462Y-97559711D01*
X143097075Y-97576815D01*
X143040857Y-97606628D01*
X142959937Y-97651849D01*
X142849446Y-97715176D01*
X142704513Y-97799306D01*
X142520271Y-97906939D01*
X142435166Y-97956630D01*
X142283418Y-98044891D01*
X142112744Y-98143856D01*
X141938358Y-98244704D01*
X141775478Y-98338618D01*
X141483624Y-98506660D01*
X141212320Y-98663078D01*
X140968646Y-98803819D01*
X140743910Y-98933911D01*
X140529419Y-99058379D01*
X140316481Y-99182248D01*
X140269180Y-99209764D01*
X140096316Y-99309929D01*
X139908862Y-99418067D01*
X139726455Y-99522867D01*
X139568732Y-99613016D01*
X139491967Y-99656949D01*
X139371249Y-99726966D01*
X139268219Y-99787858D01*
X139191902Y-99834268D01*
X139151321Y-99860837D01*
X139096423Y-99902247D01*
X138146165Y-99902247D01*
X138146128Y-95844616D01*
X139097275Y-95844616D01*
X139097284Y-96289635D01*
X139097369Y-96718707D01*
X139097527Y-97129108D01*
X139097754Y-97518113D01*
X139098047Y-97882997D01*
X139098400Y-98221037D01*
X139098811Y-98529507D01*
X139099276Y-98805683D01*
X139099791Y-99046841D01*
X139100352Y-99250256D01*
X139100955Y-99413204D01*
X139101598Y-99532961D01*
X139102275Y-99606801D01*
X139102983Y-99632001D01*
X139105036Y-99631265D01*
X139123156Y-99621788D01*
X139162703Y-99599636D01*
X139227501Y-99562611D01*
X139321373Y-99508509D01*
X139448144Y-99435131D01*
X139611635Y-99340275D01*
X139815673Y-99221741D01*
X139823446Y-99217223D01*
X139933318Y-99153467D01*
X140067109Y-99075962D01*
X140217224Y-98989095D01*
X140376065Y-98897255D01*
X140536036Y-98804828D01*
X140689541Y-98716203D01*
X140828982Y-98635767D01*
X140946762Y-98567908D01*
X141035286Y-98517013D01*
X141086957Y-98487471D01*
X141122628Y-98467210D01*
X141235574Y-98402693D01*
X141376256Y-98321952D01*
X141538655Y-98228475D01*
X141716748Y-98125750D01*
X141904515Y-98017265D01*
X142095935Y-97906507D01*
X142284988Y-97796964D01*
X142465651Y-97692124D01*
X142631905Y-97595474D01*
X142777729Y-97510503D01*
X142897101Y-97440697D01*
X142984000Y-97389546D01*
X143032407Y-97360535D01*
X143180081Y-97269290D01*
X143180081Y-89331226D01*
X142672069Y-89595643D01*
X142655756Y-89604133D01*
X142535244Y-89666823D01*
X142375654Y-89749801D01*
X142182542Y-89850181D01*
X141961464Y-89965076D01*
X141717977Y-90091598D01*
X141457637Y-90226861D01*
X141186000Y-90367977D01*
X140908623Y-90512058D01*
X140631060Y-90656218D01*
X139098063Y-91452376D01*
X139097313Y-95542316D01*
X139097275Y-95844616D01*
X138146128Y-95844616D01*
X138146089Y-91580789D01*
X131950294Y-90722215D01*
X131884523Y-90713100D01*
X131327484Y-90635882D01*
X130783836Y-90560478D01*
X130255783Y-90487194D01*
X129745532Y-90416338D01*
X129255288Y-90348219D01*
X128787255Y-90283142D01*
X128343640Y-90221417D01*
X127926647Y-90163349D01*
X127538481Y-90109248D01*
X127181348Y-90059419D01*
X126857454Y-90014172D01*
X126569003Y-89973813D01*
X126318200Y-89938649D01*
X126107251Y-89908989D01*
X125938362Y-89885140D01*
X125813737Y-89867409D01*
X125735581Y-89856103D01*
X125706101Y-89851531D01*
X125696053Y-89849981D01*
X125686055Y-89853746D01*
X125678187Y-89867944D01*
X125672322Y-89897120D01*
X125668332Y-89945823D01*
X125666090Y-90018599D01*
X125665467Y-90119995D01*
X125355678Y-90119995D01*
X125350388Y-89806130D01*
X123176812Y-89505050D01*
X122940152Y-89472309D01*
X122620943Y-89428278D01*
X122318531Y-89386715D01*
X122036703Y-89348132D01*
X121779244Y-89313041D01*
X121549941Y-89281956D01*
X121352580Y-89255389D01*
X121190949Y-89233854D01*
X121068833Y-89217862D01*
X120990018Y-89207928D01*
X120958291Y-89204564D01*
X120950571Y-89206644D01*
X120943555Y-89215035D01*
X120937478Y-89232951D01*
X120932272Y-89263613D01*
X120927870Y-89310237D01*
X120924206Y-89376043D01*
X120921212Y-89464249D01*
X120918821Y-89578073D01*
X120916966Y-89720733D01*
X120915581Y-89895448D01*
X120914598Y-90105436D01*
X120913950Y-90353916D01*
X120913570Y-90644105D01*
X120913392Y-90979223D01*
X120913347Y-91362487D01*
X119988809Y-91362487D01*
X119988851Y-91319778D01*
X119989036Y-90973206D01*
X119989795Y-88571630D01*
X120249077Y-88427962D01*
X122227539Y-88427962D01*
X122251705Y-88431516D01*
X122323168Y-88441609D01*
X122436946Y-88457515D01*
X122588451Y-88478597D01*
X122773094Y-88504218D01*
X122986285Y-88533742D01*
X123223436Y-88566531D01*
X123479959Y-88601951D01*
X123751264Y-88639363D01*
X123983898Y-88671444D01*
X124244354Y-88707415D01*
X124486719Y-88740946D01*
X124706308Y-88771384D01*
X124898435Y-88798079D01*
X125058417Y-88820379D01*
X125181567Y-88837633D01*
X125263202Y-88849191D01*
X125298635Y-88854401D01*
X125356421Y-88864161D01*
X125356421Y-87776216D01*
X125356301Y-87644704D01*
X125355530Y-87422654D01*
X125354111Y-87220271D01*
X125353806Y-87193075D01*
X125668650Y-87193075D01*
X125669370Y-87428610D01*
X125670780Y-87711191D01*
X125677212Y-88864161D01*
X125677452Y-88907180D01*
X131995349Y-89784169D01*
X132150985Y-89805773D01*
X132712644Y-89883737D01*
X133261066Y-89959862D01*
X133794036Y-90033843D01*
X134309340Y-90105371D01*
X134804765Y-90174140D01*
X135278096Y-90239841D01*
X135727120Y-90302168D01*
X136149621Y-90360813D01*
X136543386Y-90415468D01*
X136906200Y-90465828D01*
X137235851Y-90511583D01*
X137530123Y-90552428D01*
X137786802Y-90588054D01*
X138003675Y-90618154D01*
X138178527Y-90642422D01*
X138309144Y-90660549D01*
X138393312Y-90672228D01*
X138428817Y-90677152D01*
X138435540Y-90678044D01*
X138457351Y-90679848D01*
X138481319Y-90678806D01*
X138510542Y-90673420D01*
X138548117Y-90662193D01*
X138597140Y-90643627D01*
X138660708Y-90616226D01*
X138741919Y-90578491D01*
X138843868Y-90528927D01*
X138969654Y-90466036D01*
X139122373Y-90388320D01*
X139305121Y-90294283D01*
X139520996Y-90182426D01*
X139773095Y-90051254D01*
X140064514Y-89899268D01*
X140398351Y-89724971D01*
X140539013Y-89651496D01*
X140818848Y-89505201D01*
X141083442Y-89366715D01*
X141329430Y-89237808D01*
X141553444Y-89120252D01*
X141752116Y-89015817D01*
X141922079Y-88926275D01*
X142059965Y-88853396D01*
X142162407Y-88798952D01*
X142226039Y-88764713D01*
X142247492Y-88752450D01*
X142225690Y-88749149D01*
X142154881Y-88739007D01*
X142036837Y-88722295D01*
X141873452Y-88699277D01*
X141666616Y-88670217D01*
X141418224Y-88635379D01*
X141130168Y-88595028D01*
X140804339Y-88549429D01*
X140442630Y-88498845D01*
X140046935Y-88443541D01*
X139619145Y-88383781D01*
X139161153Y-88319830D01*
X138674851Y-88251952D01*
X138162133Y-88180412D01*
X137624889Y-88105473D01*
X137065013Y-88027401D01*
X136484398Y-87946459D01*
X135884936Y-87862912D01*
X135268518Y-87777024D01*
X134637039Y-87689060D01*
X133992390Y-87599284D01*
X133341401Y-87508660D01*
X132592544Y-87404479D01*
X131891884Y-87307090D01*
X131237954Y-87216293D01*
X130629287Y-87131893D01*
X130064417Y-87053690D01*
X129541878Y-86981488D01*
X129060204Y-86915090D01*
X128617928Y-86854297D01*
X128213584Y-86798913D01*
X127845705Y-86748739D01*
X127512825Y-86703578D01*
X127213478Y-86663233D01*
X126946197Y-86627507D01*
X126709516Y-86596201D01*
X126501969Y-86569118D01*
X126322089Y-86546061D01*
X126168410Y-86526832D01*
X126039465Y-86511234D01*
X125933789Y-86499070D01*
X125849915Y-86490141D01*
X125786376Y-86484250D01*
X125741706Y-86481200D01*
X125714439Y-86480794D01*
X125703109Y-86482833D01*
X125701315Y-86484471D01*
X125692436Y-86499031D01*
X125685154Y-86526105D01*
X125679356Y-86570011D01*
X125674928Y-86635063D01*
X125671757Y-86725580D01*
X125669730Y-86845877D01*
X125668732Y-87000270D01*
X125668650Y-87193075D01*
X125353806Y-87193075D01*
X125352124Y-87042839D01*
X125349648Y-86895640D01*
X125346763Y-86783957D01*
X125343548Y-86713073D01*
X125340082Y-86688271D01*
X125333164Y-86690703D01*
X125287841Y-86713045D01*
X125204845Y-86756766D01*
X125088525Y-86819436D01*
X124943231Y-86898622D01*
X124773312Y-86991893D01*
X124583120Y-87096819D01*
X124377003Y-87210967D01*
X124159312Y-87331907D01*
X123934396Y-87457208D01*
X123706605Y-87584437D01*
X123480288Y-87711165D01*
X123259797Y-87834959D01*
X123049480Y-87953389D01*
X122853688Y-88064023D01*
X122676770Y-88164429D01*
X122523076Y-88252177D01*
X122396957Y-88324836D01*
X122302760Y-88379974D01*
X122244838Y-88415160D01*
X122227539Y-88427962D01*
X120249077Y-88427962D01*
X122778156Y-87026599D01*
X125566517Y-85481569D01*
X134863351Y-86776152D01*
X135008236Y-86796328D01*
X135690380Y-86891345D01*
X136359105Y-86984532D01*
X137012626Y-87075640D01*
X137649161Y-87164418D01*
X138266925Y-87250617D01*
X138864135Y-87333987D01*
X139439008Y-87414279D01*
X139989759Y-87491242D01*
X140514605Y-87564627D01*
X141011763Y-87634184D01*
X141479449Y-87699663D01*
X141915879Y-87760814D01*
X142319270Y-87817388D01*
X142687838Y-87869134D01*
X143019799Y-87915804D01*
X143313370Y-87957146D01*
X143566768Y-87992913D01*
X143778208Y-88022852D01*
X143945907Y-88046716D01*
X144068081Y-88064253D01*
X144142948Y-88075215D01*
X144168723Y-88079351D01*
X144169465Y-88100107D01*
X144164862Y-88162649D01*
X144155309Y-88256322D01*
X144141791Y-88370475D01*
X144138698Y-88399584D01*
X144135031Y-88448230D01*
X144131636Y-88511727D01*
X144128503Y-88591900D01*
X144125623Y-88690577D01*
X144124251Y-88752450D01*
X144122984Y-88809581D01*
X144120578Y-88950739D01*
X144118393Y-89115876D01*
X144116420Y-89306819D01*
X144116222Y-89331226D01*
X144114649Y-89525393D01*
X144113070Y-89773423D01*
G37*
%TD*%
M02*
