M48
; DRILL file {KiCad (6.99.0-4059-gb058ef2d87)} date Tuesday, November 01, 2022 at 12:36:02 PM
; FORMAT={-:-/ absolute / inch / decimal}
; #@! TF.CreationDate,2022-11-01T12:36:02-04:00
; #@! TF.GenerationSoftware,Kicad,Pcbnew,(6.99.0-4059-gb058ef2d87)
; #@! TF.FileFunction,MixedPlating,1,2
FMAT,2
INCH
; #@! TA.AperFunction,Plated,PTH,ComponentDrill
T1C0.0079
; #@! TA.AperFunction,Plated,PTH,ViaDrill
T2C0.0118
; #@! TA.AperFunction,Plated,PTH,ViaDrill
T3C0.0157
; #@! TA.AperFunction,Plated,PTH,ComponentDrill
T4C0.0236
; #@! TA.AperFunction,Plated,PTH,ComponentDrill
T5C0.0315
; #@! TA.AperFunction,Plated,PTH,ComponentDrill
T6C0.0354
; #@! TA.AperFunction,Plated,PTH,ComponentDrill
T7C0.0394
; #@! TA.AperFunction,Plated,PTH,ComponentDrill
T8C0.0433
; #@! TA.AperFunction,Plated,PTH,ComponentDrill
T9C0.0591
; #@! TA.AperFunction,NonPlated,NPTH,ComponentDrill
T10C0.0256
; #@! TA.AperFunction,NonPlated,NPTH,ComponentDrill
T11C0.0669
; #@! TA.AperFunction,NonPlated,NPTH,ComponentDrill
T12C0.1575
%
G90
G05
T1
X4.9569Y-2.7869
X4.9569Y-2.8931
X5.0631Y-2.7869
X5.0631Y-2.8931
T2
X4.69Y-2.259
X4.694Y-2.332
X4.758Y-2.542
X4.7733Y-2.498
X4.775Y-2.218
X4.8307Y-2.189
X4.9449Y-2.7441
X4.953Y-2.372
X5.0276Y-2.7323
X5.07Y-2.37
X5.0849Y-3.0661
X5.0888Y-2.634
X5.1024Y-2.8189
X5.1024Y-2.937
X5.1093Y-3.0403
X5.136Y-2.588
X5.165Y-2.412
X5.199Y-2.414
X5.2323Y-2.7402
X5.2638Y-2.752
X5.2953Y-2.7613
X5.2953Y-2.7928
X5.4252Y-5.4921
X5.437Y-4.7441
T3
X4.0787Y-4.2362
X4.0945Y-4.5866
X4.1063Y-3.5472
X4.1063Y-5.122
X4.1142Y-3.0472
X4.3937Y-2.6811
X4.4094Y-3.2165
X4.4921Y-2.2323
X4.5118Y-2.815
X4.5197Y-2.9488
X4.7165Y-2.1378
X4.748Y-3.0748
X4.752Y-5.3661
X4.7677Y-4.0866
X4.7795Y-2.9449
X4.7835Y-4.3858
X4.7874Y-5.063
X4.8189Y-3.5551
X4.8189Y-4.7323
X4.8228Y-2.6614
X4.8583Y-2.689
X4.874Y-3.8268
X4.9882Y-2.0669
X5.1024Y-2.7441
X5.1614Y-2.689
X5.252Y-3.248
X5.2913Y-3.0472
X5.4961Y-2.5906
X5.5787Y-5.437
X5.5866Y-2.7913
X5.5945Y-4.3858
X5.5945Y-5.1969
X5.5984Y-4.6417
X5.6063Y-3.8819
X5.6063Y-4.1102
X5.6063Y-4.8976
X5.622Y-3.4567
X5.689Y-3.0433
X5.7087Y-2.0748
X5.7126Y-2.4843
X5.7165Y-3.2323
X5.7835Y-2.8189
X5.7987Y-2.1619
X5.8622Y-2.7756
X5.874Y-2.0236
X6.0984Y-2.1535
X6.126Y-2.4646
X6.1339Y-2.7756
X6.2165Y-2.0551
X6.2165Y-2.9764
X6.2598Y-3.4409
X6.2677Y-4.9724
X6.2992Y-4.5118
X6.315Y-4.1772
X6.3228Y-5.3189
X6.3307Y-3.878
T5
X4.2402Y-2.7835
X4.2402Y-2.9756
X4.3905Y-5.48
X4.4005Y-3.98
X4.4005Y-4.73
X4.6905Y-5.48
X4.7005Y-3.98
X4.7005Y-4.73
X5.1405Y-4.73
X5.1405Y-5.48
X5.1505Y-3.98
X5.4405Y-4.73
X5.4405Y-5.48
X5.4505Y-3.98
X5.9055Y-3.98
X5.9105Y-4.73
X5.9205Y-5.48
X6.2055Y-3.98
X6.2105Y-4.73
X6.2205Y-5.48
T6
X6.1802Y-3.105
X6.2802Y-3.105
T7
X4.1563Y-2.4088
X4.2205Y-2.3322
X4.2848Y-2.2556
X4.3491Y-2.179
X4.4134Y-2.1024
X4.5346Y-3.1575
X4.6346Y-3.1575
X4.7346Y-3.1575
X4.8346Y-3.1575
T8
X5.41Y-2.065
X5.41Y-2.465
X5.992Y-2.3614
X5.992Y-2.5386
X5.992Y-2.6714
X5.992Y-2.8486
X6.248Y-2.3614
X6.248Y-2.5386
X6.248Y-2.6714
X6.248Y-2.8486
T9
X4.2966Y-3.5425
X4.2966Y-4.29
X4.2966Y-5.04
X4.5466Y-3.4425
X4.5466Y-4.19
X4.5466Y-4.94
X5.045Y-3.5425
X5.045Y-4.29
X5.046Y-5.04
X5.295Y-3.4425
X5.295Y-4.19
X5.296Y-4.94
X5.795Y-3.5425
X5.795Y-4.29
X5.796Y-5.04
X6.045Y-3.4425
X6.045Y-4.19
X6.046Y-4.94
T10
X4.9062Y-2.2603
X5.1338Y-2.2603
T11
X4.2466Y-3.6425
X4.2466Y-4.39
X4.2466Y-5.14
X4.6466Y-3.6425
X4.6466Y-4.39
X4.6466Y-5.14
X4.995Y-3.6425
X4.995Y-4.39
X4.996Y-5.14
X5.395Y-3.6425
X5.395Y-4.39
X5.396Y-5.14
X5.745Y-3.6425
X5.745Y-4.39
X5.746Y-5.14
X6.145Y-3.6425
X6.145Y-4.39
X6.146Y-5.14
T12
X4.4466Y-3.6425
X4.4466Y-4.39
X4.4466Y-5.14
X5.195Y-3.6425
X5.195Y-4.39
X5.196Y-5.14
X5.945Y-3.6425
X5.945Y-4.39
X5.946Y-5.14
T4
X4.8499Y-2.1284G85X4.8499Y-2.1048
G05
X4.8499Y-2.3028G85X4.8499Y-2.2595
G05
X5.1901Y-2.1284G85X5.1901Y-2.1048
G05
X5.1901Y-2.3028G85X5.1901Y-2.2595
G05
T0
M30
