%TF.GenerationSoftware,KiCad,Pcbnew,(6.99.0-4059-gb058ef2d87)*%
%TF.CreationDate,2022-11-01T12:36:00-04:00*%
%TF.ProjectId,rp2040_keyboard,72703230-3430-45f6-9b65-79626f617264,rev?*%
%TF.SameCoordinates,Original*%
%TF.FileFunction,Soldermask,Top*%
%TF.FilePolarity,Negative*%
%FSLAX46Y46*%
G04 Gerber Fmt 4.6, Leading zero omitted, Abs format (unit mm)*
G04 Created by KiCad (PCBNEW (6.99.0-4059-gb058ef2d87)) date 2022-11-01 12:36:00*
%MOMM*%
%LPD*%
G01*
G04 APERTURE LIST*
G04 Aperture macros list*
%AMRoundRect*
0 Rectangle with rounded corners*
0 $1 Rounding radius*
0 $2 $3 $4 $5 $6 $7 $8 $9 X,Y pos of 4 corners*
0 Add a 4 corners polygon primitive as box body*
4,1,4,$2,$3,$4,$5,$6,$7,$8,$9,$2,$3,0*
0 Add four circle primitives for the rounded corners*
1,1,$1+$1,$2,$3*
1,1,$1+$1,$4,$5*
1,1,$1+$1,$6,$7*
1,1,$1+$1,$8,$9*
0 Add four rect primitives between the rounded corners*
20,1,$1+$1,$2,$3,$4,$5,0*
20,1,$1+$1,$4,$5,$6,$7,0*
20,1,$1+$1,$6,$7,$8,$9,0*
20,1,$1+$1,$8,$9,$2,$3,0*%
%AMHorizOval*
0 Thick line with rounded ends*
0 $1 width*
0 $2 $3 position (X,Y) of the first rounded end (center of the circle)*
0 $4 $5 position (X,Y) of the second rounded end (center of the circle)*
0 Add line between two ends*
20,1,$1,$2,$3,$4,$5,0*
0 Add two circle primitives to create the rounded ends*
1,1,$1,$2,$3*
1,1,$1,$4,$5*%
%AMRotRect*
0 Rectangle, with rotation*
0 The origin of the aperture is its center*
0 $1 length*
0 $2 width*
0 $3 Rotation angle, in degrees counterclockwise*
0 Add horizontal line*
21,1,$1,$2,0,0,$3*%
G04 Aperture macros list end*
%ADD10C,2.000000*%
%ADD11C,1.700000*%
%ADD12C,4.000000*%
%ADD13C,2.200000*%
%ADD14RoundRect,0.225000X-0.225000X-0.250000X0.225000X-0.250000X0.225000X0.250000X-0.225000X0.250000X0*%
%ADD15RoundRect,0.225000X0.225000X0.250000X-0.225000X0.250000X-0.225000X-0.250000X0.225000X-0.250000X0*%
%ADD16R,1.600000X1.600000*%
%ADD17O,1.600000X1.600000*%
%ADD18R,2.200000X2.200000*%
%ADD19O,2.200000X2.200000*%
%ADD20RoundRect,0.200000X0.200000X0.275000X-0.200000X0.275000X-0.200000X-0.275000X0.200000X-0.275000X0*%
%ADD21C,0.650000*%
%ADD22R,0.600000X1.450000*%
%ADD23R,0.300000X1.450000*%
%ADD24O,1.000000X2.100000*%
%ADD25O,1.000000X1.600000*%
%ADD26C,1.500000*%
%ADD27R,1.700000X1.700000*%
%ADD28O,1.700000X1.700000*%
%ADD29RoundRect,0.225000X-0.250000X0.225000X-0.250000X-0.225000X0.250000X-0.225000X0.250000X0.225000X0*%
%ADD30RoundRect,0.200000X-0.200000X-0.275000X0.200000X-0.275000X0.200000X0.275000X-0.200000X0.275000X0*%
%ADD31RotRect,1.700000X1.700000X320.000000*%
%ADD32HorizOval,1.700000X0.000000X0.000000X0.000000X0.000000X0*%
%ADD33RoundRect,0.200000X0.275000X-0.200000X0.275000X0.200000X-0.275000X0.200000X-0.275000X-0.200000X0*%
%ADD34RoundRect,0.200000X-0.275000X0.200000X-0.275000X-0.200000X0.275000X-0.200000X0.275000X0.200000X0*%
%ADD35RoundRect,0.150000X0.150000X-0.650000X0.150000X0.650000X-0.150000X0.650000X-0.150000X-0.650000X0*%
%ADD36R,1.800000X1.800000*%
%ADD37C,1.800000*%
%ADD38RoundRect,0.050000X-0.387500X-0.050000X0.387500X-0.050000X0.387500X0.050000X-0.387500X0.050000X0*%
%ADD39RoundRect,0.050000X-0.050000X-0.387500X0.050000X-0.387500X0.050000X0.387500X-0.050000X0.387500X0*%
%ADD40R,3.200000X3.200000*%
%ADD41RoundRect,0.150000X-0.512500X-0.150000X0.512500X-0.150000X0.512500X0.150000X-0.512500X0.150000X0*%
%ADD42RoundRect,0.225000X0.250000X-0.225000X0.250000X0.225000X-0.250000X0.225000X-0.250000X-0.225000X0*%
G04 APERTURE END LIST*
D10*
%TO.C,SW11*%
X152198000Y-59980000D03*
X158698000Y-59980000D03*
X152198000Y-64480000D03*
X158698000Y-64480000D03*
%TD*%
D11*
%TO.C,SW3*%
X107863000Y-130556000D03*
D12*
X112943000Y-130556000D03*
D11*
X118023000Y-130556000D03*
D13*
X115483000Y-125476000D03*
X109133000Y-128016000D03*
%TD*%
D14*
%TO.C,C4*%
X135864000Y-72644000D03*
X137414000Y-72644000D03*
%TD*%
D15*
%TO.C,C16*%
X118148400Y-53949600D03*
X116598400Y-53949600D03*
%TD*%
D16*
%TO.C,D11*%
X157999999Y-139191999D03*
D17*
X150379999Y-139191999D03*
%TD*%
D18*
%TO.C,D2*%
X137413999Y-62610999D03*
D19*
X137413999Y-52450999D03*
%TD*%
D20*
%TO.C,R6*%
X109525000Y-80300000D03*
X107875000Y-80300000D03*
%TD*%
D21*
%TO.C,J1*%
X130398000Y-57412000D03*
X124618000Y-57412000D03*
D22*
X130757999Y-58856999D03*
X129957999Y-58856999D03*
D23*
X128757999Y-58856999D03*
X127757999Y-58856999D03*
X127257999Y-58856999D03*
X126257999Y-58856999D03*
D22*
X125057999Y-58856999D03*
X124257999Y-58856999D03*
X124257999Y-58856999D03*
X125057999Y-58856999D03*
D23*
X125757999Y-58856999D03*
X126757999Y-58856999D03*
X128257999Y-58856999D03*
X129257999Y-58856999D03*
D22*
X129957999Y-58856999D03*
X130757999Y-58856999D03*
D24*
X131827999Y-57941999D03*
D25*
X131827999Y-53761999D03*
D24*
X123187999Y-57941999D03*
D25*
X123187999Y-53761999D03*
%TD*%
D16*
%TO.C,D3*%
X119391999Y-101091999D03*
D17*
X111771999Y-101091999D03*
%TD*%
D26*
%TO.C,Y1*%
X107700000Y-70700000D03*
X107700000Y-75580000D03*
%TD*%
D15*
%TO.C,C12*%
X107575000Y-66000000D03*
X106025000Y-66000000D03*
%TD*%
D11*
%TO.C,SW4*%
X126873000Y-92519000D03*
D12*
X131953000Y-92519000D03*
D11*
X137033000Y-92519000D03*
D13*
X134493000Y-87439000D03*
X128143000Y-89979000D03*
%TD*%
D15*
%TO.C,C1*%
X121175000Y-68600000D03*
X119625000Y-68600000D03*
%TD*%
D27*
%TO.C,J2*%
X122799999Y-80199999D03*
D28*
X120259999Y-80199999D03*
X117719999Y-80199999D03*
X115179999Y-80199999D03*
%TD*%
D29*
%TO.C,C9*%
X128300000Y-79743000D03*
X128300000Y-81293000D03*
%TD*%
D14*
%TO.C,C5*%
X135877000Y-69342000D03*
X137427000Y-69342000D03*
%TD*%
D15*
%TO.C,C15*%
X121175000Y-67100000D03*
X119625000Y-67100000D03*
%TD*%
D30*
%TO.C,R1*%
X135890000Y-70866000D03*
X137540000Y-70866000D03*
%TD*%
D29*
%TO.C,C3*%
X126492000Y-79743000D03*
X126492000Y-81293000D03*
%TD*%
D15*
%TO.C,C13*%
X105975000Y-80300000D03*
X104425000Y-80300000D03*
%TD*%
D14*
%TO.C,C14*%
X131425000Y-66900000D03*
X132975000Y-66900000D03*
%TD*%
D11*
%TO.C,SW2*%
X107863000Y-111506000D03*
D12*
X112943000Y-111506000D03*
D11*
X118023000Y-111506000D03*
D13*
X115483000Y-106426000D03*
X109133000Y-108966000D03*
%TD*%
D31*
%TO.C,J3*%
X112099999Y-53399999D03*
D32*
X110467318Y-55345752D03*
X108834638Y-57291505D03*
X107201957Y-59237258D03*
X105569277Y-61183011D03*
%TD*%
D33*
%TO.C,R7*%
X126268000Y-63817000D03*
X126268000Y-62167000D03*
%TD*%
D34*
%TO.C,R2*%
X131191000Y-62167000D03*
X131191000Y-63817000D03*
%TD*%
%TO.C,R8*%
X127889000Y-62167000D03*
X127889000Y-63817000D03*
%TD*%
D11*
%TO.C,SW7*%
X145923000Y-92519000D03*
D12*
X151003000Y-92519000D03*
D11*
X156083000Y-92519000D03*
D13*
X153543000Y-87439000D03*
X147193000Y-89979000D03*
%TD*%
D14*
%TO.C,C11*%
X147561000Y-56134000D03*
X149111000Y-56134000D03*
%TD*%
%TO.C,C10*%
X131425000Y-65300000D03*
X132975000Y-65300000D03*
%TD*%
D16*
%TO.C,D8*%
X138187999Y-139191999D03*
D17*
X130567999Y-139191999D03*
%TD*%
D11*
%TO.C,SW6*%
X126898400Y-130556000D03*
D12*
X131978400Y-130556000D03*
D11*
X137058400Y-130556000D03*
D13*
X134518400Y-125476000D03*
X128168400Y-128016000D03*
%TD*%
D20*
%TO.C,R10*%
X149415000Y-72644000D03*
X147765000Y-72644000D03*
%TD*%
D34*
%TO.C,R3*%
X132842000Y-62167000D03*
X132842000Y-63817000D03*
%TD*%
D35*
%TO.C,U3*%
X116560600Y-63290000D03*
X117830600Y-63290000D03*
X119100600Y-63290000D03*
X120370600Y-63290000D03*
X120370600Y-56090000D03*
X119100600Y-56090000D03*
X117830600Y-56090000D03*
X116560600Y-56090000D03*
%TD*%
D36*
%TO.C,D1*%
X159516999Y-78866999D03*
D37*
X156977000Y-78867000D03*
%TD*%
D16*
%TO.C,D9*%
X157619999Y-101091999D03*
D17*
X149999999Y-101091999D03*
%TD*%
D20*
%TO.C,R9*%
X149415000Y-67564000D03*
X147765000Y-67564000D03*
%TD*%
D16*
%TO.C,D10*%
X157745999Y-120141999D03*
D17*
X150125999Y-120141999D03*
%TD*%
D16*
%TO.C,D5*%
X119137999Y-139191999D03*
D17*
X111517999Y-139191999D03*
%TD*%
D16*
%TO.C,D6*%
X138441999Y-101091999D03*
D17*
X130821999Y-101091999D03*
%TD*%
D16*
%TO.C,D4*%
X119391999Y-120141999D03*
D17*
X111771999Y-120141999D03*
%TD*%
D38*
%TO.C,U1*%
X123816500Y-69536000D03*
X123816500Y-69936000D03*
X123816500Y-70336000D03*
X123816500Y-70736000D03*
X123816500Y-71136000D03*
X123816500Y-71536000D03*
X123816500Y-71936000D03*
X123816500Y-72336000D03*
X123816500Y-72736000D03*
X123816500Y-73136000D03*
X123816500Y-73536000D03*
X123816500Y-73936000D03*
X123816500Y-74336000D03*
X123816500Y-74736000D03*
D39*
X124654000Y-75573500D03*
X125054000Y-75573500D03*
X125454000Y-75573500D03*
X125854000Y-75573500D03*
X126254000Y-75573500D03*
X126654000Y-75573500D03*
X127054000Y-75573500D03*
X127454000Y-75573500D03*
X127854000Y-75573500D03*
X128254000Y-75573500D03*
X128654000Y-75573500D03*
X129054000Y-75573500D03*
X129454000Y-75573500D03*
X129854000Y-75573500D03*
D38*
X130691500Y-74736000D03*
X130691500Y-74336000D03*
X130691500Y-73936000D03*
X130691500Y-73536000D03*
X130691500Y-73136000D03*
X130691500Y-72736000D03*
X130691500Y-72336000D03*
X130691500Y-71936000D03*
X130691500Y-71536000D03*
X130691500Y-71136000D03*
X130691500Y-70736000D03*
X130691500Y-70336000D03*
X130691500Y-69936000D03*
X130691500Y-69536000D03*
D39*
X129854000Y-68698500D03*
X129454000Y-68698500D03*
X129054000Y-68698500D03*
X128654000Y-68698500D03*
X128254000Y-68698500D03*
X127854000Y-68698500D03*
X127454000Y-68698500D03*
X127054000Y-68698500D03*
X126654000Y-68698500D03*
X126254000Y-68698500D03*
X125854000Y-68698500D03*
X125454000Y-68698500D03*
X125054000Y-68698500D03*
X124654000Y-68698500D03*
D40*
X127253999Y-72135999D03*
%TD*%
D15*
%TO.C,C2*%
X119475000Y-73600000D03*
X117925000Y-73600000D03*
%TD*%
D41*
%TO.C,U2*%
X143134500Y-56200000D03*
X143134500Y-57150000D03*
X143134500Y-58100000D03*
X145409500Y-58100000D03*
X145409500Y-56200000D03*
%TD*%
D11*
%TO.C,SW8*%
X145923000Y-111506000D03*
D12*
X151003000Y-111506000D03*
D11*
X156083000Y-111506000D03*
D13*
X153543000Y-106426000D03*
X147193000Y-108966000D03*
%TD*%
D11*
%TO.C,SW1*%
X107863000Y-92519000D03*
D12*
X112943000Y-92519000D03*
D11*
X118023000Y-92519000D03*
D13*
X115483000Y-87439000D03*
X109133000Y-89979000D03*
%TD*%
D42*
%TO.C,C6*%
X124587000Y-63767000D03*
X124587000Y-62217000D03*
%TD*%
D10*
%TO.C,SW10*%
X152198000Y-67854000D03*
X158698000Y-67854000D03*
X152198000Y-72354000D03*
X158698000Y-72354000D03*
%TD*%
D33*
%TO.C,R4*%
X131064000Y-81343000D03*
X131064000Y-79693000D03*
%TD*%
D16*
%TO.C,D7*%
X138187999Y-120141999D03*
D17*
X130567999Y-120141999D03*
%TD*%
D11*
%TO.C,SW9*%
X145948400Y-130556000D03*
D12*
X151028400Y-130556000D03*
D11*
X156108400Y-130556000D03*
D13*
X153568400Y-125476000D03*
X147218400Y-128016000D03*
%TD*%
D14*
%TO.C,C7*%
X140449000Y-62230000D03*
X141999000Y-62230000D03*
%TD*%
D11*
%TO.C,SW5*%
X126873000Y-111506000D03*
D12*
X131953000Y-111506000D03*
D11*
X137033000Y-111506000D03*
D13*
X134493000Y-106426000D03*
X128143000Y-108966000D03*
%TD*%
D42*
%TO.C,C8*%
X129540000Y-63767000D03*
X129540000Y-62217000D03*
%TD*%
D30*
%TO.C,R5*%
X140399000Y-60706000D03*
X142049000Y-60706000D03*
%TD*%
M02*
