%TF.GenerationSoftware,KiCad,Pcbnew,(6.99.0-4059-gb058ef2d87)*%
%TF.CreationDate,2022-11-01T12:36:00-04:00*%
%TF.ProjectId,rp2040_keyboard,72703230-3430-45f6-9b65-79626f617264,rev?*%
%TF.SameCoordinates,Original*%
%TF.FileFunction,Soldermask,Bot*%
%TF.FilePolarity,Negative*%
%FSLAX46Y46*%
G04 Gerber Fmt 4.6, Leading zero omitted, Abs format (unit mm)*
G04 Created by KiCad (PCBNEW (6.99.0-4059-gb058ef2d87)) date 2022-11-01 12:36:00*
%MOMM*%
%LPD*%
G01*
G04 APERTURE LIST*
G04 Aperture macros list*
%AMHorizOval*
0 Thick line with rounded ends*
0 $1 width*
0 $2 $3 position (X,Y) of the first rounded end (center of the circle)*
0 $4 $5 position (X,Y) of the second rounded end (center of the circle)*
0 Add line between two ends*
20,1,$1,$2,$3,$4,$5,0*
0 Add two circle primitives to create the rounded ends*
1,1,$1,$2,$3*
1,1,$1,$4,$5*%
%AMRotRect*
0 Rectangle, with rotation*
0 The origin of the aperture is its center*
0 $1 length*
0 $2 width*
0 $3 Rotation angle, in degrees counterclockwise*
0 Add horizontal line*
21,1,$1,$2,0,0,$3*%
G04 Aperture macros list end*
%ADD10C,2.000000*%
%ADD11C,1.700000*%
%ADD12C,4.000000*%
%ADD13C,2.200000*%
%ADD14R,1.600000X1.600000*%
%ADD15O,1.600000X1.600000*%
%ADD16R,2.200000X2.200000*%
%ADD17O,2.200000X2.200000*%
%ADD18C,0.650000*%
%ADD19O,1.000000X2.100000*%
%ADD20O,1.000000X1.600000*%
%ADD21C,1.500000*%
%ADD22R,1.700000X1.700000*%
%ADD23O,1.700000X1.700000*%
%ADD24RotRect,1.700000X1.700000X320.000000*%
%ADD25HorizOval,1.700000X0.000000X0.000000X0.000000X0.000000X0*%
%ADD26R,1.800000X1.800000*%
%ADD27C,1.800000*%
G04 APERTURE END LIST*
D10*
%TO.C,SW11*%
X152198000Y-59980000D03*
X158698000Y-59980000D03*
X152198000Y-64480000D03*
X158698000Y-64480000D03*
%TD*%
D11*
%TO.C,SW3*%
X107863000Y-130556000D03*
D12*
X112943000Y-130556000D03*
D11*
X118023000Y-130556000D03*
D13*
X115483000Y-125476000D03*
X109133000Y-128016000D03*
%TD*%
D14*
%TO.C,D11*%
X157999999Y-139191999D03*
D15*
X150379999Y-139191999D03*
%TD*%
D16*
%TO.C,D2*%
X137413999Y-62610999D03*
D17*
X137413999Y-52450999D03*
%TD*%
D18*
%TO.C,J1*%
X130398000Y-57412000D03*
X124618000Y-57412000D03*
D19*
X131827999Y-57941999D03*
D20*
X131827999Y-53761999D03*
D19*
X123187999Y-57941999D03*
D20*
X123187999Y-53761999D03*
%TD*%
D14*
%TO.C,D3*%
X119391999Y-101091999D03*
D15*
X111771999Y-101091999D03*
%TD*%
D21*
%TO.C,Y1*%
X107700000Y-70700000D03*
X107700000Y-75580000D03*
%TD*%
D11*
%TO.C,SW4*%
X126873000Y-92519000D03*
D12*
X131953000Y-92519000D03*
D11*
X137033000Y-92519000D03*
D13*
X134493000Y-87439000D03*
X128143000Y-89979000D03*
%TD*%
D22*
%TO.C,J2*%
X122799999Y-80199999D03*
D23*
X120259999Y-80199999D03*
X117719999Y-80199999D03*
X115179999Y-80199999D03*
%TD*%
D11*
%TO.C,SW2*%
X107863000Y-111506000D03*
D12*
X112943000Y-111506000D03*
D11*
X118023000Y-111506000D03*
D13*
X115483000Y-106426000D03*
X109133000Y-108966000D03*
%TD*%
D24*
%TO.C,J3*%
X112099999Y-53399999D03*
D25*
X110467318Y-55345752D03*
X108834638Y-57291505D03*
X107201957Y-59237258D03*
X105569277Y-61183011D03*
%TD*%
D11*
%TO.C,SW7*%
X145923000Y-92519000D03*
D12*
X151003000Y-92519000D03*
D11*
X156083000Y-92519000D03*
D13*
X153543000Y-87439000D03*
X147193000Y-89979000D03*
%TD*%
D14*
%TO.C,D8*%
X138187999Y-139191999D03*
D15*
X130567999Y-139191999D03*
%TD*%
D11*
%TO.C,SW6*%
X126898400Y-130556000D03*
D12*
X131978400Y-130556000D03*
D11*
X137058400Y-130556000D03*
D13*
X134518400Y-125476000D03*
X128168400Y-128016000D03*
%TD*%
D26*
%TO.C,D1*%
X159516999Y-78866999D03*
D27*
X156977000Y-78867000D03*
%TD*%
D14*
%TO.C,D9*%
X157619999Y-101091999D03*
D15*
X149999999Y-101091999D03*
%TD*%
D14*
%TO.C,D10*%
X157745999Y-120141999D03*
D15*
X150125999Y-120141999D03*
%TD*%
D14*
%TO.C,D5*%
X119137999Y-139191999D03*
D15*
X111517999Y-139191999D03*
%TD*%
D14*
%TO.C,D6*%
X138441999Y-101091999D03*
D15*
X130821999Y-101091999D03*
%TD*%
D14*
%TO.C,D4*%
X119391999Y-120141999D03*
D15*
X111771999Y-120141999D03*
%TD*%
D11*
%TO.C,SW8*%
X145923000Y-111506000D03*
D12*
X151003000Y-111506000D03*
D11*
X156083000Y-111506000D03*
D13*
X153543000Y-106426000D03*
X147193000Y-108966000D03*
%TD*%
D11*
%TO.C,SW1*%
X107863000Y-92519000D03*
D12*
X112943000Y-92519000D03*
D11*
X118023000Y-92519000D03*
D13*
X115483000Y-87439000D03*
X109133000Y-89979000D03*
%TD*%
D10*
%TO.C,SW10*%
X152198000Y-67854000D03*
X158698000Y-67854000D03*
X152198000Y-72354000D03*
X158698000Y-72354000D03*
%TD*%
D14*
%TO.C,D7*%
X138187999Y-120141999D03*
D15*
X130567999Y-120141999D03*
%TD*%
D11*
%TO.C,SW9*%
X145948400Y-130556000D03*
D12*
X151028400Y-130556000D03*
D11*
X156108400Y-130556000D03*
D13*
X153568400Y-125476000D03*
X147218400Y-128016000D03*
%TD*%
D11*
%TO.C,SW5*%
X126873000Y-111506000D03*
D12*
X131953000Y-111506000D03*
D11*
X137033000Y-111506000D03*
D13*
X134493000Y-106426000D03*
X128143000Y-108966000D03*
%TD*%
M02*
